<svg width="26" height="30" viewBox="0 0 26 30" fill="none" xmlns="http://www.w3.org/2000/svg">
<path d="M3.49243 13.0966C3.49243 15.6461 3.21304 21.6182 0.523865 22.2817L0 22.4214V26.8568H8.94063C9.35972 28.6729 11.0012 30 12.8871 30C14.773 30 16.4144 28.6729 16.8335 26.8568H25.7742V22.4563L25.2503 22.3166C22.5611 21.6531 22.2817 15.6461 22.2817 13.1315C22.2817 7.12456 18.5797 4.74971 15.8906 3.80675C15.9604 3.56228 15.9953 3.31781 15.9953 3.07334C15.9953 1.36205 14.5984 0 12.922 0C11.2456 0 9.84866 1.39697 9.84866 3.07334C9.84866 3.31781 9.88358 3.56228 9.95343 3.80675C7.22934 4.71478 3.49243 7.08964 3.49243 13.0966ZM12.8871 28.603C11.8743 28.603 10.9662 28.0093 10.5122 27.1362H15.227C14.8079 28.0093 13.8999 28.603 12.8871 28.603ZM11.0012 4.88941L11.8743 4.64494L11.4203 3.8766C11.2806 3.63213 11.2107 3.31781 11.2107 3.03842C11.2107 2.09546 11.979 1.36205 12.8871 1.36205C13.7951 1.36205 14.5634 2.13038 14.5634 3.03842C14.5634 3.31781 14.4936 3.63213 14.3539 3.8766L13.8999 4.64494L14.773 4.88941C17.5669 5.65774 20.8498 7.71828 20.8498 13.0966C20.8498 20.2561 22.631 22.7357 24.3423 23.4692V25.4598H1.39697V23.4692C3.10827 22.7357 4.88941 20.2561 4.88941 13.0966C4.88941 7.7532 8.20722 5.69267 11.0012 4.88941Z" fill="black"/>
</svg>
