<svg width="100" height="100" viewBox="0 0 100 100" fill="none" xmlns="http://www.w3.org/2000/svg">
<path d="M85.3553 14.6445C75.9115 5.20098 63.3555 0 50 0C36.6443 0 24.0881 5.20098 14.6445 14.6445C5.20078 24.0883 0 36.6445 0 50C0 63.3555 5.20078 75.9115 14.6445 85.3553C24.0883 94.799 36.6443 100 50 100C63.3555 100 75.9115 94.799 85.3553 85.3553C94.799 75.9115 100 63.3555 100 50C100 36.6445 94.799 24.0885 85.3553 14.6445ZM50 94.1406C25.6607 94.1406 5.85938 74.3393 5.85938 50C5.85938 25.6607 25.6607 5.85938 50 5.85938C74.3393 5.85938 94.1406 25.6607 94.1406 50C94.1406 74.3393 74.3393 94.1406 50 94.1406Z" fill="#21a746"/>
<path d="M73.6337 33.9568C72.4897 32.8131 70.6347 32.8131 69.4907 33.957L43.6198 59.8279L30.0013 46.2094C28.8573 45.0654 27.0022 45.0654 25.8581 46.2094C24.714 47.3533 24.714 49.2084 25.8581 50.3525L41.5481 66.0426C42.1202 66.6146 42.87 66.9006 43.6196 66.9006C44.3692 66.9006 45.1192 66.6145 45.6911 66.0426L73.6337 38.1C74.7778 36.9561 74.7778 35.101 73.6337 33.9568Z" fill="#21a746"/>
</svg>
