<?xml version="1.0" encoding="iso-8859-1"?>
<!-- Generator: Adobe Illustrator 19.0.0, SVG Export Plug-In . SVG Version: 6.00 Build 0)  -->
<svg version="1.1" id="Capa_1" xmlns="http://www.w3.org/2000/svg" xmlns:xlink="http://www.w3.org/1999/xlink" x="0px" y="0px"
	 viewBox="0 0 512 512" style="enable-background:new 0 0 512 512;" xml:space="preserve">
<path style="fill:#FFD15C;" d="M347.005,208.064H164.989c-11.776,0-21.333-9.557-21.333-21.333V21.333
	C143.656,9.557,153.213,0,164.989,0h182.016c11.787,0,21.333,9.557,21.333,21.333v165.397
	C368.339,198.496,358.803,208.064,347.005,208.064"/>
<rect x="232.051" style="fill:#F3705A;" width="47.915" height="53.867"/>
<g>
	
		<rect x="337.907" y="138.261" transform="matrix(-0.999 -0.0458 0.0458 -0.999 736.7668 314.8429)" style="fill:#415A6B;" width="68.167" height="21.439"/>
	
		<rect x="105.926" y="138.277" transform="matrix(0.999 -0.0458 0.0458 0.999 -6.6774 6.5691)" style="fill:#415A6B;" width="68.167" height="21.439"/>
</g>
<path style="fill:#8AD7F8;" d="M361.213,224.832c-0.896-22.891-16.416-42.912-39.168-50.539l-66.037-22.144l-66.059,22.144
	c-22.752,7.627-38.272,27.648-39.168,50.539l-8.437,137.248c-1.045,26.581,17.835,50.165,45.109,56.331
	c45.12,10.229,91.979,10.229,137.12,0c27.275-6.165,46.123-29.749,45.109-56.331L361.213,224.832z"/>
<path style="fill:#55C0EB;" d="M225.032,141.141c-2.603,14.997-4.085,32.085-4.085,50.251c0,59.349,15.691,107.499,35.061,107.499
	c19.349,0,35.04-48.149,35.04-107.499c0-18.165-1.483-35.253-4.085-50.251H225.032z"/>
<path style="fill:#415A6B;" d="M256.008,330.539c-18.144,0-32.853,14.709-32.853,32.853v115.776
	c0,18.144,14.709,32.832,32.853,32.832c18.123,0,32.832-14.688,32.832-32.832V363.392
	C288.84,345.248,274.131,330.539,256.008,330.539"/>
<path style="fill:#55C0EB;" d="M305.555,422.059v-60.48c0-27.371-22.187-49.557-49.557-49.557
	c-27.349,0-49.547,22.187-49.547,49.557v60.48C239.283,427.371,272.733,427.371,305.555,422.059"/>
<g>
	<path style="fill:#344A5E;" d="M357.672,166.752H154.323v-36.107c67.787-10.912,135.563-10.912,203.349,0L357.672,166.752
		L357.672,166.752z"/>
	<path style="fill:#344A5E;" d="M308.552,144.608c0,29.024-23.52,52.544-52.565,52.544c-29.003,0-52.523-23.52-52.523-52.544
		s23.52-52.544,52.523-52.544C285.032,92.064,308.552,115.584,308.552,144.608"/>
</g>
<path style="fill:#E8EAE9;" d="M289.843,144.608c0,18.688-15.147,33.856-33.835,33.856s-33.856-15.168-33.856-33.856
	s15.168-33.856,33.856-33.856S289.843,125.92,289.843,144.608"/>
<path style="fill:#F3F3F3;" d="M256.008,178.453c-18.688,0-33.856-15.168-33.856-33.856s15.168-33.856,33.856-33.856V178.453z"/>
<g>
</g>
<g>
</g>
<g>
</g>
<g>
</g>
<g>
</g>
<g>
</g>
<g>
</g>
<g>
</g>
<g>
</g>
<g>
</g>
<g>
</g>
<g>
</g>
<g>
</g>
<g>
</g>
<g>
</g>
</svg>
