<?xml version="1.0" encoding="iso-8859-1"?>
<!-- Generator: Adobe Illustrator 19.0.0, SVG Export Plug-In . SVG Version: 6.00 Build 0)  -->
<svg version="1.1" id="Capa_1" xmlns="http://www.w3.org/2000/svg" xmlns:xlink="http://www.w3.org/1999/xlink" x="0px" y="0px"
	 viewBox="0 0 512.001 512.001" style="enable-background:new 0 0 512.001 512.001;" xml:space="preserve">
<path style="fill:#91CC04;" d="M188.413,136.368c-4.395,2.12-8.944,3.561-13.535,4.354c-3.18,0.556-6.381,0.793-9.562,0.741
	c-2.532-0.041-5.054-0.268-7.524-0.679c-15.943-2.625-30.415-12.722-37.959-28.377c-12.32-25.567-1.575-56.27,23.972-68.58
	c13.432-6.474,28.284-6.587,41.14-1.503c0.01,0,0.01,0.01,0.021,0.01c0.597,0.237,1.184,0.484,1.77,0.741
	c10.848,4.735,20.102,13.236,25.639,24.723C224.695,93.354,213.96,124.048,188.413,136.368z"/>
<path style="fill:#9CDD05;" d="M188.413,136.368c-4.395,2.12-8.944,3.561-13.535,4.354c-10.828-4.724-20.081-13.226-25.629-24.713
	c-12.32-25.567-1.585-56.27,23.972-68.58c4.395-2.12,8.934-3.561,13.514-4.354c10.848,4.735,20.102,13.236,25.639,24.723
	C224.695,93.354,213.96,124.048,188.413,136.368z"/>
<path style="fill:#85BB04;" d="M413.28,38.548c-21.182-8.455-35.016-0.532-42.995,7.837l4.947-37.657
	c0.555-4.226-2.422-8.103-6.649-8.659c-4.222-0.549-8.104,2.422-8.659,6.649l-10.351,78.792c-0.555,4.226,2.422,8.103,6.649,8.659
	c0.341,0.044,0.679,0.066,1.015,0.066c3.816,0,7.134-2.829,7.644-6.715l3.271-24.902c25.137,11.328,40.841-0.737,48.618-10.282
	C420.522,47.731,418.795,40.749,413.28,38.548z"/>
<path style="fill:#EEBF00;" d="M417.961,162.264c-4.398,39.988-42.042,67.558-81.446,59.862
	c-34.697-6.762-58.967-39.123-55.035-74.879c4.148-37.692,38.062-64.885,75.744-60.737
	C395.026,90.675,422.101,124.673,417.961,162.264z"/>
<path style="fill:#FFCD00;" d="M417.961,162.264c-3.355,30.508-26.226,54.14-54.809,59.831
	c-20.246-13.844-32.401-38.124-29.53-64.216c3.355-30.508,26.226-54.14,54.809-59.831
	C408.687,111.892,420.833,136.183,417.961,162.264z"/>
<path style="fill:#3FA45A;" d="M327.951,172.208c0,43.26-28.511,79.851-67.757,92.037c-7.308,2.275-14.996,3.695-22.942,4.158
	c-1.266,0.072-2.532,0.124-3.819,0.144c-0.607,0.01-1.225,0.021-1.842,0.021c-53.224,0-96.36-43.137-96.36-96.36
	s43.137-96.36,96.36-96.36c1.904,0,3.788,0.051,5.661,0.165c3.973,0.226,7.874,0.7,11.703,1.41c1.667,0.298,3.314,0.638,4.951,1.029
	C296.363,88.518,327.951,126.672,327.951,172.208z"/>
<path style="fill:#4CBA68;" d="M327.951,172.208c0,43.26-28.511,79.851-67.757,92.037c-44.938-8.172-78.986-47.501-78.986-94.785
	c0-43.26,28.49-79.851,67.747-92.037c1.667,0.298,3.314,0.638,4.951,1.029C296.363,88.518,327.951,126.672,327.951,172.208z"/>
<path style="fill:#CD2A00;" d="M505.665,164.21c0,28.055-22.674,51.361-51.361,51.361c-28.367,0-51.371-22.994-51.371-51.361
	c0-37.502,39.126-62.43,72.821-46.677C493.407,125.654,505.665,143.5,505.665,164.21z"/>
<path style="fill:#85BB04;" d="M105.025,7.916C77.74,10.15,67.879,26.244,64.387,39.182L50.978,4.91
	c-1.554-3.97-6.032-5.933-10.001-4.376c-3.97,1.553-5.931,6.03-4.376,10.001l27.486,70.25c1.192,3.047,4.106,4.91,7.19,4.91
	c0.936,0,1.887-0.171,2.81-0.533c3.97-1.553,5.931-6.03,4.376-10.001l-7.571-19.352c32.555-1.895,41.36-24.006,43.677-37.578
	C115.548,12.493,110.825,7.441,105.025,7.916z"/>
<path style="fill:#CD2A00;" d="M114.332,226.439c-2.656,0.494-5.362,0.844-8.111,1.05c-33.39,2.913-66.079-16.232-78.914-49.024
	C4.941,121.289,54.624,63.66,112.561,73.716c1.462,0.257,2.923,0.556,4.395,0.895c24.085,5.579,45.133,22.551,54.819,47.326
	C189.973,168.491,159.897,218.009,114.332,226.439z"/>
<g>
	<path style="fill:#FF3501;" d="M114.332,226.439c-24.342-5.692-45.597-22.881-55.385-47.923
		c-15.82-40.44,4.138-86.037,44.557-101.867c2.995-1.173,6.021-2.141,9.058-2.933c1.462,0.257,2.923,0.556,4.395,0.895
		c24.085,5.579,45.133,22.551,54.819,47.326C189.973,168.491,159.897,218.009,114.332,226.439z"/>
	<path style="fill:#FF3501;" d="M505.665,164.21c0,25.011-17.889,45.854-41.572,50.424c-17.662-8.111-29.931-25.958-29.931-46.667
		c0-25.032,17.899-45.864,41.593-50.434C493.407,125.654,505.665,143.5,505.665,164.21z"/>
</g>
<path style="fill:#CC7400;" d="M486.799,215.715v274.146c0,12.176-9.963,22.14-22.129,22.14H47.331
	c-12.176,0-22.14-9.963-22.14-22.14V215.715c0-3.664,2.161-6.855,5.27-8.347c1.215-0.587,2.563-0.916,3.994-0.916h443.08
	C482.63,206.452,486.799,210.619,486.799,215.715z"/>
<path style="fill:#AA6100;" d="M508.3,185.948v48.314c0,7.195-5.898,13.092-13.092,13.092H16.793
	c-7.205,0-13.092-5.898-13.092-13.092v-48.314c0-7.195,5.887-13.092,13.092-13.092h478.415
	C502.402,172.855,508.3,178.753,508.3,185.948z"/>
<path style="fill:#CC7400;" d="M508.3,185.948v48.314c0,7.195-5.898,13.092-13.092,13.092H50.625
	c-7.205,0-13.092-5.898-13.092-13.092v-48.314c0-7.195,5.887-13.092,13.092-13.092h444.583
	C502.402,172.855,508.3,178.753,508.3,185.948z"/>
<path id="SVGCleanerId_0" style="fill:#EE8700;" d="M486.799,247.354V489.86c0,12.176-9.963,22.14-22.129,22.14H83.057
	c-12.176,0-22.14-9.963-22.14-22.14V247.354H486.799z"/>
<g>
	<path id="SVGCleanerId_0_1_" style="fill:#EE8700;" d="M486.799,247.354V489.86c0,12.176-9.963,22.14-22.129,22.14H83.057
		c-12.176,0-22.14-9.963-22.14-22.14V247.354H486.799z"/>
</g>
<path style="fill:#FF9811;" d="M486.799,286.91v-21.841l-60.655,60.655l-51.175-51.175l27.193-27.193h-21.841l-16.273,16.273
	l-16.273-16.273H335.3l-16.273,16.273l-16.273-16.273h-21.841l27.193,27.193l-51.175,51.175l-51.175-51.175l27.193-27.193h-21.841
	l-16.273,16.273l-16.273-16.273h-12.475l-16.273,16.273l-16.273-16.273h-21.841l27.193,27.193L87.72,325.723l-62.528-62.528v21.841
	l51.608,51.608l-11.59,11.59c-8.219-8.219-32.201-32.201-40.018-40.018v21.841l29.097,29.097l-29.097,29.097v21.841l40.018-40.018
	l11.59,11.59l-51.608,51.608v21.841c7.776-7.776,54.63-54.63,62.528-62.528l51.175,51.175l-68.241,68.241h21.841l57.32-57.32
	l11.59,11.59l-45.73,45.73h21.841l34.81-34.81l34.81,34.81h21.841c-9.134-9.134-29.807-29.807-45.73-45.73l11.59-11.59l0,0
	c16.75,16.75,40.095,40.095,57.32,57.32h9.552c16.973-16.973,40.542-40.542,57.32-57.32l0,0l11.59,11.59l-37.939,37.939
	l-7.792,7.792h21.841l34.81-34.81l34.81,34.81h21.841l-45.73-45.73l11.59-11.59l57.32,57.32h21.841l-68.241-68.241l51.175-51.175
	c11.489,11.489,48.091,48.091,60.655,60.655v-21.841l-49.734-49.734l11.59-11.59l38.145,38.145v-21.841l-27.224-27.224
	l27.224-27.224v-21.841c-17.861,17.861-21.164,21.164-38.145,38.145l-11.59-11.59C444.576,329.131,479.209,294.499,486.799,286.91z
	 M364.048,285.468l51.175,51.175l-11.59,11.59l-51.175-51.175L364.048,285.468z M392.713,359.153l-51.175,51.175l-51.175-51.175
	l51.175-51.175L392.713,359.153z M341.538,262.957l11.59,11.59l-11.59,11.59l-11.59-11.59L341.538,262.957z M319.028,285.468
	l11.59,11.59l-51.175,51.175l-11.59-11.59L319.028,285.468z M268.521,359.153l-11.59,11.59l0,0l-11.59-11.59l11.59-11.59
	L268.521,359.153z M246.011,336.643l-11.59,11.59l-33.724-33.724l-17.451-17.451l11.59-11.59L246.011,336.643z M223.501,359.153
	l-51.175,51.175l-51.175-51.175l51.175-51.175L223.501,359.153z M172.326,262.957l11.59,11.59l-11.59,11.59l-11.59-11.59
	L172.326,262.957z M149.816,285.468l11.59,11.59l-32.633,32.633l-18.542,18.542l-11.59-11.59L149.816,285.468z M76.13,359.153
	l11.59-11.59l0,0l11.59,11.59l-11.59,11.59L76.13,359.153z M98.64,381.664l11.59-11.59l51.175,51.175l-11.59,11.59L98.64,381.664z
	 M172.326,455.349l-11.59-11.59l11.59-11.59l11.59,11.59L172.326,455.349z M194.836,432.838l-11.59-11.59l51.175-51.175l11.59,11.59
	L194.836,432.838z M256.932,494.934l-51.175-51.175l51.175-51.175l51.175,51.175L256.932,494.934z M267.852,381.664L267.852,381.664
	l11.59-11.59l51.175,51.175l-11.59,11.59L267.852,381.664z M341.538,455.349l-11.59-11.59l11.59-11.59l11.59,11.59L341.538,455.349z
	 M364.048,432.838l-11.59-11.59l51.175-51.175l11.59,11.59L364.048,432.838z M437.733,359.153l-11.59,11.59l-11.59-11.59
	l11.59-11.59L437.733,359.153z"/>
<g>
	<path style="fill:#EE8700;" d="M25.192,308.214v21.841l29.097,29.097L25.192,388.25v21.841l35.726-35.726V343.94
		C50.584,333.607,31.923,314.947,25.192,308.214z"/>
	<path style="fill:#EE8700;" d="M25.192,455.112c4.323-4.323,20.678-20.678,35.726-35.726v-21.841l-35.726,35.726
		C25.192,433.271,25.192,455.112,25.192,455.112z"/>
	<polygon style="fill:#EE8700;" points="25.192,263.194 25.192,285.035 60.918,320.761 60.918,298.92 	"/>
</g>
<g>
</g>
<g>
</g>
<g>
</g>
<g>
</g>
<g>
</g>
<g>
</g>
<g>
</g>
<g>
</g>
<g>
</g>
<g>
</g>
<g>
</g>
<g>
</g>
<g>
</g>
<g>
</g>
<g>
</g>
</svg>
