<?xml version="1.0" encoding="iso-8859-1"?>
<!-- Generator: Adobe Illustrator 19.0.0, SVG Export Plug-In . SVG Version: 6.00 Build 0)  -->
<svg xmlns="http://www.w3.org/2000/svg" xmlns:xlink="http://www.w3.org/1999/xlink" version="1.1" id="Capa_1" x="0px" y="0px" viewBox="0 0 480.005 480.005" style="enable-background:new 0 0 480.005 480.005;" xml:space="preserve" width="512px" height="512px">
<g>
	<g>
		<rect x="208.003" y="232.005" width="16" height="16" fill="#21a746"/>
	</g>
</g>
<g>
	<g>
		<rect x="176.003" y="232.005" width="16" height="16" fill="#21a746"/>
	</g>
</g>
<g>
	<g>
		<rect x="304.003" y="256.005" width="16" height="16" fill="#21a746"/>
	</g>
</g>
<g>
	<g>
		<rect x="272.003" y="256.005" width="16" height="16" fill="#21a746"/>
	</g>
</g>
<g>
	<g>
		<rect x="304.003" y="224.005" width="16" height="16" fill="#21a746"/>
	</g>
</g>
<g>
	<g>
		<rect x="272.003" y="224.005" width="16" height="16" fill="#21a746"/>
	</g>
</g>
<g>
	<g>
		<rect x="304.003" y="192.005" width="16" height="16" fill="#21a746"/>
	</g>
</g>
<g>
	<g>
		<rect x="272.003" y="192.005" width="16" height="16" fill="#21a746"/>
	</g>
</g>
<g>
	<g>
		<rect x="304.003" y="160.005" width="16" height="16" fill="#21a746"/>
	</g>
</g>
<g>
	<g>
		<rect x="272.003" y="160.005" width="16" height="16" fill="#21a746"/>
	</g>
</g>
<g>
	<g>
		<rect x="304.003" y="128.005" width="16" height="16" fill="#21a746"/>
	</g>
</g>
<g>
	<g>
		<rect x="272.003" y="128.005" width="16" height="16" fill="#21a746"/>
	</g>
</g>
<g>
	<g>
		<rect x="144.003" y="232.005" width="16" height="16" fill="#21a746"/>
	</g>
</g>
<g>
	<g>
		<rect x="208.003" y="200.005" width="16" height="16" fill="#21a746"/>
	</g>
</g>
<g>
	<g>
		<rect x="176.003" y="200.005" width="16" height="16" fill="#21a746"/>
	</g>
</g>
<g>
	<g>
		<rect x="144.003" y="200.005" width="16" height="16" fill="#21a746"/>
	</g>
</g>
<g>
	<g>
		<rect x="208.003" y="168.005" width="16" height="16" fill="#21a746"/>
	</g>
</g>
<g>
	<g>
		<rect x="176.003" y="168.005" width="16" height="16" fill="#21a746"/>
	</g>
</g>
<g>
	<g>
		<rect x="144.003" y="168.005" width="16" height="16" fill="#21a746"/>
	</g>
</g>
<g>
	<g>
		<rect x="208.003" y="136.005" width="16" height="16" fill="#21a746"/>
	</g>
</g>
<g>
	<g>
		<rect x="176.003" y="136.005" width="16" height="16" fill="#21a746"/>
	</g>
</g>
<g>
	<g>
		<rect x="144.003" y="136.005" width="16" height="16" fill="#21a746"/>
	</g>
</g>
<g>
	<g>
		<rect x="208.003" y="104.005" width="16" height="16" fill="#21a746"/>
	</g>
</g>
<g>
	<g>
		<rect x="176.003" y="104.005" width="16" height="16" fill="#21a746"/>
	</g>
</g>
<g>
	<g>
		<rect x="144.003" y="104.005" width="16" height="16" fill="#21a746"/>
	</g>
</g>
<g>
	<g>
		<rect x="208.003" y="72.005" width="16" height="16" fill="#21a746"/>
	</g>
</g>
<g>
	<g>
		<rect x="176.003" y="72.005" width="16" height="16" fill="#21a746"/>
	</g>
</g>
<g>
	<g>
		<rect x="144.003" y="72.005" width="16" height="16" fill="#21a746"/>
	</g>
</g>
<g>
	<g>
		<rect x="136.003" y="336.005" width="16" height="16" fill="#21a746"/>
	</g>
</g>
<g>
	<g>
		<rect x="168.003" y="336.005" width="64" height="16" fill="#21a746"/>
	</g>
</g>
<g>
	<g>
		<rect x="104.003" y="368.005" width="168" height="16" fill="#21a746"/>
	</g>
</g>
<g>
	<g>
		<path d="M448.003,335.205c18.611-3.827,31.976-20.199,32-39.2c0-59.2-15.328-96-40-96s-40,36.8-40,96    c0.024,19.001,13.389,35.373,32,39.2v128.8h-32v-48h8c4.418,0,8-3.582,8-8v-56c0-3.107-1.8-5.934-4.616-7.248l-34.312-16    c-2.462-1.15-5.339-0.973-7.64,0.472c-5.514,3.477-11.352,6.411-17.432,8.76V112.005c0-3.229-1.94-6.141-4.92-7.384l-91.08-37.952    V8.005c0.003-4.418-3.577-8.002-7.995-8.005c-0.961-0.001-1.914,0.172-2.813,0.509l-128,48c-3.125,1.171-5.194,4.159-5.192,7.496    v259.264c-18.009,10.146-33.82,23.773-46.512,40.088c-0.968,1.357-1.488,2.982-1.488,4.648v48c0,4.418,3.582,8,8,8h8v48h-32    v-128.8c18.611-3.827,31.976-20.199,32-39.2c0-59.2-15.328-96-40-96s-40,36.8-40,96c0.024,19.001,13.389,35.373,32,39.2v128.8h-32    v16h480v-16h-32V335.205z M32.003,318.533c-9.555-3.378-15.958-12.394-16-22.528c0-55.2,14.032-80,24-80s24,24.8,24,80    c-0.042,10.134-6.445,19.15-16,22.528v-22.528h-16V318.533z M256.003,84.005l80,33.336v170.664h-80V84.005z M256.003,304.005h80    v38.48c-5.276,0.995-10.631,1.504-16,1.52c-23.808,0-37.88-9.448-54.168-20.384c-3.2-2.128-6.456-4.288-9.832-6.4V304.005z     M128.003,61.549l112-42v244.456h-112V61.549z M128.003,280.005h112v28.184c-17.453-8.398-36.636-12.572-56-12.184    c-19.246-0.012-38.295,3.871-56,11.416V280.005z M80.003,362.733c25.589-31.294,63.586-49.828,104-50.728    c35.824,0,54.672,12.656,72.912,24.896c16.92,11.36,34.408,23.104,63.088,23.104c19.067-0.057,37.771-5.22,54.168-14.952    l25.832,12.048v42.904h-320V362.733z M112.003,464.005h-16v-48h16V464.005z M184.003,464.005h-56v-16h56V464.005z     M184.003,432.005h-56v-16h56V432.005z M232.003,464.005h-32v-48h32V464.005z M280.003,464.005h-32v-48h32V464.005z     M352.003,464.005h-56v-16h56V464.005z M352.003,432.005h-56v-16h56V432.005z M384.003,464.005h-16v-48h16V464.005z     M432.003,318.533c-9.555-3.378-15.958-12.394-16-22.528c0-55.2,14.032-80,24-80c9.968,0,24,24.8,24,80    c-0.042,10.134-6.445,19.15-16,22.528v-22.528h-16V318.533z" fill="#21a746"/>
	</g>
</g>
<g>
	<g>
		<rect x="368.003" y="368.005" width="16" height="16" fill="#21a746"/>
	</g>
</g>
<g>
</g>
<g>
</g>
<g>
</g>
<g>
</g>
<g>
</g>
<g>
</g>
<g>
</g>
<g>
</g>
<g>
</g>
<g>
</g>
<g>
</g>
<g>
</g>
<g>
</g>
<g>
</g>
<g>
</g>
</svg>
