<svg xmlns="http://www.w3.org/2000/svg" viewBox="0 0 1657.84 295.32"><defs><style>.cls-1{fill:#315c35}.cls-2{fill:#62ad3d}.cls-3{fill:#448539}.cls-5{fill:#84d141}</style></defs><path class="cls-1" d="M1049.74 127.67h7.68v12.36h-7.68zm17.67 0h7.68v12.36h-7.68zm17.67 0h7.68v12.36h-7.68z"/><path class="cls-1" d="M1040.52 98.02h61.45v34.75h-61.45z"/><path class="cls-2" d="M1047.42 104.78h47.66v21.21h-47.66z"/><path class="cls-3" d="M339.51 178.46h62.67v116.11h-62.67z"/><path class="cls-2" d="M347.07 189.82h4.69v13.5h-4.69zm10.72 0h4.69v13.5h-4.69zm10.71 0h4.69v13.5h-4.69zm10.71 0h4.69v13.5h-4.69zm10.72 0h4.69v13.5h-4.69zm-42.86 20.34h4.69v13.5h-4.69zm10.72 0h4.69v13.5h-4.69zm10.71 0h4.69v13.5h-4.69zm10.71 0h4.69v13.5h-4.69zm10.72 0h4.69v13.5h-4.69zm-42.86 20.34h4.69V244h-4.69zm10.72 0h4.69V244h-4.69zm10.71 0h4.69V244h-4.69zm10.71 0h4.69V244h-4.69zm10.72 0h4.69V244h-4.69zm-42.86 20.34h4.69v13.5h-4.69zm10.72 0h4.69v13.5h-4.69zm10.71 0h4.69v13.5h-4.69zm10.71 0h4.69v13.5h-4.69zm10.72 0h4.69v13.5h-4.69zm-42.86 20.34h4.69v13.5h-4.69zm10.72 0h4.69v13.5h-4.69zm10.71 0h4.69v13.5h-4.69zm10.71 0h4.69v13.5h-4.69zm10.72 0h4.69v13.5h-4.69z"/><path d="M339.51 251.44h-31.22v-27.13l15.61-15.32 15.61 15.32v27.13z" fill="#029440"/><path class="cls-3" d="M507.95 177.63h94.77v68.79h-94.77zm577.33-17.24h176.48v54.3h-176.48z"/><path class="cls-1" d="M160.87 203.42H339.5v85.99H160.87z"/><path class="cls-2" d="M679.75 143.45h54.79V250.2h-54.79z"/><path class="cls-1" d="M717.37 165.11h97.31v110.24h-97.31zm-97.97 32.14h89v98.97h-89z"/><path class="cls-2" d="M628.47 206.51h9.68v15.47h-9.68zm15.48 0h9.68v15.47h-9.68zm15.48 0h9.68v15.47h-9.68zm15.48 0h9.68v15.47h-9.68zm15.48 0h9.68v15.47h-9.68zm-61.92 24.75h9.68v15.47h-9.68zm15.48 0h9.68v15.47h-9.68zm15.48 0h9.68v15.47h-9.68zm15.48 0h9.68v15.47h-9.68zm15.48 0h9.68v15.47h-9.68zM628.47 256h9.68v15.47h-9.68zm15.48 0h9.68v15.47h-9.68zm15.48 0h9.68v15.47h-9.68zm15.48 0h9.68v15.47h-9.68zm15.48 0h9.68v15.47h-9.68zm-61.92 24.75h9.68v15.47h-9.68zm15.48 0h9.68v15.47h-9.68zm15.48 0h9.68v15.47h-9.68zm15.48 0h9.68v15.47h-9.68zm15.48 0h9.68v15.47h-9.68z"/><path class="cls-3" d="M778.65 193.87h62.67v102.3h-62.67z"/><path class="cls-2" d="M786.21 203.87h4.69v11.89h-4.69zm10.72 0h4.69v11.89h-4.69zm10.71 0h4.69v11.89h-4.69zm10.71 0h4.69v11.89h-4.69zm10.72 0h4.69v11.89h-4.69zm-42.86 17.92h4.69v11.89h-4.69zm10.72 0h4.69v11.89h-4.69zm10.71 0h4.69v11.89h-4.69zm10.71 0h4.69v11.89h-4.69zm10.72 0h4.69v11.89h-4.69zm-42.86 17.93h4.69v11.89h-4.69zm10.72 0h4.69v11.89h-4.69zm10.71 0h4.69v11.89h-4.69zm10.71 0h4.69v11.89h-4.69zm10.72 0h4.69v11.89h-4.69zm-42.86 17.92h4.69v11.89h-4.69zm10.72 0h4.69v11.89h-4.69zm10.71 0h4.69v11.89h-4.69zm10.71 0h4.69v11.89h-4.69zm10.72 0h4.69v11.89h-4.69zm-42.86 17.92h4.69v11.89h-4.69zm10.72 0h4.69v11.89h-4.69zm10.71 0h4.69v11.89h-4.69zm10.71 0h4.69v11.89h-4.69zm10.72 0h4.69v11.89h-4.69z"/><path class="cls-3" d="M980.11 109.08h41.59a10.71 10.71 0 0 1 10.71 10.71v67.3h-63v-67.3a10.71 10.71 0 0 1 10.7-10.71z"/><path class="cls-1" d="M969.4 121.4a31.51 31.51 0 0 1 31.51-31.51 31.51 31.51 0 0 1 31.51 31.51"/><path class="cls-2" d="M1032.35 138.75h77.31v156.77h-77.31z"/><path class="cls-5" d="M1046.71 157.38h8a2.05 2.05 0 0 1 2.05 2.05V180h-12.08v-20.57a2.05 2.05 0 0 1 2.03-2.05zm20.29 0h8a2.05 2.05 0 0 1 2.05 2.05V180H1065v-20.57a2.05 2.05 0 0 1 2.05-2.05zm20.33 0h8a2.05 2.05 0 0 1 2.05 2.05V180h-12.08v-20.57a2.05 2.05 0 0 1 2.03-2.05zm-40.62 38.39h8a2.05 2.05 0 0 1 2.05 2.05v20.58h-12.08v-20.58a2.05 2.05 0 0 1 2.05-2.05zm20.29 0h8a2.05 2.05 0 0 1 2.05 2.05v20.58H1065v-20.58a2.05 2.05 0 0 1 2-2.05zm20.33 0h8a2.05 2.05 0 0 1 2.05 2.05v20.58h-12.08v-20.58a2.05 2.05 0 0 1 2.03-2.05zm-40.62 38.39h8a2.05 2.05 0 0 1 2.05 2.05v20.59h-12.08v-20.58a2.05 2.05 0 0 1 2.03-2.06zm20.29 0h8a2.05 2.05 0 0 1 2.05 2.05v20.59H1065v-20.58a2.05 2.05 0 0 1 2-2.06zm20.33 0h8a2.05 2.05 0 0 1 2.05 2.05v20.59h-12.08v-20.58a2.05 2.05 0 0 1 2.03-2.06zm-40.62 38.4h8a2.05 2.05 0 0 1 2.05 2.05v20.58h-12.08v-20.58a2.05 2.05 0 0 1 2.03-2.05zm20.29 0h8a2.05 2.05 0 0 1 2.05 2.05v20.58H1065v-20.58a2.05 2.05 0 0 1 2-2.05zm20.33 0h8a2.05 2.05 0 0 1 2.05 2.05v20.58h-12.08v-20.58a2.05 2.05 0 0 1 2.03-2.05z"/><path class="cls-2" d="M1352.89 153.12h51.66v141.97h-51.66zm-1167.7 10.62h51.66v131.34h-51.66z"/><path class="cls-1" d="M925.11 10.07h14.75v285.02h-14.75z"/><path class="cls-2" d="M939.85 40.92h14.75v254.17h-14.75zm-29.49 0h14.75v254.17h-14.75z"/><path class="cls-1" d="M895.62 72.22h14.75v222.87h-14.75zm58.98 0h14.75v222.87H954.6zm-368.55 0h11.12v222.87h-11.12z"/><path class="cls-2" d="M597.17 72.22h11.12v222.87h-11.12zm-22.24 0h11.12v222.87h-11.12z"/><path class="cls-1" d="M563.81 72.22h11.12v222.87h-11.12zm44.48 0h11.12v222.87h-11.12zm412.56 74.46l-19.94-21.16-19.95 21.16"/><path class="cls-2" d="M980.96 146.68h39.89v7.03h-39.89z"/><path class="cls-1" d="M980.96 153.71h39.89v7.03h-39.89z"/><path class="cls-2" d="M980.96 160.52h39.89v7.03h-39.89z"/><path class="cls-1" d="M980.96 167.55h39.89v7.03h-39.89z"/><path class="cls-2" d="M980.96 174.58h39.89v7.03h-39.89z"/><path class="cls-1" d="M987.17 181.61h4.87v8.27h-4.87zm10.79 0h4.87v8.27h-4.87zm10.78 0h4.87v8.27h-4.87z"/><path class="cls-2" d="M841.35 218.74h54.11v25.82h-54.11z"/><path class="cls-1" d="M848.27 224.38h4.24a1.09 1.09 0 0 1 1.09 1.09v13.45h-6.43v-13.45a1.09 1.09 0 0 1 1.1-1.09zm12.01 0h4.24a1.09 1.09 0 0 1 1.09 1.09v13.45h-6.43v-13.45a1.09 1.09 0 0 1 1.1-1.09zm12 0h4.24a1.09 1.09 0 0 1 1.09 1.09v13.45h-6.43v-13.45a1.09 1.09 0 0 1 1.09-1.09zm12.01 0h4.24a1.09 1.09 0 0 1 1.09 1.09v13.45h-6.43v-13.45a1.09 1.09 0 0 1 1.1-1.09z"/><path class="cls-2" d="M841.35 115.48h54.11v25.82h-54.11z"/><path class="cls-1" d="M848.27 121.11h4.24a1.09 1.09 0 0 1 1.09 1.09v13.45h-6.43v-13.44a1.09 1.09 0 0 1 1.1-1.1zm12.01 0h4.24a1.09 1.09 0 0 1 1.09 1.09v13.45h-6.43v-13.44a1.09 1.09 0 0 1 1.09-1.09zm12 0h4.24a1.09 1.09 0 0 1 1.09 1.09v13.45h-6.43v-13.44a1.09 1.09 0 0 1 1.1-1.1zm12.01 0h4.24a1.09 1.09 0 0 1 1.09 1.09v13.45h-6.43v-13.44a1.09 1.09 0 0 1 1.09-1.09z"/><path class="cls-2" d="M841.35 167.11h54.11v25.82h-54.11z"/><path class="cls-1" d="M848.27 172.75h4.24a1.09 1.09 0 0 1 1.09 1.09v13.45h-6.43v-13.45a1.09 1.09 0 0 1 1.1-1.09zm12.01 0h4.24a1.09 1.09 0 0 1 1.09 1.09v13.45h-6.43v-13.45a1.09 1.09 0 0 1 1.1-1.09zm12 0h4.24a1.09 1.09 0 0 1 1.09 1.09v13.45h-6.43v-13.45a1.09 1.09 0 0 1 1.09-1.09zm12.01 0h4.24a1.09 1.09 0 0 1 1.09 1.09v13.45h-6.43v-13.45a1.09 1.09 0 0 1 1.1-1.09zm-42.94-31.46h54.11v25.82h-54.11z"/><path class="cls-2" d="M848.27 146.93h4.24a1.09 1.09 0 0 1 1.09 1.07v13.45h-6.43V148a1.09 1.09 0 0 1 1.09-1.09zm12.01 0h4.24a1.09 1.09 0 0 1 1.09 1.09v13.45h-6.43V148a1.09 1.09 0 0 1 1.1-1.07zm12 0h4.24a1.09 1.09 0 0 1 1.09 1.09v13.45h-6.43V148a1.09 1.09 0 0 1 1.1-1.07zm12.01 0h4.24a1.09 1.09 0 0 1 1.09 1.09v13.45h-6.43V148a1.09 1.09 0 0 1 1.1-1.07z"/><path class="cls-1" d="M841.35 192.93h54.11v25.82h-54.11z"/><path class="cls-2" d="M848.27 198.56h4.24a1.09 1.09 0 0 1 1.09 1.09v13.45h-6.43v-13.44a1.09 1.09 0 0 1 1.09-1.09zm12.01 0h4.24a1.09 1.09 0 0 1 1.09 1.09v13.45h-6.43v-13.44a1.09 1.09 0 0 1 1.1-1.1zm12 0h4.24a1.09 1.09 0 0 1 1.09 1.09v13.45h-6.43v-13.44a1.09 1.09 0 0 1 1.09-1.09zm12.01 0h4.24a1.09 1.09 0 0 1 1.09 1.09v13.45h-6.43v-13.44a1.09 1.09 0 0 1 1.1-1.1z"/><path class="cls-1" d="M841.35 244.56h54.11v25.82h-54.11z"/><path class="cls-2" d="M848.27 250.2h4.24a1.09 1.09 0 0 1 1.09 1.09v13.45h-6.43v-13.45a1.09 1.09 0 0 1 1.09-1.09zm12.01 0h4.24a1.09 1.09 0 0 1 1.09 1.09v13.45h-6.43v-13.45a1.09 1.09 0 0 1 1.09-1.09zm12 0h4.24a1.09 1.09 0 0 1 1.09 1.09v13.45h-6.43v-13.45a1.09 1.09 0 0 1 1.1-1.09zm12.01 0h4.24a1.09 1.09 0 0 1 1.09 1.09v13.45h-6.43v-13.45a1.09 1.09 0 0 1 1.09-1.09zm-42.94 20.18h54.11v25.82h-54.11z"/><path class="cls-1" d="M848.27 276h4.24a1.09 1.09 0 0 1 1.09 1.09v13.45h-6.43v-13.43a1.09 1.09 0 0 1 1.1-1.11zm12.01 0h4.24a1.09 1.09 0 0 1 1.09 1.09v13.45h-6.43v-13.43a1.09 1.09 0 0 1 1.1-1.11zm12 0h4.24a1.09 1.09 0 0 1 1.09 1.09v13.45h-6.43v-13.43a1.09 1.09 0 0 1 1.09-1.09zm12.01 0h4.24a1.09 1.09 0 0 1 1.09 1.09v13.45h-6.43v-13.43a1.09 1.09 0 0 1 1.1-1.11z"/><path class="cls-2" d="M1524.04 217.66h54.11v25.82h-54.11z"/><path class="cls-1" d="M1531 223.3h4.24a1.09 1.09 0 0 1 1.09 1.09v13.45h-6.43v-13.45a1.09 1.09 0 0 1 1.1-1.09zm12 0h4.24a1.09 1.09 0 0 1 1.09 1.09v13.45h-6.43v-13.45a1.09 1.09 0 0 1 1.1-1.09zm12 0h4.24a1.09 1.09 0 0 1 1.09 1.09v13.45h-6.43v-13.45a1.09 1.09 0 0 1 1.1-1.09zm12 0h4.24a1.09 1.09 0 0 1 1.09 1.09v13.45h-6.43v-13.45a1.09 1.09 0 0 1 1.1-1.09zm-42.96-31.45h54.11v25.82h-54.11z"/><path class="cls-2" d="M1531 197.48h4.24a1.09 1.09 0 0 1 1.09 1.09V212h-6.43v-13.42a1.09 1.09 0 0 1 1.1-1.1zm12 0h4.24a1.09 1.09 0 0 1 1.09 1.09V212h-6.43v-13.42a1.09 1.09 0 0 1 1.09-1.09zm12 0h4.24a1.09 1.09 0 0 1 1.09 1.09V212h-6.43v-13.42a1.09 1.09 0 0 1 1.09-1.09zm12 0h4.24a1.09 1.09 0 0 1 1.09 1.09V212h-6.43v-13.42a1.09 1.09 0 0 1 1.09-1.09z"/><path class="cls-1" d="M1524.04 243.48h54.11v25.82h-54.11z"/><path class="cls-2" d="M1531 249.12h4.24a1.09 1.09 0 0 1 1.09 1.09v13.45h-6.43v-13.45a1.09 1.09 0 0 1 1.1-1.09zm12 0h4.24a1.09 1.09 0 0 1 1.09 1.09v13.45h-6.43v-13.45a1.09 1.09 0 0 1 1.1-1.09zm12 0h4.24a1.09 1.09 0 0 1 1.09 1.09v13.45h-6.43v-13.45a1.09 1.09 0 0 1 1.1-1.09zm12 0h4.24a1.09 1.09 0 0 1 1.09 1.09v13.45h-6.43v-13.45a1.09 1.09 0 0 1 1.1-1.09zm-42.96 20.18h54.11v25.82h-54.11z"/><path class="cls-1" d="M1531 274.93h4.24a1.09 1.09 0 0 1 1.09 1.09v13.45h-6.43V276a1.09 1.09 0 0 1 1.09-1.09zm12 0h4.24a1.09 1.09 0 0 1 1.09 1.09v13.45h-6.43V276a1.09 1.09 0 0 1 1.09-1.09zm12 0h4.24a1.09 1.09 0 0 1 1.09 1.09v13.45h-6.43V276a1.09 1.09 0 0 1 1.1-1.07zm12 0h4.24a1.09 1.09 0 0 1 1.09 1.09v13.45h-6.43V276a1.09 1.09 0 0 1 1.09-1.09z"/><path class="cls-5" d="M641.72 250.2h136.93v45.94H641.72z"/><path class="cls-3" d="M641.72 250.2h136.93v9.16H641.72z"/><path class="cls-1" d="M969.34 187.09h63.08v107.87h-63.08zm320.03-22.5h63.52v28.79h-63.52z"/><path class="cls-2" d="M1297.31 170.87h5.36a1.09 1.09 0 0 1 1.09 1.09v15.12h-7.54V172a1.09 1.09 0 0 1 1.09-1.09zm14.09 0h5.36a1.09 1.09 0 0 1 1.09 1.09v15.12h-7.54V172a1.09 1.09 0 0 1 1.09-1.13zm14.1 0h5.36a1.09 1.09 0 0 1 1.09 1.09v15.12h-7.54V172a1.09 1.09 0 0 1 1.09-1.13zm14.09 0h5.41a1.09 1.09 0 0 1 1 1.13v15.12h-7.54V172a1.09 1.09 0 0 1 1.13-1.13z"/><path class="cls-1" d="M1289.37 49.42h63.52v28.79h-63.52z"/><path class="cls-2" d="M1297.31 55.71h5.36a1.09 1.09 0 0 1 1.09 1.09v15.13h-7.54V56.8a1.09 1.09 0 0 1 1.09-1.09zm14.09 0h5.36a1.09 1.09 0 0 1 1.09 1.09v15.13h-7.54V56.8a1.09 1.09 0 0 1 1.09-1.09zm14.1 0h5.36a1.09 1.09 0 0 1 1.09 1.09v15.13h-7.54V56.8a1.09 1.09 0 0 1 1.09-1.09zm14.09 0h5.41a1.09 1.09 0 0 1 1 1.09v15.13h-7.54V56.8a1.09 1.09 0 0 1 1.13-1.09z"/><path class="cls-1" d="M1289.37 107.01h63.52v28.79h-63.52z"/><path class="cls-2" d="M1297.31 113.29h5.36a1.09 1.09 0 0 1 1.09 1.09v15.12h-7.54v-15.11a1.09 1.09 0 0 1 1.09-1.1zm14.09 0h5.36a1.09 1.09 0 0 1 1.09 1.09v15.12h-7.54v-15.11a1.09 1.09 0 0 1 1.09-1.09zm14.1 0h5.36a1.09 1.09 0 0 1 1.09 1.09v15.12h-7.54v-15.11a1.09 1.09 0 0 1 1.09-1.1zm14.09 0h5.41a1.09 1.09 0 0 1 1.09 1.09v15.12h-7.54v-15.11a1.09 1.09 0 0 1 1.04-1.1zm-50.22-35.08h63.52V107h-63.52z"/><path class="cls-1" d="M1297.31 84.5h5.36a1.09 1.09 0 0 1 1.09 1.09v15.12h-7.54V85.59a1.09 1.09 0 0 1 1.09-1.09zm14.09 0h5.36a1.09 1.09 0 0 1 1.09 1.09v15.12h-7.54V85.59a1.09 1.09 0 0 1 1.09-1.09zm14.1 0h5.36a1.09 1.09 0 0 1 1.09 1.09v15.12h-7.54V85.59a1.09 1.09 0 0 1 1.09-1.09zm14.09 0h5.41a1.09 1.09 0 0 1 1.09 1.09v15.12h-7.54V85.59a1.09 1.09 0 0 1 1.09-1.09zM205.76 63.76h63.52v28.79h-63.52z"/><path class="cls-2" d="M213.7 70h5.36a1.09 1.09 0 0 1 1.09 1.09v15.17h-7.54V71.14A1.09 1.09 0 0 1 213.7 70zm14.1 0h5.36a1.09 1.09 0 0 1 1.09 1.09v15.17h-7.55V71.14a1.09 1.09 0 0 1 1.1-1.14zm14.09 0h5.36a1.09 1.09 0 0 1 1.09 1.09v15.17h-7.54V71.14a1.09 1.09 0 0 1 1.09-1.14zM256 70h5.36a1.09 1.09 0 0 1 1.09 1.09v15.17h-7.54V71.14A1.09 1.09 0 0 1 256 70zm-50.24 22.55h63.52v28.79h-63.52z"/><path class="cls-1" d="M213.7 98.84h5.36a1.09 1.09 0 0 1 1.09 1.09v15.12h-7.54V99.93a1.09 1.09 0 0 1 1.09-1.09zm14.1 0h5.36a1.09 1.09 0 0 1 1.09 1.09v15.12h-7.55V99.93a1.09 1.09 0 0 1 1.1-1.09zm14.09 0h5.36a1.09 1.09 0 0 1 1.09 1.09v15.12h-7.54V99.93a1.09 1.09 0 0 1 1.09-1.09zm14.11 0h5.36a1.09 1.09 0 0 1 1.09 1.09v15.12h-7.54V99.93a1.09 1.09 0 0 1 1.09-1.09z"/><path class="cls-2" d="M1289.37 135.8h63.52v28.79h-63.52z"/><path class="cls-1" d="M1297.31 142.08h5.36a1.09 1.09 0 0 1 1.09 1.09v15.13h-7.54v-15.12a1.09 1.09 0 0 1 1.09-1.1zm14.09 0h5.36a1.09 1.09 0 0 1 1.09 1.09v15.13h-7.54v-15.12a1.09 1.09 0 0 1 1.09-1.1zm14.1 0h5.36a1.09 1.09 0 0 1 1.09 1.09v15.13h-7.54v-15.12a1.09 1.09 0 0 1 1.09-1.09zm14.09 0h5.41a1.09 1.09 0 0 1 1.09 1.09v15.13h-7.54v-15.12a1.09 1.09 0 0 1 1.09-1.09z"/><path class="cls-2" d="M1289.37 193.38h63.52v28.79h-63.52z"/><path class="cls-1" d="M1297.31 199.66h5.36a1.09 1.09 0 0 1 1.09 1.09v15.12h-7.54v-15.11a1.09 1.09 0 0 1 1.09-1.09zm14.09 0h5.36a1.09 1.09 0 0 1 1.09 1.09v15.12h-7.54v-15.11a1.09 1.09 0 0 1 1.09-1.1zm14.1 0h5.36a1.09 1.09 0 0 1 1.09 1.09v15.12h-7.54v-15.11a1.09 1.09 0 0 1 1.09-1.09zm14.09 0h5.41a1.09 1.09 0 0 1 1.09 1.09v15.12h-7.54v-15.11a1.09 1.09 0 0 1 1.09-1.09zm-50.22 22.51h63.52v73.37h-63.52z"/><path class="cls-2" d="M1297.31 228.46h5.36a1.09 1.09 0 0 1 1.09 1.09v15.12h-7.54v-15.12a1.09 1.09 0 0 1 1.09-1.09zm14.09 0h5.36a1.09 1.09 0 0 1 1.09 1.09v15.12h-7.54v-15.12a1.09 1.09 0 0 1 1.09-1.09zm14.1 0h5.36a1.09 1.09 0 0 1 1.09 1.09v15.12h-7.54v-15.12a1.09 1.09 0 0 1 1.09-1.09zm14.09 0h5.41a1.09 1.09 0 0 1 1.09 1.09v15.12h-7.54v-15.12a1.09 1.09 0 0 1 1.04-1.09z"/><path class="cls-1" d="M619.4 197.25l44.87-43.58 44.14 43.58m381.24 11.55h74.81v86.34h-74.81z"/><path class="cls-2" d="M1097.27 219.74h8.14v13h-8.14zm13.01 0h8.14v13h-8.14zm13.01 0h8.14v13h-8.14zm13.01 0h8.14v13h-8.14zm13.01 0h8.14v13h-8.14zm-52.04 20.8h8.14v13h-8.14zm13.01 0h8.14v13h-8.14zm13.01 0h8.14v13h-8.14zm13.01 0h8.14v13h-8.14zm13.01 0h8.14v13h-8.14zm-52.04 20.8h8.14v13h-8.14zm13.01 0h8.14v13h-8.14zm13.01 0h8.14v13h-8.14zm13.01 0h8.14v13h-8.14zm13.01 0h8.14v13h-8.14zm-52.04 20.8h8.14v13h-8.14zm13.01 0h8.14v13h-8.14zm13.01 0h8.14v13h-8.14zm13.01 0h8.14v13h-8.14zm13.01 0h8.14v13h-8.14z"/><path class="cls-1" d="M1126.06 0h85.04v160.39h-85.04z"/><path class="cls-2" d="M1137.19 20.32h7.49v17.87h-7.49zm13.41 0h7.49v17.87h-7.49zm13.41 0h7.49v17.87h-7.49zm13.41 0h7.49v17.87h-7.49zm13.41 0h7.49v17.87h-7.49zm-53.64 27.69h7.49v17.87h-7.49zm13.41 0h7.49v17.87h-7.49zm13.41 0h7.49v17.87h-7.49zm13.41 0h7.49v17.87h-7.49zm13.41 0h7.49v17.87h-7.49zm-53.64 27.7h7.49v17.87h-7.49zm13.41 0h7.49v17.87h-7.49zm13.41 0h7.49v17.87h-7.49zm13.41 0h7.49v17.87h-7.49zm13.41 0h7.49v17.87h-7.49zm-53.64 27.7h7.49v17.87h-7.49zm13.41 0h7.49v17.87h-7.49zm13.41 0h7.49v17.87h-7.49zm13.41 0h7.49v17.87h-7.49zm13.41 0h7.49v17.87h-7.49zm-53.64 27.69h7.49v17.87h-7.49zm13.41 0h7.49v17.87h-7.49zm13.41 0h7.49v17.87h-7.49zm13.41 0h7.49v17.87h-7.49zm13.41 0h7.49v17.87h-7.49zm-26.37 80.92h163.38v83.51h-163.38z"/><path class="cls-1" d="M1164.46 212.02h163.38v7.71h-163.38zm21.98 20.85h4.24a1.09 1.09 0 0 1 1.09 1.09v9.41h-6.43V234a1.09 1.09 0 0 1 1.09-1.09zm12.2 0h4.24A1.09 1.09 0 0 1 1204 234v9.41h-6.43V234a1.09 1.09 0 0 1 1.07-1.13zm12.2 0h4.24a1.09 1.09 0 0 1 1.09 1.09v9.41h-6.43V234a1.09 1.09 0 0 1 1.1-1.13zm12.16 0h4.24a1.09 1.09 0 0 1 1.09 1.09v9.41h-6.43V234a1.09 1.09 0 0 1 1.1-1.13zm12.24 0h4.24a1.09 1.09 0 0 1 1.09 1.09v9.41h-6.43V234a1.09 1.09 0 0 1 1.1-1.13zm12.2 0h4.24a1.09 1.09 0 0 1 1.09 1.09v9.41h-6.43V234a1.09 1.09 0 0 1 1.1-1.13zm12.2 0h4.24A1.09 1.09 0 0 1 1265 234v9.41h-6.43V234a1.09 1.09 0 0 1 1.09-1.09zm12.2 0h4.24a1.09 1.09 0 0 1 1.09 1.09v9.41h-6.43V234a1.09 1.09 0 0 1 1.1-1.13zm12.16 0h4.24a1.09 1.09 0 0 1 1.09 1.09v9.41h-6.43V234a1.09 1.09 0 0 1 1.09-1.09zm12.24 0h4.24a1.09 1.09 0 0 1 1.09 1.09v9.41h-6.43V234a1.09 1.09 0 0 1 1.1-1.13zm-109.8 20.51h4.24a1.09 1.09 0 0 1 1.09 1.09v9.41h-6.43v-9.41a1.09 1.09 0 0 1 1.1-1.09zm12.2 0h4.24a1.09 1.09 0 0 1 1.09 1.09v9.41h-6.43v-9.41a1.09 1.09 0 0 1 1.09-1.09zm12.2 0h4.24a1.09 1.09 0 0 1 1.09 1.09v9.41h-6.43v-9.41a1.09 1.09 0 0 1 1.09-1.09zm12.16 0h4.24a1.09 1.09 0 0 1 1.09 1.09v9.41h-6.43v-9.41a1.09 1.09 0 0 1 1.1-1.09zm12.24 0h4.24a1.09 1.09 0 0 1 1.09 1.09v9.41h-6.43v-9.41a1.09 1.09 0 0 1 1.1-1.09zm12.2 0h4.24a1.09 1.09 0 0 1 1.09 1.09v9.41h-6.43v-9.41a1.09 1.09 0 0 1 1.1-1.09zm12.2 0h4.24a1.09 1.09 0 0 1 1.09 1.09v9.41h-6.43v-9.41a1.09 1.09 0 0 1 1.1-1.09zm12.2 0h4.24a1.09 1.09 0 0 1 1.09 1.09v9.41h-6.43v-9.41a1.09 1.09 0 0 1 1.1-1.09zm12.16 0h4.24a1.09 1.09 0 0 1 1.09 1.09v9.41h-6.43v-9.41a1.09 1.09 0 0 1 1.09-1.09zm12.24 0h4.24a1.09 1.09 0 0 1 1.09 1.09v9.41h-6.43v-9.41a1.09 1.09 0 0 1 1.1-1.09zm-122 20.51h4.24a1.09 1.09 0 0 1 1.09 1.09v9.41h-6.43V275a1.09 1.09 0 0 1 1.1-1.11zm12.2 0h4.24a1.09 1.09 0 0 1 1.09 1.09v9.41h-6.43V275a1.09 1.09 0 0 1 1.09-1.09zm12.2 0h4.24A1.09 1.09 0 0 1 1204 275v9.41h-6.43V275a1.09 1.09 0 0 1 1.07-1.11zm12.2 0h4.24a1.09 1.09 0 0 1 1.09 1.09v9.41h-6.43V275a1.09 1.09 0 0 1 1.1-1.11zm12.16 0h4.24a1.09 1.09 0 0 1 1.09 1.09v9.41h-6.43V275a1.09 1.09 0 0 1 1.1-1.11zm12.24 0h4.24a1.09 1.09 0 0 1 1.09 1.09v9.41h-6.43V275a1.09 1.09 0 0 1 1.09-1.09zm12.2 0h4.24a1.09 1.09 0 0 1 1.09 1.09v9.41h-6.43V275a1.09 1.09 0 0 1 1.1-1.11zm12.2 0h4.24A1.09 1.09 0 0 1 1265 275v9.41h-6.43V275a1.09 1.09 0 0 1 1.09-1.09zm12.2 0h4.24a1.09 1.09 0 0 1 1.09 1.09v9.41h-6.43V275a1.09 1.09 0 0 1 1.1-1.11zm12.16 0h4.24a1.09 1.09 0 0 1 1.09 1.09v9.41h-6.43V275a1.09 1.09 0 0 1 1.1-1.11zm12.24 0h4.24a1.09 1.09 0 0 1 1.09 1.09v9.41h-6.43V275a1.09 1.09 0 0 1 1.1-1.11z"/><path class="cls-2" d="M475.15 212.02h88.67v83.51h-88.67z"/><path class="cls-1" d="M475.15 212.02h88.67v7.71h-88.67zm11.47 20.85h4.24A1.09 1.09 0 0 1 492 234v9.41h-6.43V234a1.09 1.09 0 0 1 1.09-1.09zm12.2 0h4.24a1.09 1.09 0 0 1 1.09 1.09v9.41h-6.43V234a1.09 1.09 0 0 1 1.09-1.09zm12.18 0h4.24a1.09 1.09 0 0 1 1.09 1.09v9.41h-6.43V234a1.09 1.09 0 0 1 1.1-1.13zm12.22 0h4.24a1.09 1.09 0 0 1 1.09 1.09v9.41h-6.43V234a1.09 1.09 0 0 1 1.1-1.13zm12.2 0h4.24a1.09 1.09 0 0 1 1.09 1.09v9.41h-6.43V234a1.09 1.09 0 0 1 1.1-1.13zm12.2 0h4.24A1.09 1.09 0 0 1 553 234v9.41h-6.43V234a1.09 1.09 0 0 1 1.05-1.13zm-61 20.51h4.24a1.09 1.09 0 0 1 1.09 1.09v9.41h-6.43v-9.41a1.09 1.09 0 0 1 1.1-1.09zm12.2 0h4.24a1.09 1.09 0 0 1 1.09 1.09v9.41h-6.43v-9.41a1.09 1.09 0 0 1 1.09-1.09zm12.18 0h4.24a1.09 1.09 0 0 1 1.09 1.09v9.41h-6.43v-9.41a1.09 1.09 0 0 1 1.1-1.09zm12.22 0h4.24a1.09 1.09 0 0 1 1.09 1.09v9.41h-6.43v-9.41a1.09 1.09 0 0 1 1.09-1.09zm12.2 0h4.24a1.09 1.09 0 0 1 1.09 1.09v9.41h-6.43v-9.41a1.09 1.09 0 0 1 1.1-1.09zm12.2 0h4.24a1.09 1.09 0 0 1 1.09 1.09v9.41h-6.43v-9.41a1.09 1.09 0 0 1 1.09-1.09zm-61 20.51h4.24A1.09 1.09 0 0 1 492 275v9.41h-6.43V275a1.09 1.09 0 0 1 1.05-1.11zm12.2 0h4.24a1.09 1.09 0 0 1 1.09 1.09v9.41h-6.43V275a1.09 1.09 0 0 1 1.1-1.11zm12.18 0h4.24a1.09 1.09 0 0 1 1.09 1.09v9.41h-6.43V275a1.09 1.09 0 0 1 1.1-1.11zm12.22 0h4.24a1.09 1.09 0 0 1 1.09 1.09v9.41h-6.43V275a1.09 1.09 0 0 1 1.1-1.11zm12.2 0h4.24a1.09 1.09 0 0 1 1.09 1.09v9.41h-6.43V275a1.09 1.09 0 0 1 1.1-1.11zm12.2 0h4.24A1.09 1.09 0 0 1 553 275v9.41h-6.43V275a1.09 1.09 0 0 1 1.05-1.11z"/><path class="cls-5" d="M1164.19 257.71h66.52v37.48h-66.52z"/><path class="cls-5" d="M1176.07 258.57a21.38 21.38 0 0 1 21.38-21.38 21.38 21.38 0 0 1 21.38 21.38"/><circle class="cls-1" cx="1197.45" cy="258.6" r="10.88"/><path class="cls-3" d="M1346.96 296.38h-40.35v-35.06l20.17-19.81 20.18 19.81v35.06zm28.6-199.15h62.67v197.86h-62.67z"/><path class="cls-2" d="M1383.12 107.24h4.69v11.89h-4.69zm10.72 0h4.69v11.89h-4.69zm10.71 0h4.69v11.89h-4.69zm10.71 0h4.69v11.89h-4.69zm10.72 0h4.69v11.89h-4.69zm-42.86 17.92h4.69v11.89h-4.69zm10.72 0h4.69v11.89h-4.69zm10.71 0h4.69v11.89h-4.69zm10.71 0h4.69v11.89h-4.69zm10.72 0h4.69v11.89h-4.69zm-42.86 17.92h4.69v11.89h-4.69zm10.72 0h4.69v11.89h-4.69zm10.71 0h4.69v11.89h-4.69zm10.71 0h4.69v11.89h-4.69zm10.72 0h4.69v11.89h-4.69zM1383.12 161h4.69v11.89h-4.69zm10.72 0h4.69v11.89h-4.69zm10.71 0h4.69v11.89h-4.69zm10.71 0h4.69v11.89h-4.69zm10.72 0h4.69v11.89h-4.69zm-42.86 17.92h4.69v11.89h-4.69zm10.72 0h4.69v11.89h-4.69zm10.71 0h4.69v11.89h-4.69zm10.71 0h4.69v11.89h-4.69zm10.72 0h4.69v11.89h-4.69zm-42.86 18.28h4.69v11.89h-4.69zm10.72 0h4.69v11.89h-4.69zm10.71 0h4.69v11.89h-4.69zm10.71 0h4.69v11.89h-4.69zm10.72 0h4.69v11.89h-4.69zm-42.86 17.92h4.69v11.89h-4.69zm10.72 0h4.69v11.89h-4.69zm10.71 0h4.69v11.89h-4.69zm10.71 0h4.69v11.89h-4.69zm10.72 0h4.69v11.89h-4.69zm-42.86 17.92h4.69v11.89h-4.69zm10.72 0h4.69v11.89h-4.69zm10.71 0h4.69v11.89h-4.69zm10.71 0h4.69v11.89h-4.69zm10.72 0h4.69v11.89h-4.69zm-42.86 17.92h4.69v11.89h-4.69zm10.72 0h4.69v11.89h-4.69zm10.71 0h4.69v11.89h-4.69zm10.71 0h4.69v11.89h-4.69zm10.72 0h4.69v11.89h-4.69zm-42.86 17.93h4.69v11.89h-4.69zm10.72 0h4.69v11.89h-4.69zm10.71 0h4.69v11.89h-4.69zm10.71 0h4.69v11.89h-4.69zm10.72 0h4.69v11.89h-4.69z"/><path class="cls-5" d="M303.13 249.6h98.31v45.94h-98.31z"/><path class="cls-1" d="M304.71 249.01h96.72v9.26h-96.72zm1133.52-94.02l42.91-33.65 42.9 33.65m-85.81 0h85.81v140.07h-85.81z"/><path class="cls-2" d="M1448.59 168.69h6.42v16.29h-6.42zm14.67 0h6.42v16.29h-6.42zm14.67 0h6.42v16.29h-6.42zm14.66 0h6.42v16.29h-6.42zm14.67 0h6.42v16.29h-6.42zm-58.67 24.53h6.42v16.29h-6.42zm14.67 0h6.42v16.29h-6.42zm14.67 0h6.42v16.29h-6.42zm14.66 0h6.42v16.29h-6.42zm14.67 0h6.42v16.29h-6.42zm-58.67 24.54h6.42v16.29h-6.42zm14.67 0h6.42v16.29h-6.42zm14.67 0h6.42v16.29h-6.42zm14.66 0h6.42v16.29h-6.42zm14.67 0h6.42v16.29h-6.42zm-58.67 24.54h6.42v16.29h-6.42zm14.67 0h6.42v16.29h-6.42zm14.67 0h6.42v16.29h-6.42zm14.66 0h6.42v16.29h-6.42zm14.67 0h6.42v16.29h-6.42zm-58.67 24.53h6.42v16.29h-6.42zm14.67 0h6.42v16.29h-6.42zm14.67 0h6.42v16.29h-6.42zm14.66 0h6.42v16.29h-6.42zm14.67 0h6.42v16.29h-6.42zm-526.34-67.17h39.94v95.3h-39.94z"/><path class="cls-1" d="M205.76 178.32h63.52v28.79h-63.52z"/><path class="cls-2" d="M213.7 184.61h5.36a1.09 1.09 0 0 1 1.09 1.09v15.12h-7.54V185.7a1.09 1.09 0 0 1 1.09-1.09zm14.1 0h5.36a1.09 1.09 0 0 1 1.09 1.09v15.12h-7.55V185.7a1.09 1.09 0 0 1 1.1-1.09zm14.09 0h5.36a1.09 1.09 0 0 1 1.09 1.09v15.12h-7.54V185.7a1.09 1.09 0 0 1 1.09-1.09zm14.11 0h5.36a1.09 1.09 0 0 1 1.09 1.09v15.12h-7.54V185.7a1.09 1.09 0 0 1 1.09-1.09z"/><path class="cls-1" d="M205.76 120.74h63.52v28.79h-63.52z"/><path class="cls-2" d="M213.7 127h5.36a1.09 1.09 0 0 1 1.09 1.09v15.12h-7.54v-15.09a1.09 1.09 0 0 1 1.09-1.12zm14.1 0h5.36a1.09 1.09 0 0 1 1.09 1.09v15.12h-7.55v-15.09a1.09 1.09 0 0 1 1.1-1.12zm14.09 0h5.36a1.09 1.09 0 0 1 1.09 1.09v15.12h-7.54v-15.09a1.09 1.09 0 0 1 1.09-1.09zm14.11 0h5.36a1.09 1.09 0 0 1 1.09 1.09v15.12h-7.54v-15.09A1.09 1.09 0 0 1 256 127zm-50.24 22.53h63.52v28.79h-63.52z"/><path class="cls-1" d="M213.7 155.82h5.36a1.09 1.09 0 0 1 1.09 1.09V172h-7.54v-15.09a1.09 1.09 0 0 1 1.09-1.09zm14.1 0h5.36a1.09 1.09 0 0 1 1.09 1.09V172h-7.55v-15.09a1.09 1.09 0 0 1 1.1-1.09zm14.09 0h5.36a1.09 1.09 0 0 1 1.09 1.09V172h-7.54v-15.09a1.09 1.09 0 0 1 1.09-1.09zm14.11 0h5.36a1.09 1.09 0 0 1 1.09 1.09V172h-7.54v-15.09a1.09 1.09 0 0 1 1.09-1.09z"/><path class="cls-2" d="M205.76 207.11h63.52v28.79h-63.52z"/><path class="cls-3" d="M0 257.95h209.84v37.17H0z"/><path class="cls-1" d="M213.7 213.4h5.36a1.09 1.09 0 0 1 1.09 1.09v15.12h-7.54v-15.12a1.09 1.09 0 0 1 1.09-1.09zm14.1 0h5.36a1.09 1.09 0 0 1 1.09 1.09v15.12h-7.55v-15.12a1.09 1.09 0 0 1 1.1-1.09zm14.09 0h5.36a1.09 1.09 0 0 1 1.09 1.09v15.12h-7.54v-15.12a1.09 1.09 0 0 1 1.09-1.09zm14.11 0h5.36a1.09 1.09 0 0 1 1.09 1.09v15.12h-7.54v-15.12a1.09 1.09 0 0 1 1.09-1.09zm-50.24 22.5h63.52v59.7h-63.52z"/><path class="cls-2" d="M213.7 242.19h5.36a1.09 1.09 0 0 1 1.09 1.09v15.12h-7.54v-15.12a1.09 1.09 0 0 1 1.09-1.09zm14.1 0h5.36a1.09 1.09 0 0 1 1.09 1.09v15.12h-7.55v-15.12a1.09 1.09 0 0 1 1.1-1.09zm14.09 0h5.36a1.09 1.09 0 0 1 1.09 1.09v15.12h-7.54v-15.12a1.09 1.09 0 0 1 1.09-1.09zm14.11 0h5.36a1.09 1.09 0 0 1 1.09 1.09v15.12h-7.54v-15.12a1.09 1.09 0 0 1 1.09-1.09zm-50.24 24.56h63.52v28.79h-63.52z"/><path class="cls-1" d="M213.7 273.2h5.36a1.09 1.09 0 0 1 1.09 1.09v15.12h-7.54v-15.12a1.09 1.09 0 0 1 1.09-1.09zm14.1 0h5.36a1.09 1.09 0 0 1 1.09 1.09v15.12h-7.55v-15.12a1.09 1.09 0 0 1 1.09-1.09zm14.09 0h5.36a1.09 1.09 0 0 1 1.09 1.09v15.12h-7.54v-15.12a1.09 1.09 0 0 1 1.09-1.09zm14.11 0h5.36a1.09 1.09 0 0 1 1.09 1.09v15.12h-7.54v-15.12a1.09 1.09 0 0 1 1.09-1.09z"/><path class="cls-2" d="M401.91 138.53h74.14V295.3h-74.14z"/><path class="cls-5" d="M415.77 157.16h7.48a2.05 2.05 0 0 1 2.05 2.05v20.58h-11.59v-20.58a2.05 2.05 0 0 1 2.06-2.05zm19.48 0h7.48a2.05 2.05 0 0 1 2.05 2.05v20.58h-11.59v-20.58a2.05 2.05 0 0 1 2.06-2.05zm19.47 0h7.48a2.05 2.05 0 0 1 2.05 2.05v20.58h-11.58v-20.58a2.05 2.05 0 0 1 2.05-2.05zm-38.95 38.39h7.48a2.05 2.05 0 0 1 2.05 2.05v20.58h-11.59V197.6a2.05 2.05 0 0 1 2.06-2.05zm19.48 0h7.48a2.05 2.05 0 0 1 2.05 2.05v20.58h-11.59V197.6a2.05 2.05 0 0 1 2.06-2.05zm19.47 0h7.48a2.05 2.05 0 0 1 2.05 2.05v20.58h-11.58V197.6a2.05 2.05 0 0 1 2.05-2.05zm-38.95 38.39h7.48a2.05 2.05 0 0 1 2.05 2.06v20.58h-11.59V236a2.05 2.05 0 0 1 2.06-2.06zm19.48 0h7.48a2.05 2.05 0 0 1 2.05 2.05v20.58h-11.59V236a2.05 2.05 0 0 1 2.06-2.06zm19.47 0h7.48a2.05 2.05 0 0 1 2.05 2.05v20.58h-11.58V236a2.05 2.05 0 0 1 2.05-2.06zm-38.95 38.39h7.48a2.05 2.05 0 0 1 2.05 2.05V295h-11.59v-20.61a2.05 2.05 0 0 1 2.06-2.06zm19.48 0h7.48a2.05 2.05 0 0 1 2.05 2.05V295h-11.59v-20.61a2.05 2.05 0 0 1 2.05-2.05zm19.47 0h7.48a2.05 2.05 0 0 1 2.05 2.05V295h-11.58v-20.61a2.05 2.05 0 0 1 2.05-2.05z"/><path class="cls-3" d="M269.61 258.27h66.52v37.48h-66.52z"/><path class="cls-3" d="M281.49 259.13a21.38 21.38 0 0 1 21.38-21.38 21.38 21.38 0 0 1 21.38 21.38"/><circle class="cls-1" cx="302.87" cy="259.15" r="10.88"/><path class="cls-1" d="M111.22 154.99l42.9-33.65 42.91 33.65m-85.81 0h85.81v140.07h-85.81z"/><path class="cls-2" d="M121.58 168.69H128v16.29h-6.42zm14.67 0h6.42v16.29h-6.42zm14.66 0h6.42v16.29h-6.42zm14.67 0H172v16.29h-6.42zm14.67 0h6.42v16.29h-6.42zm-58.67 24.53H128v16.29h-6.42zm14.67 0h6.42v16.29h-6.42zm14.66 0h6.42v16.29h-6.42zm14.67 0H172v16.29h-6.42zm14.67 0h6.42v16.29h-6.42zm-58.67 24.54H128v16.29h-6.42zm14.67 0h6.42v16.29h-6.42zm14.66 0h6.42v16.29h-6.42zm14.67 0H172v16.29h-6.42zm14.67 0h6.42v16.29h-6.42zm-58.67 24.54H128v16.29h-6.42zm14.67 0h6.42v16.29h-6.42zm14.66 0h6.42v16.29h-6.42zm14.67 0H172v16.29h-6.42zm14.67 0h6.42v16.29h-6.42zm-58.67 24.53H128v16.29h-6.42zm14.67 0h6.42v16.29h-6.42zm14.66 0h6.42v16.29h-6.42zm14.67 0H172v16.29h-6.42zm14.67 0h6.42v16.29h-6.42z"/><path class="cls-5" d="M35.23 249.22h98.31v45.94H35.23z"/><path class="cls-1" d="M61.37 208.78h74.81v86.34H61.37z"/><path class="cls-2" d="M68.99 219.72h8.14v13h-8.14zm13.01 0h8.14v13H82zm13.01 0h8.14v13h-8.14zm13.01 0h8.14v13h-8.14zm13.01 0h8.14v13h-8.14zm-52.04 20.8h8.14v13h-8.14zm13.01 0h8.14v13H82zm13.01 0h8.14v13h-8.14zm13.01 0h8.14v13h-8.14zm13.01 0h8.14v13h-8.14zm-52.04 20.8h8.14v13h-8.14zm13.01 0h8.14v13H82zm13.01 0h8.14v13h-8.14zm13.01 0h8.14v13h-8.14zm13.01 0h8.14v13h-8.14zm-52.04 20.8h8.14v13h-8.14zm13.01 0h8.14v13H82zm13.01 0h8.14v13h-8.14zm13.01 0h8.14v13h-8.14zm13.01 0h8.14v13h-8.14z"/><path class="cls-1" d="M1425.92 250.61h231.93v46.09h-231.93z"/><path class="cls-2" d="M1552.49 217.11h75.16v79.61h-75.16z"/><path class="cls-1" d="M1563.94 228.83h4.24a1.09 1.09 0 0 1 1.09 1.09v13.45h-6.43v-13.45a1.09 1.09 0 0 1 1.1-1.09zm12 0h4.24a1.09 1.09 0 0 1 1.09 1.09v13.45h-6.43v-13.45a1.09 1.09 0 0 1 1.1-1.09zm12.01 0h4.24a1.09 1.09 0 0 1 1.09 1.09v13.45h-6.43v-13.45a1.09 1.09 0 0 1 1.09-1.09zm12.05 0h4.24a1.09 1.09 0 0 1 1.09 1.09v13.45h-6.43v-13.45a1.09 1.09 0 0 1 1.1-1.09zm12 0h4.24a1.09 1.09 0 0 1 1.09 1.09v13.45h-6.43v-13.45a1.09 1.09 0 0 1 1.09-1.09zm-48.06 23.82h4.24a1.09 1.09 0 0 1 1.09 1.09v13.45h-6.43v-13.45a1.09 1.09 0 0 1 1.1-1.09zm12 0h4.24a1.09 1.09 0 0 1 1.09 1.09v13.45h-6.43v-13.45a1.09 1.09 0 0 1 1.09-1.09zm12.01 0h4.24a1.09 1.09 0 0 1 1.09 1.09v13.45h-6.43v-13.45a1.09 1.09 0 0 1 1.1-1.09zm12.05 0h4.24a1.09 1.09 0 0 1 1.09 1.09v13.45h-6.43v-13.45a1.09 1.09 0 0 1 1.1-1.09zm12 0h4.24a1.09 1.09 0 0 1 1.09 1.09v13.45h-6.43v-13.45a1.09 1.09 0 0 1 1.1-1.09zM1563.94 276h4.24a1.09 1.09 0 0 1 1.09 1.09v13.45h-6.43v-13.43a1.09 1.09 0 0 1 1.1-1.11zm12 0h4.24a1.09 1.09 0 0 1 1.09 1.09v13.45h-6.43v-13.43a1.09 1.09 0 0 1 1.09-1.09zm12.01 0h4.24a1.09 1.09 0 0 1 1.09 1.09v13.45h-6.43v-13.43a1.09 1.09 0 0 1 1.09-1.09zm12.05 0h4.24a1.09 1.09 0 0 1 1.09 1.09v13.45h-6.43v-13.43a1.09 1.09 0 0 1 1.1-1.11zm12 0h4.24a1.09 1.09 0 0 1 1.09 1.09v13.45h-6.43v-13.43a1.09 1.09 0 0 1 1.1-1.11z"/><path class="cls-5" d="M1505.91 250.76h93.14v45.94h-93.14z"/><path class="cls-3" d="M1505.91 250.76h93.14v9.16h-93.14z"/></svg>