<?xml version="1.0" encoding="iso-8859-1"?>
<!-- Generator: Adobe Illustrator 19.0.0, SVG Export Plug-In . SVG Version: 6.00 Build 0)  -->
<svg version="1.1" id="Layer_1" xmlns="http://www.w3.org/2000/svg" xmlns:xlink="http://www.w3.org/1999/xlink" x="0px" y="0px"
	 viewBox="0 0 390.723 390.723" style="enable-background:new 0 0 390.723 390.723;" xml:space="preserve">
<g>
	<path style="fill:#FFC10D;" d="M315.992,205.414h-97.034c18.941,17.907,28.703,41.762,33.616,65.034
		c17.907-23.855,46.61-39.046,78.61-39.046c8.145,0,16.291,1.099,24.372,3.232C342.497,210.327,323.556,205.996,315.992,205.414z"/>
	<path style="fill:#FFC10D;" d="M54.174,297.535c-17.907,0-32.517,14.61-32.517,32.517s14.61,32.517,32.517,32.517
		s32.517-14.61,32.517-32.517C86.174,312.21,71.564,297.535,54.174,297.535z"/>
	<path style="fill:#FFC10D;" d="M363.636,330.117c0-17.907-14.61-32.517-32.517-32.517s-32.517,14.61-32.517,32.517
		s14.61,32.517,32.517,32.517S363.636,347.96,363.636,330.117z"/>
</g>
<path style="fill:#56ACE0;" d="M369.067,160.42v23.273H194.004c4.331-13.576,17.325-23.273,32.517-23.273H369.067z"/>
<path style="fill:#FFFFFF;" d="M47.127,136.048v23.855c7.046-2.715,10.861-7.564,10.861-11.895
	C57.988,143.677,54.174,138.764,47.127,136.048z"/>
<rect x="273.713" y="116.461" style="fill:#56ACE0;" width="94.836" height="22.238"/>
<rect x="253.091" y="72.113" style="fill:#FFFFFF;" width="94.836" height="22.238"/>
<rect x="273.713" y="28.218" style="fill:#56ACE0;" width="94.836" height="22.238"/>
<g>
	<path style="fill:#194F82;" d="M54.174,275.879C24.372,275.879,0,300.251,0,330.053s24.372,54.174,54.174,54.174
		s54.174-24.372,54.174-54.174C107.83,300.25,83.976,275.879,54.174,275.879z M54.174,362.053c-17.907,0-32.517-14.61-32.517-32.517
		s14.61-32.517,32.517-32.517s32.517,14.61,32.517,32.517C86.174,347.96,71.564,362.053,54.174,362.053z"/>
	<path style="fill:#194F82;" d="M331.119,275.879c-29.802,0-54.174,24.372-54.174,54.174s24.372,54.174,54.174,54.174
		s54.174-24.372,54.174-54.174C385.358,300.25,360.921,275.879,331.119,275.879z M299.184,330.117
		c0-17.907,14.61-32.517,32.517-32.517c17.907,0,32.517,14.61,32.517,32.517s-14.61,32.517-32.517,32.517
		C313.794,362.634,299.184,347.96,299.184,330.117z"/>
	<path style="fill:#194F82;" d="M379.345,72.113c5.947,0,10.861-4.848,10.861-10.861V17.358c0-5.947-4.848-10.861-10.861-10.861
		H262.853c-5.947,0-10.861,4.848-10.861,10.861v33.034h-9.762c-5.947,0-10.861,4.848-10.861,10.861v43.895
		c0,5.947,4.848,10.861,10.861,10.861h9.762v22.238h-25.988c-30.901,0-55.855,24.954-55.855,55.855l0,0
		c0,4.331,2.715,8.663,7.046,10.279c54.174,20.04,57.988,80.743,56.889,108.929c-0.517,1.616-0.517,3.814-1.099,5.43h-81.261
		c-4.848-44.994-40.081-80.743-84.558-86.691c4.848-21.657,14.093-68.267,14.61-114.36l28.186-15.192
		c5.43-2.715,7.046-9.244,4.331-14.61c-2.715-5.43-9.244-7.046-14.61-4.331L66.069,101.98c-4.331,2.198-5.947,6.529-5.43,10.861
		c0,0.517,0,3.814,0,5.43c-7.046-3.814-15.192-5.947-23.855-5.947c-5.947,0-10.861,4.848-10.861,10.861v49.325
		c0,5.947,4.848,10.861,10.861,10.861c6.529,0,12.994-1.099,18.424-3.232c-3.232,22.756-7.564,41.762-9.762,51.459
		c-14.093,1.099-27.669,5.43-39.564,12.477c-5.43,2.715-7.046,9.762-4.331,14.61c2.715,5.43,9.762,7.046,14.61,4.331
		c11.378-6.529,24.372-9.762,37.947-9.762c42.279,0,76.929,34.715,76.929,76.929c0,5.947,4.848,10.861,10.861,10.861h101.883
		c5.947,0,10.861-4.848,10.861-10.861c0-42.279,34.715-76.929,76.929-76.929c12.994,0,26.57,3.232,37.947,9.762
		c9.244,4.848,17.907-3.814,15.709-12.477c-5.43-20.622-14.093-34.715-23.273-44.994h17.907c5.947,0,10.861-4.848,10.861-10.861
		v-89.535c0-5.947-4.848-10.861-10.861-10.861h-9.762V72.048C370.166,72.113,379.345,72.113,379.345,72.113z M47.127,159.903
		v-23.855c7.046,2.715,10.861,7.564,10.861,11.895C57.988,152.339,54.174,157.77,47.127,159.903z M331.119,231.467
		c-32,0-60.703,15.192-78.61,39.046c-4.848-23.273-14.61-47.127-33.616-65.034h96.453c8.145,0.517,27.087,4.848,40.081,29.285
		C347.927,232.501,339.265,231.467,331.119,231.467z M368.549,183.758H194.004c4.331-13.576,17.325-23.273,32.517-23.273h142.545
		v23.273H368.549z M253.091,72.113h94.836v22.238h-94.836V72.113z M273.713,28.218h94.836v22.238h-94.836V28.218z M368.549,138.764
		h-94.836v-22.238h94.836V138.764z"/>
</g>
<g>
</g>
<g>
</g>
<g>
</g>
<g>
</g>
<g>
</g>
<g>
</g>
<g>
</g>
<g>
</g>
<g>
</g>
<g>
</g>
<g>
</g>
<g>
</g>
<g>
</g>
<g>
</g>
<g>
</g>
</svg>
