<svg width="98" height="99" viewBox="0 0 98 99" fill="none" xmlns="http://www.w3.org/2000/svg">
<path d="M69.3201 24.0328L59.4444 23.2197L63.1005 14.0096C63.6982 12.5056 64.4511 11.1006 65.3108 9.78491C59.5764 7.26213 53.2422 5.85132 46.5743 5.85132C20.8517 5.85132 0 26.703 0 52.4257C0 78.1483 20.8517 99 46.5743 99C72.297 99 93.1487 78.1483 93.1487 52.4257C93.1487 40.6676 88.7824 29.9341 81.5944 21.739C77.8646 23.536 73.6535 24.3899 69.3201 24.0328Z" fill="#ED8F20"/>
<path d="M73.3002 39.7753C75.4437 39.7753 77.1814 38.0377 77.1814 35.8941C77.1814 33.7506 75.4437 32.0129 73.3002 32.0129C71.1567 32.0129 69.419 33.7506 69.419 35.8941C69.419 38.0377 71.1567 39.7753 73.3002 39.7753Z" fill="#EF771D"/>
<path d="M83.6242 61.4228C85.7678 61.4228 87.5054 59.6851 87.5054 57.5416C87.5054 55.3981 85.7678 53.6604 83.6242 53.6604C81.4807 53.6604 79.743 55.3981 79.743 57.5416C79.743 59.6851 81.4807 61.4228 83.6242 61.4228Z" fill="#EF771D"/>
<path d="M83.0032 49.4783C85.1467 49.4783 86.8844 47.7407 86.8844 45.5971C86.8844 43.4536 85.1467 41.7159 83.0032 41.7159C80.8597 41.7159 79.122 43.4536 79.122 45.5971C79.122 47.7407 80.8597 49.4783 83.0032 49.4783Z" fill="#EF771D"/>
<path d="M71.2743 57.305C73.4178 57.305 75.1555 55.5673 75.1555 53.4238C75.1555 51.2803 73.4178 49.5426 71.2743 49.5426C69.1308 49.5426 67.3931 51.2803 67.3931 53.4238C67.3931 55.5673 69.1308 57.305 71.2743 57.305Z" fill="#EF771D"/>
<path d="M73.3002 70.8249C75.4437 70.8249 77.1814 69.0872 77.1814 66.9437C77.1814 64.8002 75.4437 63.0625 73.3002 63.0625C71.1567 63.0625 69.419 64.8002 69.419 66.9437C69.419 69.0872 71.1567 70.8249 73.3002 70.8249Z" fill="#EF771D"/>
<path d="M38.3695 24.2507C40.513 24.2507 42.2507 22.513 42.2507 20.3695C42.2507 18.226 40.513 16.4883 38.3695 16.4883C36.226 16.4883 34.4883 18.226 34.4883 20.3695C34.4883 22.513 36.226 24.2507 38.3695 24.2507Z" fill="#EF771D"/>
<path d="M24.7852 30.0725C26.9288 30.0725 28.6664 28.3348 28.6664 26.1913C28.6664 24.0477 26.9288 22.3101 24.7852 22.3101C22.6417 22.3101 20.9041 24.0477 20.9041 26.1913C20.9041 28.3348 22.6417 30.0725 24.7852 30.0725Z" fill="#EF771D"/>
<path d="M52.3962 22.3743C52.3962 22.3743 60.6438 23.7327 62.8755 29.3604Z" fill="#ED8F20"/>
<path d="M62.8754 31.3029C62.105 31.3029 61.3753 30.8391 61.0707 30.0765C59.2756 25.5529 52.1458 24.3012 52.076 24.2896C51.0203 24.1111 50.3062 23.1136 50.4828 22.056C50.6574 21.0022 51.6529 20.2861 52.7086 20.4608C53.0909 20.5229 62.0701 22.0734 64.6782 28.6462C65.0722 29.6418 64.5851 30.7712 63.5896 31.1651C63.3567 31.2583 63.1141 31.3029 62.8754 31.3029Z" fill="#9B6026"/>
<path d="M53.5605 28.1959C55.5729 25.9836 58.1113 24.2662 60.9096 23.2144Z" fill="#ED8F20"/>
<path d="M53.5585 30.1365C53.0928 30.1365 52.6251 29.9696 52.2525 29.6319C51.4608 28.91 51.4025 27.6836 52.1244 26.8899C54.3406 24.4544 57.1409 22.5565 60.2284 21.396C61.2317 21.0234 62.3495 21.5261 62.7279 22.5294C63.1024 23.5326 62.5959 24.6524 61.5926 25.0288C59.0796 25.972 56.7974 27.5186 54.9946 29.5C54.6104 29.923 54.0864 30.1365 53.5585 30.1365Z" fill="#9B6026"/>
<path d="M97.0299 0.893662L87.1542 0.0805517C76.7235 -0.777193 66.9603 5.2833 63.1005 15.0096L59.4444 24.2196L69.3201 25.0328C79.7489 25.8905 89.514 19.83 93.3738 10.1037L97.0299 0.893662Z" fill="#659C35"/>
<path d="M60.5331 21.4794L59.4444 24.2215L60.8378 24.336C72.982 12.477 86.18 8.58416 87.6238 8.49296L87.6917 7.40816L88.4932 8.20963L88.7998 7.05885L87.9382 6.2341C86.7777 5.97794 73.2226 9.72135 60.5331 21.4794Z" fill="#88C057"/>
</svg>
