<svg width="24" height="20" viewBox="0 0 24 20" fill="none" xmlns="http://www.w3.org/2000/svg">
<path d="M5.88235 4.70588H17.6471V5.88235H5.88235V4.70588ZM5.88235 9.41177H17.6471V8.23529H5.88235V9.41177ZM5.88235 12.9412H17.6471V11.7647H5.88235V12.9412ZM23.5294 0V3.52941H21.1765V20L18.8235 17.6471L16.4706 20L14.1176 17.6471L11.7647 20L9.41176 17.6471L7.05882 20L4.70588 17.6471L2.35294 20V3.52941H0V0H23.5294ZM2.35294 1.17647H1.17647V2.35294H2.35294V1.17647ZM20 1.17647H3.52941V17.1597L4.70588 15.9833L7.05882 18.3362L9.41176 15.9833L11.7647 18.3362L14.1176 15.9833L16.4706 18.3362L18.8235 15.9833L20 17.1597V1.17647ZM22.3529 1.17647H21.1765V2.35294H22.3529V1.17647Z" fill="black"/>
</svg>
