<svg width="26" height="20" viewBox="0 0 26 20" fill="none" xmlns="http://www.w3.org/2000/svg">
<path d="M8.42263 6.83655C7.26463 6.83655 6.20069 6.06584 5.88254 4.89704C5.69802 4.21936 5.78848 3.51007 6.13798 2.90048C6.48749 2.29116 7.05338 1.85402 7.73184 1.66976C9.12987 1.28735 10.5803 2.11821 10.9612 3.51675C11.1457 4.19443 11.0552 4.90372 10.7057 5.51331C10.3562 6.12263 9.79033 6.55977 9.11188 6.74403C8.88213 6.80674 8.65032 6.83655 8.42263 6.83655ZM8.4216 2.63013C8.28488 2.63013 8.14559 2.64786 8.00733 2.68538C7.60026 2.79615 7.26103 3.05828 7.05133 3.42397C6.84214 3.78941 6.78766 4.21422 6.89816 4.62052C7.12688 5.45934 7.995 5.95559 8.83638 5.72841C9.24346 5.61764 9.58268 5.35551 9.79239 4.98982C10.0016 4.62438 10.0561 4.19957 9.94555 3.79327C9.75435 3.0922 9.1165 2.63013 8.4216 2.63013Z" fill="black"/>
<path d="M2.63357 19.9995C1.47557 19.9995 0.411628 19.2287 0.0934739 18.06C-0.0910453 17.3823 -0.000584628 16.673 0.348922 16.0634C0.698429 15.4541 1.26432 15.0169 1.94278 14.8327C3.34029 14.4508 4.79126 15.2811 5.17212 16.6797C5.35664 17.3573 5.26618 18.0666 4.91667 18.6762C4.56716 19.2855 4.00127 19.7227 3.32282 19.9069C3.09307 19.9696 2.86126 19.9995 2.63357 19.9995ZM2.63254 15.793C2.49582 15.793 2.35653 15.8108 2.21827 15.8483C1.8112 15.9591 1.47197 16.2212 1.26227 16.5869C1.05308 16.9523 0.998594 17.3771 1.1091 17.7834C1.33782 18.6222 2.20696 19.1182 3.04732 18.8913C3.45439 18.7806 3.79362 18.5184 4.00333 18.1527C4.21252 17.7873 4.267 17.3625 4.15649 16.9562C3.96529 16.2551 3.32744 15.793 2.63254 15.793Z" fill="black"/>
<path d="M6.38131 5.45781L2.87598 15.2241L3.86693 15.5798L7.37227 5.81349L6.38131 5.45781Z" fill="black"/>
<path d="M22.6331 5.25954C21.4751 5.25954 20.4107 4.48883 20.0925 3.32004C19.908 2.64235 19.9984 1.93332 20.3479 1.32348C20.6975 0.714154 21.2633 0.27727 21.9418 0.093008C23.3403 -0.289137 24.7903 0.541456 25.1711 1.94C25.3557 2.61768 25.2652 3.32698 24.9157 3.93656C24.5662 4.54588 24.0003 4.98302 23.3218 5.16728C23.0921 5.22973 22.8608 5.25954 22.6331 5.25954ZM22.6316 1.05338C22.4948 1.05338 22.3556 1.07111 22.2173 1.10863C21.8102 1.2194 21.471 1.48153 21.2613 1.84697C21.0521 2.21241 20.9976 2.63721 21.1081 3.04351C21.3374 3.88259 22.2065 4.37858 23.0463 4.15166C23.4534 4.04089 23.7926 3.77876 24.0023 3.41307C24.2115 3.04763 24.266 2.62282 24.1555 2.21652C23.9643 1.51545 23.3265 1.05338 22.6316 1.05338Z" fill="black"/>
<path d="M21.4007 4.41505L17.9292 13.7632L18.916 14.1297L22.3875 4.78152L21.4007 4.41505Z" fill="black"/>
<path d="M17.3811 18.4026C15.9301 18.4026 14.7495 17.223 14.7495 15.7733C14.7495 14.3236 15.9301 13.144 17.3811 13.144C18.8321 13.144 20.0127 14.3236 20.0127 15.7733C20.0127 17.223 18.8321 18.4026 17.3811 18.4026ZM17.3811 14.1967C16.5104 14.1967 15.8021 14.9039 15.8021 15.7733C15.8021 16.6427 16.5104 17.3499 17.3811 17.3499C18.2518 17.3499 18.96 16.6427 18.96 15.7733C18.96 14.9039 18.2518 14.1967 17.3811 14.1967Z" fill="black"/>
<path d="M10.5523 5.14602L9.68994 5.74951L15.7215 14.3687L16.5839 13.7652L10.5523 5.14602Z" fill="black"/>
</svg>
