<?xml version="1.0" encoding="iso-8859-1"?>
<svg xmlns="http://www.w3.org/2000/svg" xmlns:xlink="http://www.w3.org/1999/xlink" version="1.1" viewBox="0 0 463 463" enable-background="new 0 0 463 463" width="512px" height="512px">
  <path d="M455.5,384H407v-65.687c18.205-3.337,32-18.571,32-36.813c0-9.229-3.692-32.216-9.657-53.258  C420.787,198.058,411.305,184,399.5,184s-21.287,14.058-29.843,44.242C363.692,249.284,360,272.271,360,281.5  c0,18.243,13.795,33.477,32,36.813V384h-49V197.766c9.29-3.138,16-11.93,16-22.266v-32c0-4.142-3.357-7.5-7.5-7.5H343v-9h16.5  c4.143,0,7.5-3.358,7.5-7.5s-3.357-7.5-7.5-7.5h-48c-4.143,0-7.5,3.358-7.5,7.5s3.357,7.5,7.5,7.5H328v9h-8.5  c-4.143,0-7.5,3.358-7.5,7.5v32c0,10.336,6.71,19.128,16,22.266V384h-26.222l-5.096-25h6.817c4.143,0,7.5-3.358,7.5-7.5  s-3.357-7.5-7.5-7.5h-15.935c-0.033,0-0.066,0-0.1,0H287v-17h8.5c4.143,0,7.5-3.358,7.5-7.5s-3.357-7.5-7.5-7.5H287v-9h8.5  c4.143,0,7.5-3.358,7.5-7.5s-3.357-7.5-7.5-7.5h-144c-4.143,0-7.5,3.358-7.5,7.5s3.357,7.5,7.5,7.5h8.5v9h-8.5  c-4.143,0-7.5,3.358-7.5,7.5s3.357,7.5,7.5,7.5h8.5v17h-0.472c-0.028,0-0.055,0-0.083,0H143.5c-4.143,0-7.5,3.358-7.5,7.5  s3.357,7.5,7.5,7.5h6.817l-5.096,25H87v-73.458c31.49-3.724,56-30.567,56-63.042c0-56.341-54.382-174.169-56.697-179.157  C85.074,65.694,82.42,64,79.5,64s-5.574,1.694-6.803,4.343C70.382,73.331,16,191.159,16,247.5c0,32.475,24.51,59.318,56,63.042V384  H7.5c-4.143,0-7.5,3.358-7.5,7.5s3.357,7.5,7.5,7.5h448c4.143,0,7.5-3.358,7.5-7.5S459.643,384,455.5,384z M375,281.5  c0-6.688,2.938-26.702,8.452-46.881c8.021-29.353,14.763-34.74,16.048-35.526c1.285,0.786,8.026,6.173,16.048,35.526  c5.515,20.18,8.452,40.193,8.452,46.881c0,10.005-7.149,18.501-17,21.417V287.5c0-4.142-3.357-7.5-7.5-7.5s-7.5,3.358-7.5,7.5  v15.417C382.149,300.001,375,291.505,375,281.5z M327,151h17v24.5c0,4.687-3.813,8.5-8.5,8.5s-8.5-3.813-8.5-8.5V151z M31,247.5  c0-41.627,33.719-123.632,48.5-157.579C94.281,123.868,128,205.873,128,247.5c0,24.193-17.806,44.302-41,47.918v-23.913  c0-0.003,0-0.007,0-0.01v-20.888l21.804-21.804c2.929-2.929,2.929-7.678,0-10.606c-2.93-2.929-7.678-2.929-10.607,0L87,229.393  V215.5c0-4.142-3.357-7.5-7.5-7.5s-7.5,3.358-7.5,7.5v31.995c0,0.003,0,0.007,0,0.01v5.888l-11.196-11.196  c-2.93-2.929-7.678-2.929-10.607,0c-2.929,2.929-2.929,7.678,0,10.606L72,274.607v20.811C48.806,291.802,31,271.693,31,247.5z   M175,303h97v9h-97V303z M175,327h97v17h-97V327z M165.625,359h115.75l5.095,25H160.53L165.625,359z" fill="#21a746"/>
</svg>
