<svg width="20" height="20" viewBox="0 0 20 20" fill="none" xmlns="http://www.w3.org/2000/svg">
<path d="M15.9923 4.62852H15.0572C14.9883 4.62852 14.9222 4.65589 14.8735 4.7046C14.8248 4.75331 14.7975 4.81938 14.7975 4.88826C14.7975 4.95715 14.8248 5.02322 14.8735 5.07193C14.9222 5.12064 14.9883 5.148 15.0572 5.148H15.6001V5.72203C15.6001 5.79092 15.6274 5.85698 15.6761 5.90569C15.7248 5.9544 15.7909 5.98177 15.8598 5.98177C15.9287 5.98177 15.9947 5.9544 16.0435 5.90569C16.0922 5.85698 16.1195 5.79092 16.1195 5.72203V5.13502C16.3547 5.10449 16.5693 4.9853 16.7194 4.8018C16.8696 4.6183 16.944 4.38437 16.9274 4.14783C16.9108 3.9113 16.8045 3.69004 16.6302 3.5293C16.4559 3.36856 16.2268 3.28048 15.9897 3.28307H15.7299C15.6204 3.28307 15.5153 3.23956 15.4379 3.16211C15.3604 3.08466 15.3169 2.97961 15.3169 2.87008C15.3169 2.76055 15.3604 2.65551 15.4379 2.57806C15.5153 2.50061 15.6204 2.45709 15.7299 2.45709H16.665C16.7339 2.45709 16.7999 2.42973 16.8487 2.38102C16.8974 2.33231 16.9247 2.26624 16.9247 2.19735C16.9247 2.12847 16.8974 2.0624 16.8487 2.01369C16.7999 1.96498 16.7339 1.93761 16.665 1.93761H16.1221V1.36619C16.1221 1.2973 16.0948 1.23123 16.0461 1.18252C15.9973 1.13381 15.9313 1.10645 15.8624 1.10645C15.7935 1.10645 15.7274 1.13381 15.6787 1.18252C15.63 1.23123 15.6027 1.2973 15.6027 1.36619V1.948C15.3675 1.97853 15.1529 2.09772 15.0027 2.28122C14.8526 2.46472 14.7782 2.69865 14.7948 2.93519C14.8113 3.17172 14.9177 3.39298 15.092 3.55372C15.2663 3.71446 15.4954 3.80254 15.7325 3.79995H15.9923C16.1018 3.79995 16.2068 3.84346 16.2843 3.92091C16.3617 3.99836 16.4052 4.10341 16.4052 4.21294C16.4052 4.32247 16.3617 4.42751 16.2843 4.50496C16.2068 4.58241 16.1018 4.62593 15.9923 4.62593V4.62852Z" fill="black"/>
<path d="M15.8624 6.58458C16.4639 6.58458 17.052 6.4062 17.5522 6.07199C18.0523 5.73778 18.4422 5.26275 18.6724 4.70698C18.9026 4.15121 18.9628 3.53965 18.8455 2.94965C18.7281 2.35964 18.4384 1.81769 18.0131 1.39232C17.5877 0.966948 17.0457 0.677268 16.4557 0.559909C15.8657 0.44255 15.2542 0.502783 14.6984 0.732991C14.1426 0.963199 13.6676 1.35304 13.3334 1.85322C12.9992 2.35341 12.8208 2.94146 12.8208 3.54302C12.8215 4.34948 13.1422 5.12272 13.7124 5.69297C14.2827 6.26323 15.0559 6.5839 15.8624 6.58458ZM15.8624 1.02095C16.3612 1.02095 16.8488 1.16886 17.2635 1.44599C17.6783 1.72312 18.0016 2.11702 18.1925 2.57787C18.3833 3.03872 18.4333 3.54582 18.336 4.03506C18.2387 4.52429 17.9985 4.97368 17.6457 5.3264C17.293 5.67912 16.8436 5.91933 16.3544 6.01664C15.8652 6.11396 15.3581 6.06401 14.8972 5.87312C14.4364 5.68223 14.0425 5.35897 13.7653 4.94422C13.4882 4.52946 13.3403 4.04184 13.3403 3.54302C13.3417 2.87479 13.6079 2.23435 14.0807 1.76208C14.5534 1.28981 15.1941 1.02423 15.8624 1.02354V1.02095Z" fill="black"/>
<path d="M19.7403 17.0857H2.91429V0.25974C2.91429 0.190853 2.88692 0.124787 2.83821 0.0760762C2.7895 0.0273655 2.72343 0 2.65455 0C2.58566 0 2.51959 0.0273655 2.47088 0.0760762C2.42217 0.124787 2.3948 0.190853 2.3948 0.25974V17.0857H0.25974C0.190853 17.0857 0.124787 17.1131 0.0760762 17.1618C0.0273655 17.2105 0 17.2766 0 17.3455C0 17.4143 0.0273655 17.4804 0.0760762 17.5291C0.124787 17.5778 0.190853 17.6052 0.25974 17.6052H2.3948V19.7403C2.3948 19.8091 2.42217 19.8752 2.47088 19.9239C2.51959 19.9726 2.58566 20 2.65455 20C2.72343 20 2.7895 19.9726 2.83821 19.9239C2.88692 19.8752 2.91429 19.8091 2.91429 19.7403V17.6052H19.7403C19.8091 17.6052 19.8752 17.5778 19.9239 17.5291C19.9726 17.4804 20 17.4143 20 17.3455C20 17.2766 19.9726 17.2105 19.9239 17.1618C19.8752 17.1131 19.8091 17.0857 19.7403 17.0857Z" fill="black"/>
<path d="M4.12723 9.88031L5.94541 7.13485L8.51944 13.5115C8.53633 13.5529 8.56361 13.5892 8.59864 13.6169C8.63368 13.6447 8.67529 13.6629 8.71944 13.6699H8.761C8.79916 13.67 8.83686 13.6616 8.87143 13.6455C8.90599 13.6293 8.93658 13.6057 8.961 13.5764L11.4831 10.5582L14.0805 12.2699C14.1312 12.305 14.1928 12.3209 14.2542 12.3147C14.3156 12.3085 14.3728 12.2807 14.4155 12.2361L18.8311 7.56082C18.8783 7.51054 18.9036 7.44356 18.9014 7.37464C18.8992 7.30571 18.8697 7.24048 18.8194 7.19329C18.7692 7.1461 18.7022 7.12083 18.6333 7.12302C18.5643 7.12521 18.4991 7.15469 18.4519 7.20498L14.187 11.7219L11.587 9.99979C11.5338 9.96439 11.4694 9.94986 11.4061 9.95896C11.3429 9.96807 11.2852 10.0002 11.2441 10.0491L8.84931 12.9063L6.25191 6.47511C6.23422 6.43125 6.2049 6.39306 6.16711 6.36464C6.12931 6.33622 6.08448 6.31866 6.03744 6.31385C5.9904 6.30904 5.94293 6.31716 5.90017 6.33734C5.8574 6.35752 5.82096 6.38899 5.79476 6.42836L3.69606 9.59199C3.66227 9.64915 3.65166 9.71707 3.66639 9.78181C3.68112 9.84655 3.72008 9.90319 3.77528 9.94009C3.83047 9.977 3.8977 9.99137 3.96315 9.98025C4.02861 9.96913 4.08732 9.93337 4.12723 9.88031Z" fill="black"/>
</svg>
