<svg width="17" height="20" viewBox="0 0 17 20" fill="none" xmlns="http://www.w3.org/2000/svg">
<path d="M16.3636 19.0909C16.3636 19.593 15.9566 20 15.4545 20C14.9525 20 14.5455 19.593 14.5455 19.0909C14.5455 15.5764 11.6964 12.7273 8.18182 12.7273C4.66728 12.7273 1.81818 15.5764 1.81818 19.0909C1.81818 19.593 1.41117 20 0.909091 20C0.407014 20 0 19.593 0 19.0909C0 14.5722 3.66312 10.9091 8.18182 10.9091C12.7005 10.9091 16.3636 14.5722 16.3636 19.0909ZM8.18182 10C5.42039 10 3.18182 7.76142 3.18182 5C3.18182 2.23858 5.42039 0 8.18182 0C10.9432 0 13.1818 2.23858 13.1818 5C13.1818 7.76142 10.9432 10 8.18182 10ZM8.18182 8.18182C9.93909 8.18182 11.3636 6.75727 11.3636 5C11.3636 3.24273 9.93909 1.81818 8.18182 1.81818C6.42455 1.81818 5 3.24273 5 5C5 6.75727 6.42455 8.18182 8.18182 8.18182Z" fill="#21a746"/>
</svg>
