<svg height="512pt" viewBox="0 -6 512.00049 512" width="512pt" xmlns="http://www.w3.org/2000/svg"><path d="m78.949219 421.59375c-41.988281-44.777344-67.707031-104.988281-67.707031-171.214844 0-138.097656 111.800781-250.082031 249.828124-250.378906 138.761719-.296875 250.65625 111.121094 250.929688 249.878906.128906 66.324219-25.539062 126.648438-67.523438 171.515625-10.136718 10.832031-24.28125 17.023438-39.117187 17.023438h-287.472656c-14.742188 0-28.851563-6.070313-38.9375-16.824219zm0 0" fill="#6ad3d8"/><path d="m163.511719 80.734375c0-5.644531-4.574219-10.21875-10.21875-10.21875h-25.546875c-8.46875 0-15.332032-6.863281-15.332032-15.332031 0-2.597656.652344-5.042969 1.796876-7.1875 3.800781-2.773438 7.679687-5.449219 11.636718-8.011719.621094-.074219 1.253906-.128906 1.898438-.128906h214.609375c8.464843 0 15.328125 6.863281 15.328125 15.328125 0 8.46875-6.863282 15.332031-15.328125 15.332031h-137.964844c-5.644531 0-10.21875 4.574219-10.21875 10.21875s4.574219 10.21875 10.21875 10.21875h56.207031c8.46875 0 15.332032 6.863281 15.332032 15.332031 0 8.464844-6.863282 15.328125-15.332032 15.328125h-213.738281c6.472656-10.773437 13.726563-21.019531 21.691406-30.660156h84.742188c5.644531 0 10.21875-4.574219 10.21875-10.21875zm214.613281 122.632813h129.449219c-1.988281-10.464844-4.625-20.695313-7.875-30.65625h-198.222657c-8.464843 0-15.328124 6.863281-15.328124 15.328124 0 8.464844 6.863281 15.328126 15.328124 15.328126h25.550782c5.644531 0 10.21875 4.578124 10.21875 10.222656 0 5.644531-4.574219 10.21875-10.21875 10.21875h-107.308594c-8.464844 0-15.328125 6.863281-15.328125 15.328125 0 8.464843 6.863281 15.332031 15.328125 15.332031h214.613281c8.464844 0 15.328125-6.867188 15.328125-15.332031 0-8.464844-6.863281-15.328125-15.328125-15.328125h-56.207031c-5.644531 0-10.222656-4.574219-10.222656-10.21875 0-5.644532 4.578125-10.222656 10.222656-10.222656zm0 0" fill="#a3e2e5"/><path d="m447.621094 417.980469c-45.828125 50.824219-112.179688 82.777343-186 82.777343-73.820313 0-140.175782-31.953124-186-82.777343zm0 0" fill="#3691bb"/><path d="m224.832031 453.75v10.21875c0 2.820312-2.289062 5.109375-5.113281 5.109375h-80.058594c-10.835937-6.058594-21.179687-12.894531-30.949218-20.441406h111.007812c2.824219 0 5.113281 2.289062 5.113281 5.113281zm45.988281-5.113281c-2.824218 0-5.113281 2.289062-5.113281 5.113281v10.21875c0 2.820312 2.289063 5.109375 5.113281 5.109375h112.757813c10.839844-6.058594 21.183594-12.894531 30.949219-20.441406zm0 0" fill="#0680ae"/><path d="m388.34375 75.625v40.878906c0 2.820313-2.289062 5.109375-5.109375 5.109375-2.824219 0-5.109375-2.289062-5.109375-5.109375v-26.441406c-1.601562.566406-3.316406.890625-5.109375.890625h-15.332031c-5.644532 0-10.21875-4.574219-10.21875-10.21875v-10.21875c0-5.644531 4.574218-10.21875 10.21875-10.21875h15.332031c8.464844 0 15.328125 6.863281 15.328125 15.328125zm0 0" fill="#0995a3"/><path d="m512 336.734375v30.660156c0 11.285157-9.152344 20.4375-20.4375 20.4375h-367.90625c-5.644531 0-10.21875-4.574219-10.21875-10.21875v-30.660156h-30.660156c-5.644532 0-10.21875-4.574219-10.21875-10.21875v-61.316406c0-5.644531 4.574218-10.21875 10.21875-10.21875h172.710937c5.644531 0 10.21875 4.574219 10.21875 10.21875v40.878906c0 11.285156 9.152344 20.4375 20.441407 20.4375h51.097656c11.289062 0 20.4375-9.152344 20.4375-20.4375v-184.464844c0-5.644531 4.578125-10.21875 10.21875-10.21875h10.222656c5.644531 0 10.21875 4.574219 10.21875 10.21875v31.167969c22.574219 0 40.878906 18.304688 40.878906 40.878906v32.511719c47.152344 9.070313 82.777344 50.542969 82.777344 100.34375zm0 0" fill="#fc5e93"/><path d="m357.683594 121.613281h30.660156v214.609375h-30.660156zm-265.707032 143.585938h-9.199218c-5.644532 0-10.21875 4.574219-10.21875 10.21875v71.535156c0 5.644531 4.574218 10.21875 10.21875 10.21875h9.199218c5.644532 0 10.21875-4.574219 10.21875-10.21875v-71.535156c0-5.644531-4.574218-10.21875-10.21875-10.21875zm417.976563 51.097656h-39.851563c-5.644531 0-10.222656 4.574219-10.222656 10.21875s4.578125 10.21875 10.222656 10.21875h40.875v-14.453125c-.285156-2.015625-.621093-4.011719-1.023437-5.984375zm0 0" fill="#fd3980"/><path d="m388.34375 122.125v20.4375h-81.757812c-5.644532 0-10.21875-4.574219-10.21875-10.21875v-10.21875c0-5.644531 4.574218-10.222656 10.21875-10.222656h71.539062c5.644531 0 10.21875 4.578125 10.21875 10.222656zm-96.0625 122.632812h-251.402344v20.441407c0 11.285156 9.148438 20.4375 20.4375 20.4375h230.964844c8.464844 0 15.328125-6.863281 15.328125-15.328125v-10.222656c0-8.464844-6.863281-15.328126-15.328125-15.328126zm0 0" fill="#3691bb"/><path d="m337.246094 142.5625h-30.660156c-5.644532 0-10.21875-4.574219-10.21875-10.21875v-10.21875c0-5.644531 4.574218-10.222656 10.21875-10.222656h30.660156c-5.644532 0-10.21875 4.578125-10.21875 10.222656v10.21875c0 5.644531 4.574218 10.21875 10.21875 10.21875zm-265.710938 122.636719v-20.441407h-30.65625v20.441407c0 11.285156 9.148438 20.4375 20.4375 20.4375h30.660156c-11.289062 0-20.441406-9.152344-20.441406-20.4375zm0 0" fill="#0680ae"/><path d="m0 249.867188v-204.390626c0-8.464843 6.863281-15.328124 15.328125-15.328124h204.390625c8.46875 0 15.332031 6.863281 15.332031 15.328124v204.390626c0 8.464843-6.863281 15.332031-15.332031 15.332031h-204.390625c-8.464844 0-15.328125-6.867188-15.328125-15.332031zm0 0" fill="#fc9302"/><path d="m29.636719 249.867188v-204.390626c0-8.464843 6.863281-15.328124 15.328125-15.328124h174.753906c8.46875 0 15.332031 6.863281 15.332031 15.328124v204.390626c0 8.464843-6.863281 15.332031-15.332031 15.332031h-174.753906c-8.464844 0-15.328125-6.867188-15.328125-15.332031zm0 0" fill="#fcb30b"/><path d="m117.523438 52.460938c52.585937 0 95.214843 42.625 95.214843 95.210937s-42.628906 95.214844-95.214843 95.214844c-52.582032 0-95.210938-42.628907-95.210938-95.214844s42.628906-95.210937 95.210938-95.210937zm0 0" fill="#fc6930"/><path d="m470.101562 285.636719h20.4375v20.4375h-20.4375c-5.644531 0-10.222656-4.574219-10.222656-10.21875s4.578125-10.21875 10.222656-10.21875zm0 0" fill="#f8bb5e"/><path d="m507.320312 306.074219h-16.78125c-5.644531 0-10.21875-4.574219-10.21875-10.21875s4.574219-10.21875 10.21875-10.21875h7.785157c3.707031 6.40625 6.738281 13.25 8.996093 20.4375zm0 0" fill="#ffdf8e"/><path d="m383.234375 315.785156c31.042969 0 56.207031 25.164063 56.207031 56.207032 0 31.042968-25.164062 56.207031-56.207031 56.207031s-56.207031-25.164063-56.207031-56.207031c0-31.042969 25.164062-56.207032 56.207031-56.207032zm-301.476563 56.207032c0 31.042968 25.164063 56.207031 56.207032 56.207031 31.042968 0 56.207031-25.164063 56.207031-56.207031 0-31.042969-25.164063-56.207032-56.207031-56.207032-31.042969 0-56.207032 25.164063-56.207032 56.207032zm0 0" fill="#fcb30b"/><path d="m408.78125 371.992188c0 14.109374-11.4375 25.546874-25.546875 25.546874s-25.550781-11.4375-25.550781-25.546874c0-14.109376 11.441406-25.550782 25.550781-25.550782s25.546875 11.441406 25.546875 25.550782zm-270.816406-25.550782c-14.109375 0-25.550782 11.441406-25.550782 25.550782 0 14.109374 11.441407 25.546874 25.550782 25.546874s25.546875-11.4375 25.546875-25.546874c0-14.109376-11.4375-25.550782-25.546875-25.550782zm-22.105469-240.328125c0-12.242187-9.921875-22.164062-22.164063-22.164062h-7.757812c-12.242188 0-22.164062 9.921875-22.164062 22.164062v19.394531c0 8.09375 4.339843 15.175782 10.824218 19.042969 3.390625 2.019531 5.519532 5.625 5.519532 9.570313v53.117187c0 2.296875 1.863281 4.15625 4.15625 4.15625h11.082031c2.296875 0 4.15625-1.859375 4.15625-4.15625v-53.117187c0-3.945313 2.132812-7.550782 5.523437-9.570313 6.480469-3.867187 10.824219-10.949219 10.824219-19.042969zm51.261719-22.164062h-2.769532c-2.296874 0-4.15625 1.859375-4.15625 4.15625v26.875c0 1.222656-.992187 2.214843-2.21875 2.214843-1.222656 0-2.214843-.992187-2.214843-2.214843v-26.875c0-2.296875-1.859375-4.15625-4.15625-4.15625h-2.769531c-2.296876 0-4.15625 1.859375-4.15625 4.15625v26.875c0 1.222656-.992188 2.214843-2.21875 2.214843-1.222657 0-2.214844-.992187-2.214844-2.214843v-26.875c0-2.296875-1.863282-4.15625-4.15625-4.15625h-2.769532c-2.296874 0-4.15625 1.859375-4.15625 4.15625v35.738281c0 6.4375 2.890626 12.199219 7.445313 16.058594 2.480469 2.105468 3.914063 5.195312 3.914063 8.449218v58.886719c0 2.296875 1.859374 4.15625 4.15625 4.15625h11.082031c2.296875 0 4.15625-1.859375 4.15625-4.15625v-58.886719c0-3.253906 1.433593-6.34375 3.914062-8.449218 4.554688-3.859375 7.445313-9.621094 7.445313-16.058594v-35.738281c0-2.296875-1.859375-4.15625-4.15625-4.15625zm246.769531 17.734375h-20.4375c-8.464844 0-15.328125 6.863281-15.328125 15.332031v20.4375c0 8.464844 6.863281 15.328125 15.328125 15.328125h20.4375c2.824219 0 5.113281-2.289062 5.113281-5.109375v-40.878906c0-2.820313-2.289062-5.109375-5.113281-5.109375zm0 0" fill="#fff2b4"/><path d="m408.78125 371.992188c0 10.476562-6.304688 19.472656-15.328125 23.417968-9.023437-3.945312-15.328125-12.941406-15.328125-23.417968 0-10.476563 6.304688-19.472657 15.328125-23.417969 9.023437 3.945312 15.328125 12.941406 15.328125 23.417969zm-260.597656-23.417969c-9.023438 3.941406-15.328125 12.941406-15.328125 23.417969 0 10.476562 6.304687 19.472656 15.328125 23.417968 9.023437-3.945312 15.328125-12.941406 15.328125-23.417968 0-10.476563-6.304688-19.472657-15.328125-23.417969zm245.269531-216.230469h20.4375c2.824219 0 5.113281-2.289062 5.113281-5.109375v-20.441406c0-2.820313-2.289062-5.109375-5.113281-5.109375h-20.4375c-8.464844 0-15.328125 6.863281-15.328125 15.332031 0 8.464844 6.863281 15.328125 15.328125 15.328125zm0 0" fill="#fff5f5"/></svg>