<svg width="14" height="13" viewBox="0 0 14 13" fill="none" xmlns="http://www.w3.org/2000/svg">
<path d="M7.67591 0.381718L9.25493 3.28747C9.36474 3.48956 9.57705 3.6296 9.82265 3.66196L13.3536 4.12795C13.9721 4.20964 14.2189 4.89974 13.7715 5.29571L11.2165 7.55751C11.039 7.71478 10.9578 7.94154 10.9998 8.16353L11.6029 11.3573C11.7086 11.9167 11.062 12.3431 10.5089 12.0792L7.35088 10.5715C7.13127 10.4667 6.86873 10.4667 6.64912 10.5715L3.49108 12.0792C2.93797 12.3434 2.29141 11.9167 2.39712 11.3573L3.00017 8.16353C3.04222 7.94154 2.96104 7.71478 2.78348 7.55751L0.228484 5.29571C-0.218911 4.89947 0.0278572 4.20937 0.646383 4.12795L4.17735 3.66196C4.42295 3.6296 4.63526 3.48956 4.74507 3.28747L6.32409 0.381718C6.60035 -0.127239 7.39936 -0.127239 7.67591 0.381718Z" fill="#C47632"/>
</svg>
