<svg width="20" height="20" viewBox="0 0 20 20" fill="none" xmlns="http://www.w3.org/2000/svg">
<path fill-rule="evenodd" clip-rule="evenodd" d="M9.99289 5.12263e-05C9.93347 0.000959772 9.87425 0.0136645 9.81969 0.0372049C9.76514 0.0607566 9.71528 0.0951287 9.67387 0.137755C9.63247 0.18038 9.59956 0.231218 9.57759 0.286439C9.55563 0.341658 9.54466 0.401227 9.5455 0.460646V3.73226C9.53384 3.80307 9.53927 3.87664 9.56121 3.94496C9.58315 4.01329 9.62156 4.07626 9.67226 4.12705C9.67535 4.13036 9.67846 4.13364 9.68164 4.13685C9.68187 4.13698 9.68198 4.13706 9.68214 4.13729C9.73218 4.18617 9.79366 4.22326 9.86024 4.24472C9.92681 4.26618 9.99838 4.27197 10.0675 4.26151C13.0978 4.29774 15.5351 6.75488 15.5351 9.79368C15.5351 9.80981 15.5333 9.84098 15.533 9.88811L15.5324 9.91464C15.5235 9.96084 15.5219 10.0084 15.5275 10.0551C15.3921 12.9714 13.0113 15.2929 10.0677 15.3282C10.0227 15.3214 9.97669 15.3214 9.93167 15.3282C6.98983 15.2928 4.60855 12.9704 4.47409 10.0532C4.48001 10.0038 4.47774 9.95342 4.46741 9.90477C4.46689 9.86981 4.46664 9.83334 4.46664 9.79368C4.46664 7.35034 6.04637 5.28228 8.23867 4.54593C8.2957 4.52753 8.34903 4.49772 8.39455 4.45877C8.44009 4.41981 8.4778 4.37176 8.5048 4.31826C8.53181 4.26477 8.54807 4.20588 8.55236 4.14611C8.55666 4.08634 8.54896 4.02574 8.52988 3.96893C8.5108 3.91213 8.48036 3.85917 8.44086 3.81411C8.40134 3.76905 8.35283 3.73192 8.29902 3.70557C8.24519 3.67922 8.18613 3.66367 8.1263 3.6601C8.06647 3.65654 8.00599 3.66496 7.94941 3.68472C5.46924 4.51778 3.66634 6.81854 3.56307 9.54617H0.460019C0.400078 9.54617 0.340023 9.55662 0.28442 9.57908C0.228817 9.60157 0.177734 9.63506 0.135101 9.67719C0.0924445 9.7193 0.0582377 9.76994 0.0351379 9.82525C0.0120155 9.88054 0 9.94046 0 10.0004C0 10.0603 0.0120155 10.1203 0.0351379 10.1756C0.0582377 10.2309 0.0924445 10.2815 0.135101 10.3236C0.177734 10.3658 0.228817 10.3993 0.28442 10.4217C0.340023 10.4442 0.400078 10.4554 0.460019 10.4546H3.59314C3.90954 13.5504 6.42428 16.0028 9.54547 16.2213V19.5401C9.54472 19.6 9.55599 19.6601 9.57841 19.7157C9.60083 19.7712 9.63437 19.8223 9.67651 19.8649C9.71862 19.9076 9.76927 19.9418 9.82456 19.9649C9.87986 19.988 9.93978 20 9.99972 20C10.0596 20 10.1196 19.988 10.1749 19.9649C10.2302 19.9418 10.2808 19.9076 10.3229 19.8649C10.365 19.8223 10.3986 19.7712 10.421 19.7157C10.4434 19.6601 10.4547 19.6 10.454 19.5401V16.2214C13.5771 16.003 16.0921 13.5505 16.4085 10.4546H19.5395C19.5994 10.4546 19.6595 10.4442 19.7151 10.4217C19.7707 10.3992 19.8218 10.3658 19.8644 10.3236C19.907 10.2815 19.9413 10.2309 19.9644 10.1756C19.9875 10.1203 19.9995 10.0603 19.9995 10.0004C19.9995 9.94046 19.9875 9.88054 19.9644 9.82524C19.9413 9.76993 19.907 9.71927 19.8644 9.67716C19.8218 9.63503 19.7707 9.60148 19.7151 9.57908C19.6595 9.55659 19.5994 9.5454 19.5395 9.54617H16.4384C16.3135 6.25916 13.7139 3.59642 10.454 3.36835V0.460646C10.4548 0.400084 10.4434 0.339374 10.4206 0.283265C10.3978 0.227153 10.3636 0.175693 10.3208 0.132889C10.2779 0.0900856 10.2264 0.0559786 10.1703 0.03324C10.1141 0.0104991 10.0534 -0.000864133 9.99286 5.12263e-05H9.99289Z" fill="black"/>
<path fill-rule="evenodd" clip-rule="evenodd" d="M9.9998 7.93555C11.1471 7.93555 12.0645 8.85289 12.0645 10.0002C12.0645 11.1475 11.1471 12.0649 9.9998 12.0649C8.85514 12.0649 7.93506 11.147 7.93506 10.0002C7.93506 8.85338 8.85514 7.93555 9.9998 7.93555Z" fill="black"/>
</svg>
