<svg width="130" height="99" viewBox="0 0 130 99" fill="none" xmlns="http://www.w3.org/2000/svg">
<path d="M99.6171 91.5018C99.6171 87.3607 84.0226 84.0035 64.7862 84.0035C45.5498 84.0035 29.9553 87.3607 29.9553 91.5018C29.9553 95.6428 45.5498 99 64.7862 99C84.0226 99 99.6171 95.6428 99.6171 91.5018V91.5018Z" fill="url(#paint0_linear)"/>
<path d="M129.572 82.6759C129.572 75.7313 100.567 70.1014 64.7862 70.1014C29.0053 70.1014 0 75.7313 0 82.6759C0 89.6215 29.0053 95.2514 64.7862 95.2514C100.567 95.2514 129.572 89.6215 129.572 82.6759V82.6759Z" fill="url(#paint1_linear)"/>
<path d="M128.276 81.6962C128.276 75.2924 99.8504 70.1014 64.7862 70.1014C29.722 70.1014 1.29602 75.2924 1.29602 81.6962C1.29602 88.1011 29.722 93.292 64.7862 93.292C99.8504 93.292 128.276 88.1011 128.276 81.6962V81.6962Z" fill="url(#paint2_linear)"/>
<path d="M109.845 81.1269C109.845 76.9858 89.6712 73.6287 64.7862 73.6287C39.9012 73.6287 19.7277 76.9858 19.7277 81.1269C19.7277 85.268 39.9012 88.6251 64.7862 88.6251C89.6712 88.6251 109.845 85.268 109.845 81.1269V81.1269Z" fill="url(#paint3_linear)"/>
<path d="M64.7862 99C80.9412 99 94.526 96.6324 98.4644 93.4206C117.117 91.2131 129.572 87.2272 129.572 82.6759C129.572 81.0843 128.045 79.5619 125.264 78.1602C117.077 73.4863 93.0975 70.1014 64.7862 70.1014C39.5028 70.1014 17.6754 72.8002 7.46358 76.707C7.00983 77.2863 6.75083 77.9338 6.87934 78.6317C6.94854 79.0064 7.10868 79.2723 7.33704 79.4483C7.33902 79.4502 16.5296 88.6419 19.5695 91.6817C23.0581 92.342 26.9263 92.9263 31.1089 93.4206C35.0463 96.6324 48.6311 99 64.7862 99V99Z" fill="url(#paint4_linear)"/>
<path d="M28.0869 72.8665C26.9471 71.6733 25.3417 70.9289 23.5613 70.9289C20.1033 70.9289 17.3008 73.7315 17.3008 77.1894C17.3008 78.9698 18.0452 80.5753 19.2384 81.7151L29.3909 91.8666C30.5307 93.0598 32.1361 93.8041 33.9165 93.8041C37.3735 93.8041 40.176 91.0016 40.176 87.5446C40.176 85.7642 39.4316 84.1588 38.2385 83.019L28.0869 72.8665Z" fill="url(#paint5_linear)"/>
<path d="M39.8577 75.1243C38.7179 73.9312 37.1125 73.1868 35.3321 73.1868C31.8751 73.1868 29.0725 75.9893 29.0725 79.4463C29.0725 81.2267 29.8169 82.8321 31.0101 83.9719L41.1616 94.1244C42.3014 95.3166 43.9068 96.061 45.6872 96.061C49.1452 96.061 51.9478 93.2585 51.9478 89.8015C51.9478 88.0211 51.2034 86.4157 50.0102 85.2759L39.8577 75.1243Z" fill="url(#paint6_linear)"/>
<path d="M52.4697 76.0526C51.3299 74.8594 49.7245 74.1151 47.9441 74.1151C44.4871 74.1151 41.6846 76.9176 41.6846 80.3756C41.6846 82.156 42.429 83.7614 43.6221 84.9012L53.7737 95.0527C54.9135 96.2459 56.5189 96.9903 58.2993 96.9903C61.7563 96.9903 64.5588 94.1877 64.5588 90.7307C64.5588 88.9504 63.8144 87.3449 62.6222 86.2051L52.4697 76.0526Z" fill="url(#paint7_linear)"/>
<path d="M64.9048 76.186C63.765 74.9929 62.1596 74.2485 60.3792 74.2485C56.9222 74.2485 54.1196 77.051 54.1196 80.508C54.1196 82.2884 54.864 83.8938 56.0572 85.0337L66.2087 95.1862C67.3485 96.3793 68.9539 97.1237 70.7343 97.1237C74.1923 97.1237 76.9949 94.3212 76.9949 90.8632C76.9949 89.0838 76.2505 87.4784 75.0573 86.3376L64.9048 76.186Z" fill="url(#paint8_linear)"/>
<path d="M15.029 76.3828C18.3753 81.2198 29.5688 79.1735 32.4494 78.5537C32.8854 78.4588 33.1305 78.3975 33.1305 78.3975C33.1305 78.3975 33.1711 78.269 33.2383 78.0327C33.2788 77.8874 33.3292 77.7005 33.3856 77.4771C33.9797 75.1491 35.1996 68.9488 32.5008 65.4928C29.1298 61.1788 28.4626 66.3124 28.4626 66.3124C28.4626 66.3124 27.3989 58.8201 23.2786 55.3888C19.2106 52.003 20.0183 58.4731 20.04 58.6411C19.9827 58.4751 17.3541 51.0549 12.8107 50.9146C8.21491 50.7712 11.8825 56.0323 11.8825 56.0323C11.8825 56.0323 6.35444 50.9254 3.48861 53.1398C3.09813 53.4423 2.88855 53.7853 2.82034 54.1521C2.81935 54.157 2.81836 54.162 2.81738 54.1659C2.81243 54.1956 2.80848 54.2262 2.80551 54.2549C2.80057 54.2905 2.79761 54.3241 2.79563 54.3597C2.79464 54.3943 2.79365 54.4299 2.79464 54.4645C2.79464 54.5337 2.80057 54.6058 2.81046 54.676C2.81046 54.681 2.81243 54.6869 2.81243 54.6928C2.81738 54.7245 2.82232 54.7551 2.82825 54.7867C2.83912 54.8451 2.85296 54.9034 2.86977 54.9637C2.88361 55.0131 2.89844 55.0635 2.91623 55.1149C2.92809 55.1515 2.94193 55.1881 2.95577 55.2247C2.97159 55.2622 2.98642 55.2998 3.00224 55.3364C3.01805 55.373 3.03486 55.4095 3.05265 55.4481C3.08725 55.5222 3.1268 55.5964 3.16831 55.6715C3.18611 55.7041 3.20489 55.7358 3.22466 55.7684C3.24839 55.8109 3.27409 55.8524 3.30177 55.8939C3.32451 55.9325 3.34922 55.97 3.37393 56.0066C3.39865 56.0452 3.42435 56.0818 3.45104 56.1183C3.47576 56.1559 3.50344 56.1925 3.53013 56.23C3.66655 56.4149 3.81681 56.6007 3.97696 56.7817C4.03133 56.8449 4.08866 56.9072 4.146 56.9705C4.18851 57.0159 4.23003 57.0604 4.27352 57.1059C4.33086 57.1642 4.3882 57.2235 4.44652 57.2819C4.45344 57.2898 4.45937 57.2957 4.46728 57.3026C4.48804 57.3244 4.51078 57.3461 4.53253 57.3669C5.85818 58.6708 7.46855 59.7038 7.53873 59.7503C7.43098 59.7236 3.42435 58.7439 2.63647 61.3132C1.84463 63.8983 11.7539 65.8191 11.9101 65.8497C11.8063 65.8754 6.78446 67.1635 8.03993 70.1272C9.29936 73.0978 19.4182 73.2066 19.5734 73.2075C19.4341 73.2293 13.4889 74.1576 15.029 76.3828V76.3828Z" fill="url(#paint9_linear)"/>
<path d="M15.0291 76.3827C18.3754 81.2197 29.5689 79.1734 32.4495 78.5536C32.8855 78.4587 33.1307 78.3974 33.1307 78.3974C33.1307 78.3974 33.1712 78.2689 33.2384 78.0326C26.3847 69.701 18.241 63.4632 11.6898 59.2539C8.09639 56.9466 4.98144 55.2493 2.82045 54.152C2.81946 54.1559 2.81847 54.1609 2.81748 54.1658C2.81254 54.1955 2.80858 54.2251 2.80562 54.2548C2.79969 54.2894 2.79771 54.324 2.79573 54.3596C2.79376 54.3942 2.79376 54.4298 2.79376 54.4644C2.79573 54.5345 2.80068 54.6047 2.81056 54.6759C2.81056 54.6809 2.81254 54.6868 2.81254 54.6917C2.81748 54.7234 2.82242 54.755 2.82836 54.7856C2.83923 54.844 2.85307 54.9033 2.86889 54.9626C2.88372 55.012 2.89854 55.0624 2.91535 55.1148C2.9282 55.1514 2.94204 55.188 2.95588 55.2246C2.97071 55.2611 2.98653 55.2987 3.00234 55.3353C3.01816 55.3719 3.03496 55.4094 3.05276 55.448C3.08736 55.5211 3.12591 55.5953 3.16842 55.6704C3.18621 55.703 3.205 55.7356 3.22378 55.7673C3.24849 55.8098 3.2742 55.8523 3.30089 55.8938C3.32461 55.9314 3.34933 55.9689 3.37305 56.0065C3.39875 56.0441 3.42446 56.0807 3.45016 56.1172C3.47586 56.1558 3.50354 56.1924 3.53023 56.2299C3.66566 56.4138 3.81691 56.5996 3.97607 56.7815C4.03044 56.8448 4.08778 56.9071 4.1461 56.9704C4.18861 57.0148 4.23013 57.0593 4.27363 57.1048C4.33097 57.1641 4.38731 57.2224 4.44663 57.2808C4.45355 57.2887 4.45948 57.2956 4.46739 57.3015C4.48815 57.3233 4.51088 57.346 4.53263 57.3668C5.85829 58.6697 7.46766 59.7037 7.53884 59.7492C7.43109 59.7225 3.42347 58.7428 2.63658 61.3131C1.84375 63.8972 11.7541 65.8189 11.9102 65.8486C11.8064 65.8753 6.78457 67.1624 8.04004 70.1261C9.29946 73.0977 19.4174 73.2064 19.5736 73.2074C19.4342 73.2292 13.489 74.1574 15.0291 76.3827V76.3827Z" fill="url(#paint10_linear)"/>
<path d="M29.7388 76.623C30.1856 76.5696 30.6255 76.7169 30.9349 77.0273L30.9399 77.0333L31.8088 77.9052C32.0253 78.1177 32.2379 78.3352 32.4494 78.5537C32.8854 78.4588 33.1305 78.3975 33.1305 78.3975C33.1305 78.3975 33.1711 78.268 33.2373 78.0327C33.2788 77.8874 33.3292 77.7005 33.3856 77.4771C33.2264 77.2824 33.0683 77.0886 32.9081 76.8949C32.6936 76.6448 32.483 76.3917 32.2695 76.1406C32.0332 75.8608 31.9156 75.497 31.9413 75.1204C32.2616 70.2962 29.4205 67.1981 30.2696 69.2345C30.8638 70.6531 31.0012 73.1196 31.0209 74.7131C30.5543 74.1921 30.0828 73.6771 29.6093 73.1631C29.0369 72.563 28.4537 71.9718 27.8744 71.3757C27.5877 71.0762 27.2862 70.7915 26.9866 70.5038L26.693 70.2231C26.2126 69.7624 25.917 69.1367 25.8706 68.4595C25.4949 62.9779 22.4057 59.257 23.4911 61.7314C24.2839 63.5384 24.6981 66.598 24.8899 68.5247L24.2553 67.9563L23.3201 67.1348L22.8525 66.7246C22.6963 66.5872 22.5401 66.4498 22.378 66.3212C22.0982 66.0929 21.6336 65.7202 21.1838 65.3554C20.4196 64.7386 19.8621 63.9042 19.5685 62.9552C17.7871 57.181 13.4898 53.7161 15.2781 56.1262C16.6799 58.0134 18.0135 61.5188 18.6758 63.4089L18.4564 63.2468C18.1232 62.9997 17.7861 62.7585 17.45 62.5153C17.1109 62.2751 16.7827 62.021 16.4308 61.7986C15.7378 61.3379 15.0409 60.8852 14.343 60.4354L13.8171 60.1022C13.6421 59.9905 13.4701 59.8768 13.2862 59.776C12.9254 59.5684 12.5665 59.3588 12.2027 59.1562C12.1543 59.1285 12.1069 59.1008 12.0594 59.0741C11.8913 58.9782 11.7213 59.1038 11.6897 59.254C11.6709 59.3311 11.6907 59.4171 11.7678 59.4814C11.8103 59.518 11.8518 59.5526 11.8933 59.5872C12.2097 59.8541 12.528 60.1141 12.8463 60.377C13.0064 60.5065 13.1607 60.642 13.3159 60.7784L13.7815 61.1847C14.4043 61.7235 15.03 62.2583 15.6587 62.7852C16.2845 63.315 16.8895 63.8746 17.5093 64.4094C17.5686 64.4588 17.627 64.5092 17.6843 64.5596C15.8654 64.1257 11.8854 63.0768 9.7353 61.7808C7.06619 60.1704 11.3249 64.4845 17.6329 65.5284C18.5364 65.6787 19.3688 66.084 20.0489 66.6801C20.4493 67.032 20.8754 67.4057 21.1828 67.6795C21.7878 68.2311 22.3859 68.7917 22.9869 69.3472L23.8786 70.1628C22.1516 70.1835 18.2952 70.14 16.0977 69.4174C13.4424 68.5435 17.8049 71.4766 23.584 71.1227C24.3561 71.0752 25.1024 71.3303 25.6511 71.8473L25.6748 71.869L26.1207 72.2911C26.2699 72.4305 26.4123 72.5788 26.5606 72.7192C27.1488 73.2896 27.732 73.8649 28.3261 74.4294C28.7492 74.8495 29.1694 75.2717 29.5935 75.6908C28.0019 75.8134 25.6392 75.8905 24.2187 75.4496C22.1822 74.8179 25.2329 77.1519 29.7388 76.623Z" fill="url(#paint11_linear)"/>
<path d="M26.8948 78.9372C31.3938 78.3529 33.9482 69.9551 34.5413 67.7605C34.6303 67.4284 34.6748 67.2386 34.6748 67.2386C34.6748 67.2386 34.6016 67.1644 34.4632 67.0359C34.3782 66.9568 34.2675 66.856 34.135 66.7384C32.7481 65.5076 28.9283 62.4796 25.6048 63.1084C21.4548 63.8943 24.7388 66.167 24.7388 66.167C24.7388 66.167 19.2266 64.2472 15.4167 65.8595C11.6572 67.4511 16.3795 69.185 16.5011 69.2295C16.3677 69.2097 10.3513 68.3892 8.649 71.4548C6.92495 74.5549 11.8292 73.9005 11.8292 73.9005C11.8292 73.9005 6.37334 75.8855 6.87849 78.6327C6.94868 79.0074 7.10883 79.2723 7.33619 79.4492C7.33916 79.4512 7.34213 79.4532 7.34509 79.4552C7.36288 79.47 7.38266 79.4829 7.40144 79.4957C7.42418 79.5115 7.44592 79.5254 7.46965 79.5392C7.49337 79.5521 7.5171 79.5649 7.54181 79.5778C7.58927 79.6015 7.64067 79.6232 7.69208 79.641C7.69603 79.643 7.69998 79.644 7.70394 79.645C7.72766 79.6529 7.7504 79.6608 7.77413 79.6677C7.81762 79.6816 7.8631 79.6914 7.91055 79.7023C7.9491 79.7092 7.98864 79.7171 8.03016 79.7241C8.05982 79.728 8.08948 79.732 8.12012 79.7349C8.15077 79.7379 8.1824 79.7409 8.21206 79.7428C8.2427 79.7448 8.27434 79.7458 8.30696 79.7478C8.36924 79.7498 8.43448 79.7498 8.50072 79.7478C8.52938 79.7468 8.55805 79.7458 8.58672 79.7438C8.62527 79.7419 8.66284 79.7389 8.70041 79.7349C8.735 79.733 8.7696 79.729 8.80322 79.725C8.83781 79.7221 8.87241 79.7171 8.90701 79.7122C8.94161 79.7082 8.97621 79.7023 9.0118 79.6974C9.18678 79.6687 9.36669 79.6311 9.5476 79.5857C9.61087 79.5708 9.67315 79.554 9.7374 79.5362C9.78288 79.5234 9.82835 79.5105 9.87481 79.4967C9.93512 79.4779 9.99542 79.4601 10.0567 79.4403C10.0646 79.4384 10.0705 79.4364 10.0785 79.4334C10.1002 79.4265 10.1239 79.4196 10.1457 79.4117C11.5079 78.9629 12.7851 78.2244 12.8425 78.1928C12.7851 78.257 10.6973 80.6582 12.1811 82.1065C13.6729 83.5636 18.4931 77.4484 18.5692 77.3515C18.5504 77.4316 17.6577 81.3305 20.1341 81.5173C22.6154 81.7041 26.2671 74.805 26.3234 74.6992C26.2898 74.801 24.8248 79.2061 26.8948 78.9372V78.9372Z" fill="url(#paint12_linear)"/>
<path d="M26.8948 78.9373C31.3937 78.353 33.9482 69.9552 34.5413 67.7606C34.6303 67.4285 34.6748 67.2387 34.6748 67.2387C34.6748 67.2387 34.6016 67.1645 34.4632 67.036C26.3284 68.7897 19.1722 72.1676 13.9704 75.1709C11.1174 76.8188 8.85361 78.355 7.33716 79.4484C7.33914 79.4513 7.3421 79.4533 7.34507 79.4553C7.36385 79.4691 7.38263 79.483 7.4024 79.4958C7.42415 79.5116 7.44689 79.5255 7.47061 79.5393C7.49335 79.5522 7.51806 79.565 7.54179 79.5769C7.59023 79.6006 7.64065 79.6223 7.69205 79.6411C7.69601 79.6431 7.70095 79.6431 7.70391 79.6451C7.72764 79.653 7.75136 79.6609 7.7741 79.6678C7.81859 79.6807 7.86307 79.6915 7.91052 79.7014C7.94908 79.7093 7.98862 79.7172 8.03014 79.7232C8.05979 79.7281 8.09044 79.7311 8.1201 79.735C8.15074 79.738 8.18238 79.741 8.21302 79.7429C8.24367 79.7449 8.2753 79.7459 8.30693 79.7479C8.3702 79.7499 8.43446 79.7499 8.50069 79.7469C8.52936 79.7469 8.55803 79.7449 8.58769 79.7439C8.62525 79.742 8.66282 79.739 8.70137 79.735C8.73498 79.7331 8.76958 79.7291 8.80319 79.7252C8.83878 79.7212 8.87239 79.7163 8.90699 79.7113C8.94258 79.7083 8.97718 79.7014 9.01178 79.6965C9.18675 79.6688 9.36766 79.6312 9.54758 79.5858C9.61084 79.5709 9.67411 79.5541 9.73738 79.5363C9.78285 79.5235 9.82833 79.5106 9.87479 79.4968C9.93509 79.478 9.99638 79.4602 10.0567 79.4395C10.0646 79.4385 10.0705 79.4355 10.0784 79.4335C10.1002 79.4266 10.1239 79.4187 10.1457 79.4108C11.5079 78.963 12.7851 78.2245 12.8424 78.1929C12.7861 78.2571 10.6973 80.6584 12.1811 82.1056C13.6728 83.5627 18.493 77.4475 18.5692 77.3516C18.5504 77.4317 17.6577 81.3296 20.1341 81.5164C22.6163 81.7033 26.2671 74.8051 26.3234 74.6983C26.2898 74.8011 24.8248 79.2062 26.8948 78.9373V78.9373Z" fill="url(#paint13_linear)"/>
<path d="M32.2597 68.936C32.3813 68.6108 32.6373 68.3617 32.9596 68.2589L32.9655 68.2579L33.8701 67.9702C34.0925 67.897 34.3169 67.8278 34.5413 67.7606C34.6303 67.4285 34.6748 67.2387 34.6748 67.2387C34.6748 67.2387 34.6016 67.1645 34.4632 67.036C34.3782 66.9559 34.2675 66.8551 34.135 66.7384C33.9452 66.778 33.7564 66.8185 33.5666 66.8591C33.3194 66.9184 33.0713 66.9727 32.8242 67.0301C32.5484 67.0933 32.2567 67.0459 32.0076 66.8956C28.8136 64.9699 25.6848 65.823 27.3822 65.9595C28.5635 66.0544 30.3033 66.8324 31.4036 67.382C30.8817 67.5174 30.3617 67.6588 29.8417 67.8021C29.2278 67.9821 28.6159 68.1728 28.003 68.3597C27.6965 68.4496 27.395 68.5554 27.0915 68.6602L26.7949 68.762C26.3096 68.9281 25.7757 68.9103 25.2953 68.7027C21.4043 67.0222 17.7605 67.8249 19.8404 67.9544C21.3608 68.0503 23.6049 68.848 24.9938 69.3977L24.3789 69.632L23.4853 69.9829L23.0384 70.1589C22.8892 70.2162 22.7399 70.2755 22.5946 70.3417C22.3385 70.4525 21.9184 70.6383 21.5091 70.8182C20.8161 71.1237 20.047 71.2117 19.2928 71.0772C14.7039 70.2567 10.809 71.9788 13.0935 71.6051C14.8838 71.3115 17.7585 71.6358 19.2878 71.8493L19.1 71.9432C18.8133 72.0836 18.5286 72.2299 18.2429 72.3742C17.9582 72.5225 17.6676 72.657 17.3908 72.8201C16.8303 73.1324 16.2727 73.4498 15.7181 73.7691L15.3039 74.0113C15.1655 74.0923 15.0262 74.1704 14.8927 74.2604C14.6228 74.4344 14.352 74.6064 14.0841 74.7843C14.0485 74.8081 14.0119 74.8298 13.9773 74.8535C13.8527 74.9346 13.8784 75.0947 13.9704 75.1709C14.0168 75.2114 14.0821 75.2272 14.1542 75.1975C14.1938 75.1807 14.2323 75.1649 14.2709 75.1491C14.5655 75.0265 14.8561 74.9 15.1487 74.7754C15.2941 74.7112 15.4414 74.6529 15.5896 74.5945L16.0335 74.4196C16.6227 74.1823 17.2099 73.9421 17.7941 73.6979C18.3793 73.4557 18.9764 73.2382 19.5627 73.0029C19.617 72.9792 19.6724 72.9575 19.7268 72.9357C18.7856 74.0301 16.6602 76.3878 15.0113 77.404C12.963 78.6644 17.4274 77.2696 20.3733 73.3143C20.7954 72.7469 21.3678 72.3199 22.0163 72.0648C22.3988 71.9145 22.8061 71.7544 23.1027 71.6397C23.6948 71.4203 24.2899 71.2087 24.8841 70.9932L25.7589 70.6699C25.1618 71.8622 23.769 74.4897 22.4967 75.7413C20.9595 77.2528 24.5114 75.2984 26.3125 71.2107C26.5518 70.665 26.9917 70.2429 27.5403 70.0501L27.5631 70.0422L28.0099 69.885C28.1582 69.8317 28.3104 69.7872 28.4587 69.7348C29.0578 69.5331 29.6578 69.3364 30.2559 69.1288C30.6928 68.9874 31.1308 68.849 31.5677 68.7067C31.0892 69.8405 30.3073 71.4875 29.5026 72.306C28.3509 73.4794 31.0299 72.2131 32.2597 68.936V68.936Z" fill="url(#paint14_linear)"/>
<path d="M116.799 73.86C113.453 78.698 102.26 76.6507 99.3779 76.0309C98.9429 75.937 98.6977 75.8747 98.6977 75.8747C98.6977 75.8747 98.6562 75.7462 98.59 75.5109C98.5495 75.3646 98.4981 75.1777 98.4417 74.9553C97.8486 72.6263 96.6277 66.426 99.3265 62.97C102.698 58.656 103.365 63.7905 103.365 63.7905C103.365 63.7905 104.428 56.2973 108.55 52.866C112.618 49.4802 111.809 55.9503 111.788 56.1183C111.846 55.9532 114.473 48.5321 119.018 48.3927C123.613 48.2484 119.946 53.5095 119.946 53.5095C119.946 53.5095 125.474 48.4026 128.339 50.617C128.729 50.9195 128.939 51.2625 129.007 51.6293C129.008 51.6342 129.009 51.6392 129.01 51.6431C129.015 51.6728 129.02 51.7034 129.023 51.7321C129.028 51.7677 129.03 51.8013 129.032 51.8369C129.034 51.8715 129.034 51.9071 129.034 51.9417C129.033 52.0109 129.027 52.083 129.017 52.1532C129.017 52.1582 129.015 52.1641 129.015 52.169C129.011 52.2017 129.005 52.2323 128.999 52.2639C128.989 52.3223 128.974 52.3806 128.959 52.4409C128.944 52.4903 128.929 52.5407 128.912 52.5921C128.899 52.6287 128.885 52.6653 128.872 52.7019C128.857 52.7394 128.842 52.777 128.825 52.8136C128.809 52.8502 128.792 52.8867 128.775 52.9253C128.74 52.9994 128.701 53.0736 128.659 53.1487C128.641 53.1813 128.623 53.213 128.604 53.2456C128.579 53.2881 128.553 53.3296 128.527 53.3711C128.504 53.4097 128.478 53.4472 128.454 53.4838C128.429 53.5214 128.403 53.559 128.377 53.5955C128.352 53.6331 128.324 53.6697 128.297 53.7072C128.162 53.8921 128.01 54.0779 127.851 54.2589C127.797 54.3221 127.74 54.3844 127.681 54.4477C127.639 54.4931 127.597 54.5366 127.554 54.5831C127.497 54.6414 127.44 54.6998 127.381 54.7591C127.375 54.767 127.368 54.7729 127.361 54.7798C127.339 54.8016 127.318 54.8233 127.295 54.8441C125.969 56.148 124.36 57.181 124.289 57.2275C124.396 57.2008 128.404 56.2211 129.191 58.7904C129.984 61.3755 120.073 63.2963 119.918 63.3269C120.021 63.3526 125.043 64.6397 123.787 67.6044C122.528 70.575 112.41 70.6838 112.255 70.6847C112.393 70.7065 118.339 71.6348 116.799 73.86V73.86Z" fill="url(#paint15_linear)"/>
<path d="M116.799 73.8599C113.453 78.6979 102.259 76.6506 99.3778 76.0308C98.9429 75.9369 98.6977 75.8746 98.6977 75.8746C98.6977 75.8746 98.6562 75.7461 98.59 75.5108C105.444 67.1783 113.586 60.9404 120.138 56.7312C123.731 54.4239 126.846 52.7275 129.008 51.6292C129.008 51.6342 129.009 51.6381 129.01 51.6431C129.015 51.6727 129.02 51.7024 129.023 51.732C129.028 51.7666 129.03 51.8012 129.033 51.8368C129.034 51.8714 129.034 51.907 129.034 51.9416C129.032 52.0118 129.028 52.083 129.018 52.1531C129.018 52.1581 129.016 52.164 129.016 52.169C129.011 52.2006 129.006 52.2322 129 52.2629C128.989 52.3222 128.974 52.3805 128.958 52.4408C128.945 52.4902 128.929 52.5397 128.912 52.5921C128.9 52.6286 128.885 52.6652 128.872 52.7018C128.857 52.7394 128.842 52.7769 128.826 52.8125C128.809 52.8491 128.793 52.8867 128.776 52.9252C128.741 52.9984 128.701 53.0735 128.66 53.1476C128.642 53.1812 128.623 53.2129 128.604 53.2455C128.58 53.288 128.553 53.3295 128.526 53.3711C128.504 53.4086 128.478 53.4472 128.454 53.4837C128.43 53.5213 128.403 53.5579 128.377 53.5955C128.353 53.633 128.325 53.6696 128.298 53.7072C128.162 53.891 128.011 54.0769 127.851 54.2588C127.797 54.322 127.74 54.3843 127.681 54.4476C127.639 54.4931 127.598 54.5366 127.555 54.582C127.497 54.6414 127.44 54.6997 127.381 54.759C127.375 54.7669 127.368 54.7728 127.361 54.7797C127.339 54.8015 127.317 54.8232 127.296 54.844C125.97 56.1469 124.36 57.181 124.29 57.2274C124.397 57.2007 128.404 56.2201 129.191 58.7903C129.984 61.3744 120.074 63.2962 119.918 63.3268C120.021 63.3525 125.044 64.6396 123.788 67.6033C122.529 70.5749 112.41 70.6837 112.255 70.6847C112.393 70.7064 118.339 71.6347 116.799 73.8599V73.8599Z" fill="url(#paint16_linear)"/>
<path d="M102.089 74.1002C101.642 74.0478 101.202 74.1942 100.892 74.5046L100.887 74.5115L100.019 75.3834C99.802 75.5959 99.5895 75.8124 99.3779 76.0309C98.943 75.937 98.6978 75.8747 98.6978 75.8747C98.6978 75.8747 98.6563 75.7462 98.5901 75.5109C98.5495 75.3646 98.4981 75.1778 98.4418 74.9553C98.6009 74.7596 98.7601 74.5668 98.9192 74.3721C99.1338 74.122 99.3443 73.8699 99.5579 73.6188C99.7941 73.339 99.9127 72.9743 99.887 72.5976C99.5658 67.7735 102.408 64.6753 101.558 66.7117C100.964 68.1303 100.827 70.5968 100.806 72.1903C101.274 71.6704 101.745 71.1553 102.218 70.6413C102.79 70.0402 103.375 69.4491 103.953 68.854C104.24 68.5534 104.541 68.2697 104.841 67.982L105.134 67.7003C105.615 67.2406 105.91 66.6149 105.957 65.9367C106.332 60.4552 109.422 56.7342 108.336 59.2086C107.543 61.0167 107.129 64.0763 106.937 66.003L107.572 65.4335L108.507 64.612L108.975 64.2028C109.131 64.0644 109.287 63.928 109.45 63.7995C109.729 63.5711 110.194 63.1974 110.644 62.8326C111.408 62.2158 111.966 61.3814 112.259 60.4334C114.04 54.6583 118.338 51.1934 116.549 53.6035C115.147 55.4916 113.814 58.997 113.152 60.8862L113.371 60.725C113.704 60.4779 114.042 60.2367 114.378 59.9935C114.716 59.7533 115.045 59.4992 115.397 59.2768C116.09 58.8161 116.786 58.3624 117.484 57.9136L118.01 57.5794C118.185 57.4687 118.358 57.3541 118.541 57.2532C118.902 57.0466 119.261 56.836 119.625 56.6334C119.673 56.6067 119.721 56.578 119.768 56.5513C119.936 56.4564 120.106 56.581 120.138 56.7313C120.156 56.8094 120.137 56.8944 120.06 56.9596C120.017 56.9952 119.976 57.0298 119.934 57.0654C119.618 57.3313 119.3 57.5923 118.982 57.8553C118.822 57.9848 118.667 58.1192 118.511 58.2556L118.046 58.6629C117.423 59.2007 116.798 59.7355 116.169 60.2624C115.543 60.7932 114.938 61.3518 114.318 61.8866C114.259 61.936 114.2 61.9864 114.143 62.0369C115.962 61.6029 119.942 60.555 122.092 59.259C124.762 57.6477 120.502 61.9617 114.194 63.0066C113.291 63.1559 112.459 63.5612 111.778 64.1583C111.378 64.5092 110.952 64.8839 110.645 65.1567C110.04 65.7084 109.442 66.2699 108.84 66.8244L107.949 67.641C109.677 67.6618 113.532 67.6173 115.73 66.8946C118.385 66.0217 114.022 68.9538 108.243 68.6009C107.471 68.5524 106.725 68.8075 106.176 69.3255L106.154 69.3472L105.707 69.7694C105.557 69.9078 105.415 70.057 105.267 70.1964C104.679 70.7678 104.095 71.3422 103.501 71.9076C103.078 72.3268 102.659 72.7499 102.235 73.168C103.825 73.2906 106.188 73.3677 107.609 72.9268C109.645 72.2961 106.594 74.6301 102.089 74.1002V74.1002Z" fill="url(#paint17_linear)"/>
<path d="M120.74 31.865C120.508 31.348 120.175 30.9081 119.775 30.5581C119.301 30.1449 119.034 29.5488 119.041 28.9201C119.046 28.3883 118.94 27.8475 118.708 27.3305C117.861 25.4384 115.678 24.5744 113.766 25.3761C112.32 25.9831 111.453 27.3691 111.43 28.8301C111.415 29.8553 110.819 30.7825 109.883 31.2007L108.05 32.0232L102.046 34.7121L104.14 39.385L110.143 36.6951L111.977 35.8736C112.912 35.4545 114.001 35.6265 114.776 36.2977C115.882 37.2537 117.493 37.5285 118.908 36.8533C120.779 35.9606 121.588 33.7571 120.74 31.865Z" fill="url(#paint18_linear)"/>
<path d="M107.63 32.21L102.046 34.712L104.14 39.3849L110.143 36.6951L111.506 36.0851L107.63 32.21Z" fill="url(#paint19_linear)"/>
<path d="M108.57 35.2201C108.203 35.1529 107.898 34.9156 107.749 34.5736C107.746 34.5667 107.743 34.5588 107.739 34.5519C107.711 34.4906 107.682 34.4303 107.65 34.3729C107.513 34.1268 107.486 33.8401 107.567 33.5712C107.761 32.9306 107.691 32.207 107.288 31.5733C106.736 30.7044 105.658 30.2803 104.662 30.5432C104.553 30.5719 104.448 30.6075 104.347 30.648C103.199 31.1206 101.92 31.167 100.706 30.9001C94.0317 29.4311 84.4209 30.7261 79.8498 32.7734C73.094 35.8004 70.07 43.7306 73.097 50.4864C76.1239 57.2432 84.0542 60.2662 90.81 57.2393C95.5007 55.1376 103.131 48.5489 106.346 42.4554C106.973 41.2671 107.978 40.3418 109.188 39.7586C109.28 39.7141 109.37 39.6637 109.459 39.6064C110.344 39.035 110.754 37.9209 110.453 36.9106C110.176 35.9853 109.424 35.3743 108.57 35.2201V35.2201Z" fill="url(#paint20_radial)"/>
<path d="M113.086 65.4049V71.3995C113.086 75.6276 110.024 79.2338 105.851 79.912C95.1814 81.6449 80.7158 82.7086 64.7862 82.7086C48.8566 82.7086 34.391 81.6449 23.7215 79.912C19.5488 79.2338 16.4862 75.6276 16.4862 71.3995C16.4862 69.799 16.59 68.2213 16.7936 66.6742C19.1069 48.9691 34.2486 35.3003 52.5834 35.3003H54.2106C56.5041 35.3003 58.7056 35.6848 60.7578 36.3946C67.6352 38.7701 74.8863 39.7953 82.1512 39.4048C82.5783 39.384 83.0113 39.3702 83.4462 39.3702H87.0525C101.43 39.3702 113.086 51.0263 113.086 65.4049V65.4049Z" fill="url(#paint21_radial)"/>
<path d="M84.6997 82.1283C92.6734 81.6468 99.8622 80.8847 105.854 79.9119C110.026 79.2338 113.086 75.6265 113.086 71.4004V65.4048C113.086 62.969 112.751 60.6123 112.125 58.3762H108.452C95.3336 58.3762 84.6997 69.0101 84.6997 82.1283V82.1283Z" fill="url(#paint22_linear)"/>
<path d="M129.019 48.7387C128.728 48.0902 128.311 47.5396 127.81 47.1006C127.216 46.5816 126.881 45.8353 126.889 45.0464C126.895 44.3791 126.762 43.701 126.472 43.0535C125.409 40.6799 122.672 39.5975 120.274 40.6028C118.462 41.363 117.374 43.1009 117.346 44.9337C117.326 46.2188 116.58 47.3814 115.406 47.9063L113.107 48.9374L105.579 52.3094L108.204 58.1685L115.732 54.7956L118.031 53.7655C119.204 53.2396 120.569 53.4561 121.54 54.2964C122.927 55.4955 124.948 55.8405 126.722 54.9943C129.069 53.8742 130.083 51.1112 129.019 48.7387Z" fill="url(#paint23_linear)"/>
<path d="M112.581 49.1717L105.579 52.3094L108.204 58.1676L115.732 54.7956L117.44 54.0305L112.581 49.1717Z" fill="url(#paint24_linear)"/>
<path d="M113.759 52.946C113.299 52.862 112.917 52.5644 112.73 52.1354C112.726 52.1265 112.721 52.1176 112.717 52.1077C112.683 52.0306 112.645 51.9565 112.606 51.8833C112.434 51.5749 112.399 51.216 112.502 50.878C112.744 50.0752 112.657 49.1677 112.152 48.3739C111.459 47.2836 110.108 46.7527 108.858 47.0819C108.722 47.1175 108.59 47.162 108.465 47.2134C107.023 47.8055 105.42 47.8638 103.898 47.5287C95.5284 45.686 83.4778 47.3102 77.7452 49.8785C69.2742 53.6736 65.4831 63.6175 69.2782 72.0895C73.0733 80.5604 83.0182 84.3515 91.4891 80.5565C97.371 77.921 106.939 69.6596 110.97 62.019C111.757 60.5283 113.016 59.3687 114.533 58.6362C114.649 58.5808 114.762 58.5175 114.873 58.4454C115.984 57.7287 116.498 56.3318 116.119 55.0665C115.773 53.9049 114.829 53.1398 113.759 52.946V52.946Z" fill="url(#paint25_radial)"/>
<path d="M81.4464 66.1027C81.4464 53.7991 68.6228 43.8255 52.8039 43.8255C36.9859 43.8255 24.1624 53.7991 24.1624 66.1027C24.1624 71.8195 26.9313 77.0322 31.4826 80.9755C40.9827 82.0689 52.445 82.7085 64.7862 82.7085C67.2289 82.7085 69.6361 82.6828 72.0017 82.6343C77.8016 78.5575 81.4464 72.6618 81.4464 66.1027Z" fill="url(#paint26_linear)"/>
<path d="M57.1238 65.5175C48.3681 58.0835 40.434 57.6723 36.7269 58.0104C35.2816 58.1428 34.5422 59.7927 35.3903 60.9711C35.6355 61.3121 35.9271 61.6334 36.2553 61.9369L41.8436 67.5252C41.8743 67.5589 41.9059 67.5915 41.9376 67.6241C32.5176 70.3792 30.0017 77.9674 29.3888 80.7235C29.3898 80.7235 29.3918 80.7235 29.3927 80.7245C29.5499 80.7443 29.7101 80.763 29.8682 80.7828C29.8682 80.7828 29.8682 80.7838 29.8673 80.7838C39.6698 81.9948 51.7362 82.7085 64.7861 82.7085C67.9871 82.7085 71.1277 82.665 74.1913 82.582L57.1238 65.5175Z" fill="url(#paint27_linear)"/>
<path d="M29.3888 80.7235C34.7023 81.3938 40.6969 81.9167 47.166 82.2568C52.5646 79.6875 56.1975 74.5599 58.1173 71.1879C59.1879 69.3067 58.7737 66.9193 57.1238 65.5175C48.3681 58.0826 40.434 57.6723 36.7269 58.0104C35.2816 58.1419 34.5422 59.7928 35.3903 60.9702C38.612 65.4454 49.6513 66.6069 49.6513 66.6069C33.7839 66.6069 30.1441 77.3298 29.3888 80.7235Z" fill="url(#paint28_radial)"/>
<path d="M52.8029 43.8256C55.642 43.8256 58.3843 44.1479 60.9733 44.747C58.7511 41.1051 55.7063 37.8962 52.0526 35.3062C33.958 35.5672 19.0841 49.1401 16.7936 66.6742C16.589 68.2213 16.4862 69.799 16.4862 71.3995C16.4862 75.6276 19.5488 79.2338 23.7215 79.912C26.1237 80.3024 28.7206 80.6583 31.4807 80.9757C26.9303 77.0303 24.1624 71.8186 24.1624 66.1028C24.1624 53.7992 36.9869 43.8256 52.8029 43.8256Z" fill="url(#paint29_radial)"/>
<path d="M114.388 76.9898C114.388 80.4478 111.586 83.2503 108.129 83.2503C104.671 83.2503 101.868 80.4478 101.868 76.9898C101.868 73.5328 104.671 70.7302 108.129 70.7302C111.586 70.7302 114.388 73.5328 114.388 76.9898Z" fill="url(#paint30_radial)"/>
<path d="M112.908 75.8696C112.908 73.3607 110.627 71.3272 107.812 71.3272C104.998 71.3272 102.715 73.3607 102.715 75.8696C102.715 78.3776 104.998 80.4121 107.812 80.4121C110.627 80.4121 112.908 78.3776 112.908 75.8696V75.8696Z" fill="url(#paint31_linear)"/>
<path d="M84.6938 89.4298C78.4867 92.2432 68.6268 85.2581 66.1455 83.3768C65.7698 83.0911 65.5642 82.9241 65.5642 82.9241C65.5642 82.9241 65.6008 82.7886 65.6759 82.5464C65.7224 82.3962 65.7837 82.2054 65.8618 81.978C66.6665 79.6104 69.1655 73.4735 73.9057 71.6041C79.8232 69.2731 77.4141 74.1981 77.4141 74.1981C77.4141 74.1981 82.948 67.9464 89.08 66.7542C95.134 65.5778 90.463 71.0268 90.3424 71.1671C90.4976 71.0456 97.5382 65.5778 102.121 67.5401C106.758 69.5222 99.9799 72.5689 99.9799 72.5689C99.9799 72.5689 108.508 70.5157 110.021 73.8254C110.226 74.2762 110.229 74.6815 110.078 75.0433C110.076 75.0472 110.074 75.0522 110.072 75.0561C110.059 75.0858 110.045 75.1145 110.032 75.1421C110.015 75.1758 109.997 75.2074 109.978 75.241C109.959 75.2726 109.938 75.3043 109.917 75.3359C109.874 75.3982 109.827 75.4595 109.775 75.5188C109.772 75.5237 109.766 75.5277 109.763 75.5326C109.739 75.5583 109.715 75.585 109.691 75.6097C109.645 75.6572 109.597 75.7036 109.544 75.7501C109.501 75.7877 109.455 75.8262 109.408 75.8648C109.374 75.8925 109.338 75.9192 109.302 75.9449C109.264 75.9715 109.228 75.9992 109.19 76.0239C109.153 76.0496 109.114 76.0753 109.074 76.102C108.995 76.1524 108.912 76.2009 108.826 76.2493C108.788 76.2711 108.751 76.2908 108.712 76.3106C108.662 76.3383 108.612 76.364 108.561 76.3887C108.514 76.4124 108.468 76.4352 108.421 76.4569C108.374 76.4797 108.326 76.5004 108.279 76.5222C108.231 76.5439 108.182 76.5647 108.133 76.5864C107.887 76.6892 107.627 76.7871 107.36 76.8771C107.269 76.9087 107.176 76.9384 107.08 76.969C107.011 76.9898 106.943 77.0105 106.873 77.0323C106.781 77.059 106.689 77.0847 106.596 77.1104C106.584 77.1143 106.575 77.1173 106.564 77.1202C106.53 77.1301 106.495 77.14 106.46 77.1479C104.368 77.7114 102.156 77.9012 102.058 77.9101C102.18 77.9358 106.735 78.8957 105.977 81.5688C105.216 84.2576 94.2542 81.4323 94.0812 81.3879C94.1682 81.458 98.3715 84.9239 95.3554 87.0137C92.3314 89.1075 82.2471 84.5552 82.0929 84.485C82.2175 84.5681 87.5498 88.1358 84.6938 89.4298V89.4298Z" fill="url(#paint32_linear)"/>
<path d="M84.6938 89.4297C78.4867 92.2432 68.6268 85.258 66.1455 83.3768C65.7698 83.0911 65.5642 82.924 65.5642 82.924C65.5642 82.924 65.6008 82.7886 65.6759 82.5464C77.4447 78.2007 89.2392 76.3313 98.244 75.5563C103.182 75.1312 107.28 75.0373 110.078 75.0432C110.076 75.0472 110.074 75.0521 110.072 75.0561C110.059 75.0857 110.045 75.1144 110.032 75.1421C110.015 75.1757 109.997 75.2073 109.978 75.2409C109.959 75.2726 109.938 75.3042 109.917 75.3358C109.873 75.3981 109.827 75.4594 109.775 75.5187C109.772 75.5237 109.766 75.5276 109.763 75.5326C109.739 75.5583 109.715 75.585 109.691 75.6097C109.645 75.6571 109.597 75.7036 109.544 75.75C109.501 75.7876 109.455 75.8262 109.408 75.8647C109.374 75.8924 109.338 75.9191 109.302 75.9448C109.264 75.9715 109.228 75.9992 109.19 76.0239C109.153 76.0496 109.114 76.0753 109.074 76.102C108.995 76.1524 108.912 76.2008 108.826 76.2493C108.788 76.271 108.751 76.2908 108.712 76.3106C108.662 76.3382 108.612 76.3639 108.561 76.3887C108.514 76.4124 108.468 76.4351 108.421 76.4569C108.374 76.4796 108.326 76.5004 108.279 76.5221C108.231 76.5439 108.182 76.5646 108.133 76.5864C107.887 76.6892 107.627 76.787 107.36 76.877C107.269 76.9086 107.176 76.9383 107.08 76.9689C107.011 76.9897 106.943 77.0105 106.873 77.0322C106.781 77.0589 106.689 77.0846 106.596 77.1103C106.584 77.1143 106.575 77.1172 106.564 77.1202C106.53 77.1301 106.495 77.14 106.46 77.1479C104.368 77.7113 102.156 77.9012 102.058 77.91C102.18 77.9358 106.735 78.8956 105.977 81.5687C105.216 84.2576 94.2542 81.4323 94.0812 81.3878C94.1682 81.458 98.3715 84.9239 95.3554 87.0137C92.3314 89.1075 82.2471 84.5551 82.0929 84.485C82.2175 84.568 87.5498 88.1357 84.6938 89.4297V89.4297Z" fill="url(#paint33_linear)"/>
<path d="M69.9841 82.8855C69.5728 82.6324 69.0499 82.5632 68.5576 82.6997L68.5487 82.7026L67.1677 83.0882C66.8256 83.1801 66.4855 83.277 66.1455 83.3768C65.7698 83.0911 65.5642 82.9241 65.5642 82.9241C65.5642 82.9241 65.6008 82.7886 65.6759 82.5464C65.7224 82.3962 65.7847 82.2054 65.8618 81.978C66.1356 81.8762 66.4084 81.7754 66.6833 81.6745C67.0451 81.547 67.4039 81.4175 67.7657 81.289C68.1671 81.1457 68.5022 80.8728 68.7019 80.5229C71.2692 76.0358 75.9362 74.5549 73.876 75.9953C72.4406 76.9987 70.8293 79.1547 69.8565 80.5782C70.6296 80.3252 71.4046 80.078 72.1806 79.8338C73.1069 79.5561 74.0381 79.2921 74.9674 79.0222C75.431 78.8848 75.8996 78.7672 76.3682 78.6466L76.8278 78.5289C77.5782 78.3352 78.2454 77.9081 78.6962 77.3199C82.347 72.562 87.6308 70.6343 85.0764 72.3613C83.21 73.6227 80.9699 76.1851 79.6284 77.83L80.5972 77.6096L82.0138 77.3002L82.7226 77.1469C82.9589 77.0945 83.1961 77.0431 83.4334 77.0026C83.8466 76.9255 84.5307 76.8029 85.194 76.6813C86.32 76.4777 87.3708 75.9834 88.2279 75.2647C93.4455 70.8894 99.7733 69.7466 96.5615 71.093C94.0446 72.1478 90.6271 74.6874 88.8418 76.0832L89.1552 76.0388C89.6327 75.9686 90.1111 75.9073 90.5896 75.843C91.069 75.7827 91.5455 75.7046 92.0279 75.6671C92.9888 75.5712 93.9497 75.4832 94.9096 75.3992L95.6302 75.3408C95.8705 75.3211 96.1087 75.2983 96.3509 75.2914C96.8323 75.2716 97.3128 75.2469 97.7942 75.2321C97.8584 75.2301 97.9227 75.2262 97.986 75.2242C98.2094 75.2163 98.3023 75.4061 98.244 75.5563C98.2163 75.6344 98.1451 75.7027 98.0305 75.7254C97.9672 75.7382 97.9049 75.7511 97.8426 75.763C97.3701 75.8569 96.8995 75.9458 96.427 76.0358C96.1917 76.0783 95.9575 76.1287 95.7222 76.1801L95.0173 76.3324C94.0792 76.5301 93.1401 76.7238 92.2019 76.9087C91.2648 77.0975 90.3316 77.3229 89.3974 77.5196C89.3094 77.5364 89.2224 77.5552 89.1344 77.574C91.1966 78.0198 95.7637 78.9056 98.6681 78.7276C102.274 78.5052 95.477 80.428 88.6065 78.4696C87.6219 78.1889 86.5553 78.1711 85.5252 78.3955C84.9192 78.528 84.2727 78.6683 83.8051 78.7721C82.8759 78.9906 81.9486 79.2209 81.0213 79.4443L79.6502 79.7686C81.3485 80.5802 85.193 82.3131 87.8009 82.673C90.9524 83.107 84.8797 83.7406 79.3675 80.767C78.632 80.3686 77.7403 80.255 76.8872 80.4685L76.8516 80.4774L76.1576 80.6514C75.9263 80.7077 75.6969 80.7769 75.4666 80.8343C74.5423 81.0774 73.621 81.3266 72.6947 81.5609C72.0254 81.7447 71.3562 81.9316 70.6859 82.1135C72.1895 82.9547 74.482 84.1103 76.1527 84.3664C78.546 84.7351 74.1291 85.432 69.9841 82.8855V82.8855Z" fill="url(#paint34_linear)"/>
<path d="M29.8209 77.1894C29.8209 80.6464 27.0183 83.4489 23.5613 83.4489C20.1033 83.4489 17.3008 80.6464 17.3008 77.1894C17.3008 73.7324 20.1033 70.9298 23.5613 70.9298C27.0183 70.9298 29.8209 73.7324 29.8209 77.1894Z" fill="url(#paint35_radial)"/>
<path d="M28.341 76.0684C28.341 73.5595 26.0594 71.526 23.245 71.526C20.4295 71.526 18.1479 73.5595 18.1479 76.0684C18.1479 78.5774 20.4295 80.6109 23.245 80.6109C26.0594 80.6109 28.341 78.5774 28.341 76.0684V76.0684Z" fill="url(#paint36_linear)"/>
<path d="M41.5699 79.4463C41.5699 82.9033 38.7673 85.7059 35.3103 85.7059C31.8524 85.7059 29.0498 82.9033 29.0498 79.4463C29.0498 75.9893 31.8524 73.1868 35.3103 73.1868C38.7673 73.1868 41.5699 75.9893 41.5699 79.4463Z" fill="url(#paint37_radial)"/>
<path d="M40.09 78.3253C40.09 75.8163 37.8084 73.7828 34.994 73.7828C32.1796 73.7828 29.897 75.8163 29.897 78.3253C29.897 80.8342 32.1796 82.8677 34.994 82.8677C37.8084 82.8677 40.09 80.8342 40.09 78.3253Z" fill="url(#paint38_linear)"/>
<path d="M54.182 80.3755C54.182 83.8325 51.3794 86.6351 47.9224 86.6351C44.4654 86.6351 41.6628 83.8325 41.6628 80.3755C41.6628 76.9185 44.4654 74.116 47.9224 74.116C51.3794 74.116 54.182 76.9185 54.182 80.3755Z" fill="url(#paint39_radial)"/>
<path d="M52.7019 79.2545C52.7019 76.7456 50.4203 74.7121 47.6059 74.7121C44.7915 74.7121 42.5089 76.7456 42.5089 79.2545C42.5089 81.7635 44.7915 83.797 47.6059 83.797C50.4203 83.797 52.7019 81.7635 52.7019 79.2545Z" fill="url(#paint40_linear)"/>
<path d="M66.5952 80.4418C66.5952 83.8988 63.7926 86.7014 60.3346 86.7014C56.8776 86.7014 54.0751 83.8988 54.0751 80.4418C54.0751 76.9848 56.8776 74.1823 60.3346 74.1823C63.7926 74.1823 66.5952 76.9848 66.5952 80.4418Z" fill="url(#paint41_radial)"/>
<path d="M65.1154 79.3207C65.1154 76.8118 62.8338 74.7783 60.0194 74.7783C57.204 74.7783 54.9224 76.8118 54.9224 79.3207C54.9224 81.8297 57.204 83.8632 60.0194 83.8632C62.8338 83.8632 65.1154 81.8297 65.1154 79.3207V79.3207Z" fill="url(#paint42_linear)"/>
<path d="M53.5511 43.3501C53.3554 43.4578 53.1083 43.3975 52.9847 43.2117C51.9882 41.714 51.0105 40.2065 50.022 38.7048L48.8416 36.8839C48.7754 36.7781 48.7131 36.6921 48.6429 36.5695L48.4334 36.2048C47.8837 35.2212 47.598 34.0823 47.5526 32.9297C47.516 31.7741 47.7601 30.5977 48.2613 29.5231C48.4007 29.2621 48.5223 28.9883 48.6914 28.7421L48.9247 28.3803C48.9316 28.3704 48.9385 28.3606 48.9454 28.3507L49.2094 28.0096C49.3863 27.7654 49.6048 27.5588 49.8094 27.3354C49.9142 27.2267 50.0309 27.1318 50.1426 27.03L50.3126 26.8807L50.3986 26.8056L50.4688 26.7472L52.695 24.9016L53.8091 23.9793L54.0869 23.7479L54.3153 23.5384C54.4626 23.399 54.6178 23.2695 54.7572 23.1251C57.0526 20.8485 58.0342 17.521 57.4895 14.5632C57.4411 14.1965 57.3334 13.8426 57.2464 13.4867C57.2434 13.4738 57.2394 13.462 57.2355 13.4501C57.1099 13.1031 57.014 12.7502 56.848 12.422C56.7728 12.2589 56.7066 12.0928 56.6295 11.9327C56.6236 11.9208 56.6176 11.909 56.6117 11.8981L56.3487 11.4335L56.2262 11.213C56.2183 11.2002 56.2103 11.1873 56.2015 11.1754L56.0561 10.9688L55.7606 10.5339C55.7526 10.522 55.7437 10.5111 55.7349 10.4993L55.3987 10.0969L55.2426 9.90416C55.2327 9.89131 55.2228 9.88044 55.2109 9.86956L55.034 9.69459L54.6692 9.32289C54.6593 9.313 54.6494 9.30312 54.6376 9.29422L54.2382 8.96108L54.0503 8.80192C54.0395 8.79203 54.0276 8.78314 54.0157 8.77424L53.8111 8.63485L53.388 8.33828C53.3771 8.33038 53.3653 8.32346 53.3544 8.31654L52.9056 8.06149C52.8275 8.01799 52.7543 7.96758 52.6733 7.92902L52.4301 7.81929C51.8034 7.49702 51.1193 7.31513 50.4471 7.16684C50.4342 7.16388 50.4213 7.16091 50.4085 7.15992C50.0674 7.11741 49.7343 7.04723 49.3932 7.05217C49.2203 7.0492 49.0492 7.03042 48.8782 7.03438L48.3651 7.06304C48.1951 7.06107 48.0251 7.09072 47.857 7.12038C47.6959 7.14707 47.5348 7.16585 47.3756 7.19353C47.3618 7.1965 47.3489 7.19947 47.3351 7.20243L46.8625 7.32402L46.6184 7.38334L46.2694 7.47626L44.8706 7.84499L44.1707 8.02887L43.9967 8.07533C43.9473 8.09016 43.9285 8.10103 43.8929 8.11388L43.7061 8.18506C42.7165 8.5617 41.9 9.20624 41.292 10.008C40.9895 10.4103 40.7394 10.8502 40.5536 11.3188C40.4537 11.5521 40.3875 11.7973 40.3222 12.0444C40.3015 12.1709 40.254 12.2945 40.2422 12.424L40.2165 12.6178L40.2016 12.7156L40.1937 12.7651C40.1908 12.7828 40.1908 12.8214 40.1888 12.8491L40.1028 14.2924L40.0781 14.6532L40.0701 14.7639L40.0613 14.8351C40.0385 14.931 40.0464 15.0239 40.0355 15.1218C40.0187 15.5083 40.1018 15.9106 40.2669 16.312C40.6139 17.1009 41.3493 17.8403 42.4269 18.1211C42.9518 18.2634 43.541 18.3059 44.1549 18.1893C44.7618 18.0667 45.3906 17.8047 45.96 17.3816C46.5383 16.9654 47.0276 16.3743 47.4053 15.6526C47.4517 15.5587 47.5002 15.4747 47.5476 15.3699L47.685 15.0249L47.9677 14.3349C48.122 13.9721 48.2752 13.6103 48.4393 13.2494C48.5184 13.0774 48.7022 12.9786 48.8891 13.0043L49.0453 13.025C49.2321 13.0507 49.3824 13.1951 49.412 13.3819C49.4743 13.7734 49.5247 14.1639 49.5761 14.5543L49.6641 15.2938L49.7046 15.6635C49.7126 15.796 49.7126 15.9472 49.7155 16.0916C49.7313 17.2541 49.4437 18.4829 48.8367 19.5841C48.2297 20.6844 47.3331 21.67 46.217 22.4035C45.9353 22.5785 45.6446 22.7535 45.3411 22.9027L44.8755 23.1074L44.6393 23.2072L44.3961 23.2892C44.0708 23.397 43.7407 23.5038 43.3996 23.567C43.2296 23.6026 43.0586 23.6422 42.8856 23.6679L42.3646 23.7213C39.5798 24.0139 36.54 22.7782 34.6182 20.457C33.6574 19.3024 32.9496 17.8927 32.6194 16.3802C32.5413 16.0016 32.4701 15.62 32.4405 15.2335L32.3653 14.3329L32.2635 12.8906L32.2595 12.7947L32.2586 12.6632L32.2576 12.4003L32.2605 11.8734C32.2635 11.5224 32.311 11.1715 32.3416 10.8196C32.4266 10.1177 32.5779 9.42273 32.7864 8.74359C33.2066 7.38729 33.8709 6.10513 34.7398 4.98213C35.6058 3.85616 36.6764 2.89034 37.8785 2.14101C39.0806 1.39069 40.4152 0.862803 41.7833 0.578098L42.2984 0.483196L42.5465 0.440688L42.7264 0.41894L43.4451 0.333924L44.8815 0.16488L45.2413 0.123361L45.7119 0.079864L46.6332 0.00572216C46.6431 0.00473359 46.653 0.00374505 46.6619 0.00374505C46.9703 -0.00416342 47.2797 0.0027565 47.5872 0.00374505C47.8995 0.00671074 48.2099 0.00769928 48.5213 0.0452646L49.4496 0.136212C49.757 0.174766 50.0615 0.241988 50.366 0.297347C50.9779 0.392249 51.5661 0.593915 52.1582 0.753073C52.4518 0.84402 52.7366 0.961659 53.0242 1.06645C53.3119 1.17321 53.5976 1.28195 53.8714 1.41837L54.6969 1.81182C54.9667 1.95318 55.2267 2.11333 55.4887 2.26557L55.8812 2.49689C56.0097 2.57696 56.1313 2.6689 56.2568 2.7549L56.9834 3.27192C56.9923 3.27884 57.0012 3.28477 57.0091 3.29169C57.2404 3.47853 57.4648 3.67328 57.6912 3.86506L58.0224 4.14976C58.0303 4.15668 58.0382 4.16459 58.0451 4.17151L58.3545 4.48093L58.9734 5.11361C58.9823 5.1225 58.9902 5.1314 58.9971 5.1403L59.5616 5.8224L59.8344 6.1595C59.8413 6.1684 59.8482 6.1773 59.8542 6.18619L60.1003 6.54306L60.5926 7.27361C60.5996 7.28349 60.6055 7.29437 60.6114 7.30425L61.0385 8.07335L61.2431 8.45197C61.248 8.46185 61.254 8.47174 61.2579 8.48163L61.4329 8.87507L61.7799 9.68075C61.7838 9.68964 61.7878 9.69854 61.7908 9.70843C61.8916 9.98226 61.9776 10.261 62.0695 10.5368C62.2682 11.0894 62.3799 11.6678 62.5104 12.2362C62.5124 12.2451 62.5144 12.255 62.5164 12.2639C62.6063 12.8431 62.7052 13.4175 62.7299 14.0017C62.804 15.1732 62.7447 16.3496 62.5272 17.4914C62.3127 18.6312 61.9944 19.7502 61.509 20.7941C61.0286 21.8361 60.4503 22.8296 59.7444 23.7213C59.0357 24.609 58.2408 25.4206 57.3581 26.1146C57.1386 26.2885 56.9043 26.4428 56.6769 26.6059L56.3379 26.8421L56.0324 27.0359L54.8125 27.8109L52.3708 29.361L52.2957 29.4094L52.2403 29.447L52.1296 29.5231C52.0564 29.5745 51.9754 29.619 51.9062 29.6763C51.7727 29.795 51.6165 29.8948 51.4949 30.0302L51.314 30.2062C51.3041 30.2161 51.2942 30.227 51.2853 30.2378L51.1222 30.4316C50.9987 30.5611 50.9117 30.7163 50.8039 30.8596C50.796 30.8705 50.7891 30.8814 50.7822 30.8923C50.5953 31.2037 50.4174 31.5309 50.3007 31.8838C50.1633 32.2387 50.0872 32.6163 50.0358 32.9989C49.9597 33.765 50.0289 34.5717 50.3215 35.323L50.4322 35.6047C50.4668 35.6976 50.5291 35.8182 50.5766 35.924L50.882 36.5794L51.492 37.8913C52.2393 39.5273 52.9956 41.1565 53.736 42.7965C53.8269 43.0001 53.7469 43.2413 53.5511 43.3501V43.3501Z" fill="url(#paint43_linear)"/>
<path d="M59.5755 38.3777C59.2532 36.8464 59.1889 35.2331 59.3511 33.6237C59.3807 33.2194 59.4608 32.822 59.5201 32.4177C59.6091 32.0222 59.6822 31.6169 59.7929 31.2235C59.9027 30.8291 60.0085 30.4297 60.1518 30.0422C60.221 29.8484 60.2823 29.6487 60.3584 29.4569L60.5947 28.8806C61.2432 27.3473 62.1526 25.909 63.2549 24.611C63.5228 24.2798 63.8302 23.9843 64.1238 23.6719L64.9463 22.8464L65.3556 22.4421C65.5553 22.2691 65.7559 22.0922 65.9675 21.9271C66.1879 21.7758 66.4064 21.6147 66.6397 21.4803C66.8789 21.3547 67.1122 21.2094 67.3653 21.1095C68.3628 20.6736 69.463 20.4363 70.5841 20.4472C70.8648 20.4413 71.1436 20.4798 71.4263 20.5006C71.7071 20.5342 71.9848 20.5935 72.2666 20.6489C72.5404 20.727 72.8192 20.8021 73.0901 20.9029C73.355 21.0146 73.6328 21.1105 73.8868 21.2539C74.9258 21.7897 75.8333 22.6072 76.4689 23.5938C77.1125 24.5794 77.4881 25.7528 77.5455 26.9203C77.6058 28.0888 77.3537 29.2464 76.8614 30.2557C76.3681 31.265 75.6257 32.13 74.7449 32.731C74.5314 32.8882 74.2882 33.0059 74.0638 33.1334C73.8295 33.249 73.5883 33.3449 73.351 33.4359C72.9566 33.5506 72.575 33.6375 72.1796 33.7285C71.3887 33.8975 70.585 34.0468 69.728 34.1051L69.4551 33.6534C69.9069 32.9218 70.413 32.2803 70.932 31.6604C71.19 31.355 71.4658 31.0495 71.7229 30.7648C71.799 30.6363 71.883 30.5305 71.9532 30.4139C72.0145 30.2883 72.0817 30.1786 72.1341 30.0609C72.3447 29.5914 72.4406 29.1317 72.4574 28.6997C72.4722 28.2697 72.4178 27.8693 72.2962 27.5184C72.1756 27.1655 72.0204 26.8639 71.8356 26.5654C71.6468 26.2659 71.4382 25.9841 71.1713 25.7231C70.6572 25.1844 69.7428 24.8433 68.8699 25.0598C68.7572 25.0756 68.6593 25.128 68.5476 25.1557C68.4409 25.1923 68.342 25.2496 68.2333 25.2902C68.1324 25.3475 68.0346 25.4098 67.9288 25.4661L67.4642 25.8052L66.5448 26.4715C66.2769 26.6791 65.9902 26.8689 65.7372 27.0982L65.3407 27.4254L64.9631 27.7764C64.7021 28.0047 64.4748 28.2628 64.2306 28.5119C63.9904 28.763 63.7719 29.0338 63.5425 29.2998C63.3369 29.5805 63.1036 29.8494 62.9148 30.146C61.2778 32.4552 60.306 35.3082 60.1034 38.3431L59.5755 38.3777Z" fill="url(#paint44_linear)"/>
<defs>
<linearGradient id="paint0_linear" x1="52.7242" y1="67.8349" x2="74.1601" y2="109.895" gradientUnits="userSpaceOnUse">
<stop stop-color="#F2E9DC"/>
<stop offset="0.2282" stop-color="#F0E4D7"/>
<stop offset="0.5158" stop-color="#EAD7C7"/>
<stop offset="0.8338" stop-color="#E0C2AD"/>
<stop offset="1" stop-color="#DAB49D"/>
</linearGradient>
<linearGradient id="paint1_linear" x1="63.8459" y1="67.9136" x2="65.3869" y2="92.1063" gradientUnits="userSpaceOnUse">
<stop stop-color="#F2E9DC"/>
<stop offset="0.2282" stop-color="#F0E4D7"/>
<stop offset="0.5158" stop-color="#EAD7C7"/>
<stop offset="0.8338" stop-color="#E0C2AD"/>
<stop offset="1" stop-color="#DAB49D"/>
</linearGradient>
<linearGradient id="paint2_linear" x1="60.214" y1="65.877" x2="72.8041" y2="109.438" gradientUnits="userSpaceOnUse">
<stop stop-color="#F2E9DC"/>
<stop offset="0.2282" stop-color="#F0E4D7"/>
<stop offset="0.5158" stop-color="#EAD7C7"/>
<stop offset="0.8338" stop-color="#E0C2AD"/>
<stop offset="1" stop-color="#DAB49D"/>
</linearGradient>
<linearGradient id="paint3_linear" x1="96.8463" y1="81.1267" x2="7.24346" y2="81.1267" gradientUnits="userSpaceOnUse">
<stop stop-color="#F2E9DC"/>
<stop offset="0.2282" stop-color="#F0E4D7"/>
<stop offset="0.5158" stop-color="#EAD7C7"/>
<stop offset="0.8338" stop-color="#E0C2AD"/>
<stop offset="1" stop-color="#DAB49D"/>
</linearGradient>
<linearGradient id="paint4_linear" x1="71.6802" y1="86.9391" x2="45.1285" y2="36.7563" gradientUnits="userSpaceOnUse">
<stop stop-color="#DAB49D" stop-opacity="0"/>
<stop offset="0.2386" stop-color="#D6AC90" stop-opacity="0.239216"/>
<stop offset="0.6758" stop-color="#CA976F" stop-opacity="0.67451"/>
<stop offset="1" stop-color="#C08552"/>
</linearGradient>
<linearGradient id="paint5_linear" x1="33.2466" y1="89.4935" x2="25.8564" y2="77.8107" gradientUnits="userSpaceOnUse">
<stop stop-color="#DAB49D" stop-opacity="0"/>
<stop offset="0.2386" stop-color="#D6AC90" stop-opacity="0.239216"/>
<stop offset="0.6758" stop-color="#CA976F" stop-opacity="0.67451"/>
<stop offset="1" stop-color="#C08552"/>
</linearGradient>
<linearGradient id="paint6_linear" x1="43.7147" y1="89.6902" x2="36.3244" y2="78.0075" gradientUnits="userSpaceOnUse">
<stop stop-color="#DAB49D" stop-opacity="0"/>
<stop offset="0.2386" stop-color="#D6AC90" stop-opacity="0.239216"/>
<stop offset="0.6758" stop-color="#CA976F" stop-opacity="0.67451"/>
<stop offset="1" stop-color="#C08552"/>
</linearGradient>
<linearGradient id="paint7_linear" x1="55.3794" y1="89.1219" x2="47.9891" y2="77.4391" gradientUnits="userSpaceOnUse">
<stop stop-color="#DAB49D" stop-opacity="0"/>
<stop offset="0.2386" stop-color="#D6AC90" stop-opacity="0.239216"/>
<stop offset="0.6758" stop-color="#CA976F" stop-opacity="0.67451"/>
<stop offset="1" stop-color="#C08552"/>
</linearGradient>
<linearGradient id="paint8_linear" x1="67.8756" y1="89.3514" x2="60.4854" y2="77.6686" gradientUnits="userSpaceOnUse">
<stop stop-color="#DAB49D" stop-opacity="0"/>
<stop offset="0.2386" stop-color="#D6AC90" stop-opacity="0.239216"/>
<stop offset="0.6758" stop-color="#CA976F" stop-opacity="0.67451"/>
<stop offset="1" stop-color="#C08552"/>
</linearGradient>
<linearGradient id="paint9_linear" x1="25.814" y1="57.7107" x2="11.2499" y2="73.325" gradientUnits="userSpaceOnUse">
<stop stop-color="#ACC130"/>
<stop offset="1" stop-color="#97A03B"/>
</linearGradient>
<linearGradient id="paint10_linear" x1="13.6003" y1="70.9733" x2="20.2546" y2="63.8391" gradientUnits="userSpaceOnUse">
<stop stop-color="#97A03B" stop-opacity="0"/>
<stop offset="1" stop-color="#575C55"/>
</linearGradient>
<linearGradient id="paint11_linear" x1="24.325" y1="64.5735" x2="20.4762" y2="71.9291" gradientUnits="userSpaceOnUse">
<stop stop-color="#97A03B"/>
<stop offset="1" stop-color="#6C7D47"/>
</linearGradient>
<linearGradient id="paint12_linear" x1="17.9081" y1="64.9595" x2="23.4641" y2="80.4661" gradientUnits="userSpaceOnUse">
<stop stop-color="#ACC130"/>
<stop offset="1" stop-color="#97A03B"/>
</linearGradient>
<linearGradient id="paint13_linear" x1="22.6836" y1="78.023" x2="20.145" y2="70.9381" gradientUnits="userSpaceOnUse">
<stop stop-color="#97A03B" stop-opacity="0"/>
<stop offset="1" stop-color="#575C55"/>
</linearGradient>
<linearGradient id="paint14_linear" x1="22.0872" y1="68.407" x2="25.7696" y2="73.6468" gradientUnits="userSpaceOnUse">
<stop stop-color="#97A03B"/>
<stop offset="1" stop-color="#6C7D47"/>
</linearGradient>
<linearGradient id="paint15_linear" x1="106.015" y1="55.1913" x2="120.579" y2="70.8056" gradientUnits="userSpaceOnUse">
<stop stop-color="#ACC130"/>
<stop offset="1" stop-color="#97A03B"/>
</linearGradient>
<linearGradient id="paint16_linear" x1="118.229" y1="68.4539" x2="111.575" y2="61.3198" gradientUnits="userSpaceOnUse">
<stop stop-color="#97A03B" stop-opacity="0"/>
<stop offset="1" stop-color="#575C55"/>
</linearGradient>
<linearGradient id="paint17_linear" x1="107.504" y1="62.0542" x2="111.353" y2="69.4098" gradientUnits="userSpaceOnUse">
<stop stop-color="#97A03B"/>
<stop offset="1" stop-color="#6C7D47"/>
</linearGradient>
<linearGradient id="paint18_linear" x1="109.35" y1="28.2227" x2="112.337" y2="35.6243" gradientUnits="userSpaceOnUse">
<stop stop-color="#F2E9DC"/>
<stop offset="0.2282" stop-color="#F0E4D7"/>
<stop offset="0.5158" stop-color="#EAD7C7"/>
<stop offset="0.8338" stop-color="#E0C2AD"/>
<stop offset="1" stop-color="#DAB49D"/>
</linearGradient>
<linearGradient id="paint19_linear" x1="110.711" y1="40.2597" x2="104.52" y2="34.5355" gradientUnits="userSpaceOnUse">
<stop stop-color="#DAB49D" stop-opacity="0"/>
<stop offset="0.2054" stop-color="#D8B198" stop-opacity="0.203922"/>
<stop offset="0.4642" stop-color="#D3A788" stop-opacity="0.462745"/>
<stop offset="0.7504" stop-color="#CA976E" stop-opacity="0.74902"/>
<stop offset="1" stop-color="#C08552"/>
</linearGradient>
<radialGradient id="paint20_radial" cx="0" cy="0" r="1" gradientUnits="userSpaceOnUse" gradientTransform="translate(79.0645 26.504) rotate(-24.13) scale(35.8005)">
<stop stop-color="#FFB211"/>
<stop offset="0.4471" stop-color="#FFB012"/>
<stop offset="0.6081" stop-color="#FFA915"/>
<stop offset="0.7229" stop-color="#FF9E1A"/>
<stop offset="0.8157" stop-color="#FF8D21"/>
<stop offset="0.8952" stop-color="#FF772B"/>
<stop offset="0.9643" stop-color="#FF5C37"/>
<stop offset="1" stop-color="#FF4B3E"/>
</radialGradient>
<radialGradient id="paint21_radial" cx="0" cy="0" r="1" gradientUnits="userSpaceOnUse" gradientTransform="translate(45.8403 36.2472) scale(83.0065 49.1814)">
<stop stop-color="#FFB211"/>
<stop offset="0.2896" stop-color="#FFAF12"/>
<stop offset="0.4734" stop-color="#FFA716"/>
<stop offset="0.6278" stop-color="#FF981C"/>
<stop offset="0.7659" stop-color="#FF8325"/>
<stop offset="0.8918" stop-color="#FF6931"/>
<stop offset="1" stop-color="#FF4B3E"/>
</radialGradient>
<linearGradient id="paint22_linear" x1="113.945" y1="84.8773" x2="95.757" y2="67.7515" gradientUnits="userSpaceOnUse">
<stop stop-color="#FF4B3E" stop-opacity="0"/>
<stop offset="0.1177" stop-color="#F5493B" stop-opacity="0.117647"/>
<stop offset="0.3191" stop-color="#DA4332" stop-opacity="0.317647"/>
<stop offset="0.5796" stop-color="#AD3923" stop-opacity="0.580392"/>
<stop offset="0.886" stop-color="#702C0F" stop-opacity="0.886275"/>
<stop offset="1" stop-color="#582707"/>
</linearGradient>
<linearGradient id="paint23_linear" x1="114.738" y1="44.1718" x2="118.483" y2="53.4528" gradientUnits="userSpaceOnUse">
<stop stop-color="#F2E9DC"/>
<stop offset="0.2282" stop-color="#F0E4D7"/>
<stop offset="0.5158" stop-color="#EAD7C7"/>
<stop offset="0.8338" stop-color="#E0C2AD"/>
<stop offset="1" stop-color="#DAB49D"/>
</linearGradient>
<linearGradient id="paint24_linear" x1="116.444" y1="59.2651" x2="108.681" y2="52.0875" gradientUnits="userSpaceOnUse">
<stop stop-color="#DAB49D" stop-opacity="0"/>
<stop offset="0.2054" stop-color="#D8B198" stop-opacity="0.203922"/>
<stop offset="0.4642" stop-color="#D3A788" stop-opacity="0.462745"/>
<stop offset="0.7504" stop-color="#CA976E" stop-opacity="0.74902"/>
<stop offset="1" stop-color="#C08552"/>
</linearGradient>
<radialGradient id="paint25_radial" cx="0" cy="0" r="1" gradientUnits="userSpaceOnUse" gradientTransform="translate(76.7615 42.0151) rotate(-24.13) scale(44.8912)">
<stop stop-color="#FFB211"/>
<stop offset="0.4471" stop-color="#FFB012"/>
<stop offset="0.6081" stop-color="#FFA915"/>
<stop offset="0.7229" stop-color="#FF9E1A"/>
<stop offset="0.8157" stop-color="#FF8D21"/>
<stop offset="0.8952" stop-color="#FF772B"/>
<stop offset="0.9643" stop-color="#FF5C37"/>
<stop offset="1" stop-color="#FF4B3E"/>
</radialGradient>
<linearGradient id="paint26_linear" x1="47.1636" y1="59.5734" x2="14.4304" y2="21.6878" gradientUnits="userSpaceOnUse">
<stop stop-color="#FF4B3E" stop-opacity="0"/>
<stop offset="0.1177" stop-color="#F5493B" stop-opacity="0.117647"/>
<stop offset="0.3191" stop-color="#DA4332" stop-opacity="0.317647"/>
<stop offset="0.5796" stop-color="#AD3923" stop-opacity="0.580392"/>
<stop offset="0.886" stop-color="#702C0F" stop-opacity="0.886275"/>
<stop offset="1" stop-color="#582707"/>
</linearGradient>
<linearGradient id="paint27_linear" x1="59.616" y1="89.4786" x2="14.8173" y2="44.6799" gradientUnits="userSpaceOnUse">
<stop stop-color="#FF4B3E" stop-opacity="0"/>
<stop offset="0.1177" stop-color="#F5493B" stop-opacity="0.117647"/>
<stop offset="0.3191" stop-color="#DA4332" stop-opacity="0.317647"/>
<stop offset="0.5796" stop-color="#AD3923" stop-opacity="0.580392"/>
<stop offset="0.886" stop-color="#702C0F" stop-opacity="0.886275"/>
<stop offset="1" stop-color="#582707"/>
</linearGradient>
<radialGradient id="paint28_radial" cx="0" cy="0" r="1" gradientUnits="userSpaceOnUse" gradientTransform="translate(35.6677 54.305) scale(33.3431)">
<stop stop-color="#FFB211"/>
<stop offset="0.4471" stop-color="#FFB012"/>
<stop offset="0.6081" stop-color="#FFA915"/>
<stop offset="0.7229" stop-color="#FF9E1A"/>
<stop offset="0.8157" stop-color="#FF8D21"/>
<stop offset="0.8952" stop-color="#FF772B"/>
<stop offset="0.9643" stop-color="#FF5C37"/>
<stop offset="1" stop-color="#FF4B3E"/>
</radialGradient>
<radialGradient id="paint29_radial" cx="0" cy="0" r="1" gradientUnits="userSpaceOnUse" gradientTransform="translate(38.1987 65.9285) scale(22.5412 24.7232)">
<stop stop-color="#582707"/>
<stop offset="0.1704" stop-color="#6F2C0E" stop-opacity="0.831373"/>
<stop offset="0.5276" stop-color="#A93822" stop-opacity="0.470588"/>
<stop offset="1" stop-color="#FF4B3E" stop-opacity="0"/>
</radialGradient>
<radialGradient id="paint30_radial" cx="0" cy="0" r="1" gradientUnits="userSpaceOnUse" gradientTransform="translate(105.031 71.9551) scale(11.7263)">
<stop stop-color="#FF4B3E"/>
<stop offset="0.3692" stop-color="#FD4A3D"/>
<stop offset="0.5424" stop-color="#F54839"/>
<stop offset="0.6748" stop-color="#E84532"/>
<stop offset="0.7864" stop-color="#D64028"/>
<stop offset="0.885" stop-color="#BE391C"/>
<stop offset="0.9729" stop-color="#A2310D"/>
<stop offset="1" stop-color="#972E07"/>
</radialGradient>
<linearGradient id="paint31_linear" x1="107.11" y1="75.3959" x2="97.814" y2="69.1303" gradientUnits="userSpaceOnUse">
<stop offset="0.0013" stop-color="#E7EEED" stop-opacity="0"/>
<stop offset="0.7731" stop-color="#F9FBFA" stop-opacity="0.772549"/>
<stop offset="1" stop-color="white"/>
</linearGradient>
<linearGradient id="paint32_linear" x1="85.1804" y1="67.678" x2="90.2646" y2="88.4162" gradientUnits="userSpaceOnUse">
<stop stop-color="#ACC130"/>
<stop offset="1" stop-color="#97A03B"/>
</linearGradient>
<linearGradient id="paint33_linear" x1="89.3423" y1="85.2211" x2="87.0193" y2="75.7458" gradientUnits="userSpaceOnUse">
<stop stop-color="#97A03B" stop-opacity="0"/>
<stop offset="1" stop-color="#575C55"/>
</linearGradient>
<linearGradient id="paint34_linear" x1="82.5504" y1="74.5356" x2="82.6221" y2="82.9155" gradientUnits="userSpaceOnUse">
<stop stop-color="#97A03B"/>
<stop offset="1" stop-color="#6C7D47"/>
</linearGradient>
<radialGradient id="paint35_radial" cx="0" cy="0" r="1" gradientUnits="userSpaceOnUse" gradientTransform="translate(20.4639 72.1542) scale(11.7263)">
<stop stop-color="#FF4B3E"/>
<stop offset="0.3692" stop-color="#FD4A3D"/>
<stop offset="0.5424" stop-color="#F54839"/>
<stop offset="0.6748" stop-color="#E84532"/>
<stop offset="0.7864" stop-color="#D64028"/>
<stop offset="0.885" stop-color="#BE391C"/>
<stop offset="0.9729" stop-color="#A2310D"/>
<stop offset="1" stop-color="#972E07"/>
</radialGradient>
<linearGradient id="paint36_linear" x1="22.5425" y1="75.5952" x2="13.2468" y2="69.3295" gradientUnits="userSpaceOnUse">
<stop offset="0.0013" stop-color="#E7EEED" stop-opacity="0"/>
<stop offset="0.7731" stop-color="#F9FBFA" stop-opacity="0.772549"/>
<stop offset="1" stop-color="white"/>
</linearGradient>
<radialGradient id="paint37_radial" cx="0" cy="0" r="1" gradientUnits="userSpaceOnUse" gradientTransform="translate(32.2131 74.4112) scale(11.7263)">
<stop stop-color="#FF4B3E"/>
<stop offset="0.3692" stop-color="#FD4A3D"/>
<stop offset="0.5424" stop-color="#F54839"/>
<stop offset="0.6748" stop-color="#E84532"/>
<stop offset="0.7864" stop-color="#D64028"/>
<stop offset="0.885" stop-color="#BE391C"/>
<stop offset="0.9729" stop-color="#A2310D"/>
<stop offset="1" stop-color="#972E07"/>
</radialGradient>
<linearGradient id="paint38_linear" x1="34.2917" y1="77.852" x2="24.9959" y2="71.5864" gradientUnits="userSpaceOnUse">
<stop offset="0.0013" stop-color="#E7EEED" stop-opacity="0"/>
<stop offset="0.7731" stop-color="#F9FBFA" stop-opacity="0.772549"/>
<stop offset="1" stop-color="white"/>
</linearGradient>
<radialGradient id="paint39_radial" cx="0" cy="0" r="1" gradientUnits="userSpaceOnUse" gradientTransform="translate(44.8252 75.3404) scale(11.7263)">
<stop stop-color="#FF4B3E"/>
<stop offset="0.3692" stop-color="#FD4A3D"/>
<stop offset="0.5424" stop-color="#F54839"/>
<stop offset="0.6748" stop-color="#E84532"/>
<stop offset="0.7864" stop-color="#D64028"/>
<stop offset="0.885" stop-color="#BE391C"/>
<stop offset="0.9729" stop-color="#A2310D"/>
<stop offset="1" stop-color="#972E07"/>
</radialGradient>
<linearGradient id="paint40_linear" x1="46.9037" y1="78.7813" x2="37.6079" y2="72.5157" gradientUnits="userSpaceOnUse">
<stop offset="0.0013" stop-color="#E7EEED" stop-opacity="0"/>
<stop offset="0.7731" stop-color="#F9FBFA" stop-opacity="0.772549"/>
<stop offset="1" stop-color="white"/>
</linearGradient>
<radialGradient id="paint41_radial" cx="0" cy="0" r="1" gradientUnits="userSpaceOnUse" gradientTransform="translate(57.238 75.4068) scale(11.7263)">
<stop stop-color="#FF4B3E"/>
<stop offset="0.3692" stop-color="#FD4A3D"/>
<stop offset="0.5424" stop-color="#F54839"/>
<stop offset="0.6748" stop-color="#E84532"/>
<stop offset="0.7864" stop-color="#D64028"/>
<stop offset="0.885" stop-color="#BE391C"/>
<stop offset="0.9729" stop-color="#A2310D"/>
<stop offset="1" stop-color="#972E07"/>
</radialGradient>
<linearGradient id="paint42_linear" x1="59.3167" y1="78.8477" x2="50.0209" y2="72.5821" gradientUnits="userSpaceOnUse">
<stop offset="0.0013" stop-color="#E7EEED" stop-opacity="0"/>
<stop offset="0.7731" stop-color="#F9FBFA" stop-opacity="0.772549"/>
<stop offset="1" stop-color="white"/>
</linearGradient>
<linearGradient id="paint43_linear" x1="49.0208" y1="31.0126" x2="43.7033" y2="-29.8437" gradientUnits="userSpaceOnUse">
<stop stop-color="white" stop-opacity="0.501961"/>
<stop offset="0.1617" stop-color="#F4EAE1" stop-opacity="0.580392"/>
<stop offset="0.741" stop-color="#CFA27B" stop-opacity="0.870588"/>
<stop offset="1" stop-color="#C08552"/>
</linearGradient>
<linearGradient id="paint44_linear" x1="68.2719" y1="32.352" x2="71.303" y2="3.09516" gradientUnits="userSpaceOnUse">
<stop stop-color="white" stop-opacity="0.501961"/>
<stop offset="0.1617" stop-color="#F4EAE1" stop-opacity="0.580392"/>
<stop offset="0.741" stop-color="#CFA27B" stop-opacity="0.870588"/>
<stop offset="1" stop-color="#C08552"/>
</linearGradient>
</defs>
</svg>
